<?xml version="1.0" encoding="utf-8" standalone="no"?>
<!DOCTYPE svg PUBLIC "-//W3C//DTD SVG 1.1//EN"
  "http://www.w3.org/Graphics/SVG/1.1/DTD/svg11.dtd">
<svg xmlns:xlink="http://www.w3.org/1999/xlink" width="352.945515pt" height="280.398125pt" viewBox="0 0 352.945515 280.398125" xmlns="http://www.w3.org/2000/svg" version="1.1">
 <metadata>
  <rdf:RDF xmlns:dc="http://purl.org/dc/elements/1.1/" xmlns:cc="http://creativecommons.org/ns#" xmlns:rdf="http://www.w3.org/1999/02/22-rdf-syntax-ns#">
   <cc:Work>
    <dc:type rdf:resource="http://purl.org/dc/dcmitype/StillImage"/>
    <dc:date>2025-09-03T05:53:46.996769</dc:date>
    <dc:format>image/svg+xml</dc:format>
    <dc:creator>
     <cc:Agent>
      <dc:title>Matplotlib v3.8.0, https://matplotlib.org/</dc:title>
     </cc:Agent>
    </dc:creator>
   </cc:Work>
  </rdf:RDF>
 </metadata>
 <defs>
  <style type="text/css">*{stroke-linejoin: round; stroke-linecap: butt}</style>
 </defs>
 <g id="figure_1">
  <g id="patch_1">
   <path d="M 0 280.398125 
L 352.945515 280.398125 
L 352.945515 0 
L 0 0 
z
" style="fill: #ffffff"/>
  </g>
  <g id="axes_1">
   <g id="patch_2">
    <path d="M 47.345313 254.02 
L 344.392094 254.02 
L 344.392094 7.2 
L 47.345313 7.2 
z
" style="fill: #ffffff"/>
   </g>
   <g id="PathCollection_1">
    <defs>
     <path id="m6b62fa6377" d="M 0 3.162278 
C 0.838646 3.162278 1.643056 2.82908 2.236068 2.236068 
C 2.82908 1.643056 3.162278 0.838646 3.162278 0 
C 3.162278 -0.838646 2.82908 -1.643056 2.236068 -2.236068 
C 1.643056 -2.82908 0.838646 -3.162278 0 -3.162278 
C -0.838646 -3.162278 -1.643056 -2.82908 -2.236068 -2.236068 
C -2.82908 -1.643056 -3.162278 -0.838646 -3.162278 0 
C -3.162278 0.838646 -2.82908 1.643056 -2.236068 2.236068 
C -1.643056 2.82908 -0.838646 3.162278 0 3.162278 
z
" style="stroke: #000000; stroke-opacity: 0.4"/>
    </defs>
    <g clip-path="url(#pe61e4f9727)">
     <use xlink:href="#m6b62fa6377" x="60.847439" y="186.878437" style="fill: #d3d3d3; fill-opacity: 0.4; stroke: #000000; stroke-opacity: 0.4"/>
     <use xlink:href="#m6b62fa6377" x="132.262124" y="167.07988" style="fill: #d3d3d3; fill-opacity: 0.4; stroke: #000000; stroke-opacity: 0.4"/>
     <use xlink:href="#m6b62fa6377" x="188.136586" y="58.004601" style="fill: #d3d3d3; fill-opacity: 0.4; stroke: #000000; stroke-opacity: 0.4"/>
     <use xlink:href="#m6b62fa6377" x="280.798684" y="227.331405" style="fill: #d3d3d3; fill-opacity: 0.4; stroke: #000000; stroke-opacity: 0.4"/>
     <use xlink:href="#m6b62fa6377" x="177.839123" y="42.120868" style="fill: #d3d3d3; fill-opacity: 0.4; stroke: #000000; stroke-opacity: 0.4"/>
     <use xlink:href="#m6b62fa6377" x="211.663543" y="54.237947" style="fill: #d3d3d3; fill-opacity: 0.4; stroke: #000000; stroke-opacity: 0.4"/>
     <use xlink:href="#m6b62fa6377" x="286.352216" y="231.540122" style="fill: #d3d3d3; fill-opacity: 0.4; stroke: #000000; stroke-opacity: 0.4"/>
     <use xlink:href="#m6b62fa6377" x="108.669035" y="159.905207" style="fill: #d3d3d3; fill-opacity: 0.4; stroke: #000000; stroke-opacity: 0.4"/>
     <use xlink:href="#m6b62fa6377" x="221.731503" y="42.883333" style="fill: #d3d3d3; fill-opacity: 0.4; stroke: #000000; stroke-opacity: 0.4"/>
     <use xlink:href="#m6b62fa6377" x="277.429791" y="197.370483" style="fill: #d3d3d3; fill-opacity: 0.4; stroke: #000000; stroke-opacity: 0.4"/>
     <use xlink:href="#m6b62fa6377" x="264.033881" y="229.660807" style="fill: #d3d3d3; fill-opacity: 0.4; stroke: #000000; stroke-opacity: 0.4"/>
     <use xlink:href="#m6b62fa6377" x="156.030475" y="38.745007" style="fill: #d3d3d3; fill-opacity: 0.4; stroke: #000000; stroke-opacity: 0.4"/>
     <use xlink:href="#m6b62fa6377" x="200.769223" y="63.38603" style="fill: #d3d3d3; fill-opacity: 0.4; stroke: #000000; stroke-opacity: 0.4"/>
     <use xlink:href="#m6b62fa6377" x="149.082018" y="174.339784" style="fill: #d3d3d3; fill-opacity: 0.4; stroke: #000000; stroke-opacity: 0.4"/>
     <use xlink:href="#m6b62fa6377" x="111.264718" y="188.676371" style="fill: #d3d3d3; fill-opacity: 0.4; stroke: #000000; stroke-opacity: 0.4"/>
     <use xlink:href="#m6b62fa6377" x="235.519732" y="38.224615" style="fill: #d3d3d3; fill-opacity: 0.4; stroke: #000000; stroke-opacity: 0.4"/>
     <use xlink:href="#m6b62fa6377" x="242.201973" y="222.128804" style="fill: #d3d3d3; fill-opacity: 0.4; stroke: #000000; stroke-opacity: 0.4"/>
     <use xlink:href="#m6b62fa6377" x="214.681541" y="67.082906" style="fill: #d3d3d3; fill-opacity: 0.4; stroke: #000000; stroke-opacity: 0.4"/>
     <use xlink:href="#m6b62fa6377" x="267.927796" y="227.601546" style="fill: #d3d3d3; fill-opacity: 0.4; stroke: #000000; stroke-opacity: 0.4"/>
     <use xlink:href="#m6b62fa6377" x="192.35674" y="53.87066" style="fill: #d3d3d3; fill-opacity: 0.4; stroke: #000000; stroke-opacity: 0.4"/>
     <use xlink:href="#m6b62fa6377" x="257.188548" y="215.822955" style="fill: #d3d3d3; fill-opacity: 0.4; stroke: #000000; stroke-opacity: 0.4"/>
     <use xlink:href="#m6b62fa6377" x="168.351009" y="157.792427" style="fill: #d3d3d3; fill-opacity: 0.4; stroke: #000000; stroke-opacity: 0.4"/>
     <use xlink:href="#m6b62fa6377" x="179.518027" y="60.105325" style="fill: #d3d3d3; fill-opacity: 0.4; stroke: #000000; stroke-opacity: 0.4"/>
     <use xlink:href="#m6b62fa6377" x="152.256542" y="168.286898" style="fill: #d3d3d3; fill-opacity: 0.4; stroke: #000000; stroke-opacity: 0.4"/>
     <use xlink:href="#m6b62fa6377" x="273.237607" y="208.231632" style="fill: #d3d3d3; fill-opacity: 0.4; stroke: #000000; stroke-opacity: 0.4"/>
     <use xlink:href="#m6b62fa6377" x="147.293945" y="48.025944" style="fill: #d3d3d3; fill-opacity: 0.4; stroke: #000000; stroke-opacity: 0.4"/>
     <use xlink:href="#m6b62fa6377" x="190.285907" y="49.977758" style="fill: #d3d3d3; fill-opacity: 0.4; stroke: #000000; stroke-opacity: 0.4"/>
     <use xlink:href="#m6b62fa6377" x="219.591921" y="43.738756" style="fill: #d3d3d3; fill-opacity: 0.4; stroke: #000000; stroke-opacity: 0.4"/>
     <use xlink:href="#m6b62fa6377" x="186.478076" y="36.240289" style="fill: #d3d3d3; fill-opacity: 0.4; stroke: #000000; stroke-opacity: 0.4"/>
     <use xlink:href="#m6b62fa6377" x="277.415762" y="222.421396" style="fill: #d3d3d3; fill-opacity: 0.4; stroke: #000000; stroke-opacity: 0.4"/>
     <use xlink:href="#m6b62fa6377" x="142.275339" y="184.967846" style="fill: #d3d3d3; fill-opacity: 0.4; stroke: #000000; stroke-opacity: 0.4"/>
     <use xlink:href="#m6b62fa6377" x="163.125038" y="48.015153" style="fill: #d3d3d3; fill-opacity: 0.4; stroke: #000000; stroke-opacity: 0.4"/>
     <use xlink:href="#m6b62fa6377" x="201.268791" y="50.755436" style="fill: #d3d3d3; fill-opacity: 0.4; stroke: #000000; stroke-opacity: 0.4"/>
     <use xlink:href="#m6b62fa6377" x="302.303529" y="231.670899" style="fill: #d3d3d3; fill-opacity: 0.4; stroke: #000000; stroke-opacity: 0.4"/>
     <use xlink:href="#m6b62fa6377" x="108.298659" y="165.114734" style="fill: #d3d3d3; fill-opacity: 0.4; stroke: #000000; stroke-opacity: 0.4"/>
     <use xlink:href="#m6b62fa6377" x="127.975658" y="155.952004" style="fill: #d3d3d3; fill-opacity: 0.4; stroke: #000000; stroke-opacity: 0.4"/>
     <use xlink:href="#m6b62fa6377" x="143.775572" y="176.95782" style="fill: #d3d3d3; fill-opacity: 0.4; stroke: #000000; stroke-opacity: 0.4"/>
     <use xlink:href="#m6b62fa6377" x="188.49213" y="34.690149" style="fill: #d3d3d3; fill-opacity: 0.4; stroke: #000000; stroke-opacity: 0.4"/>
     <use xlink:href="#m6b62fa6377" x="192.257892" y="69.032908" style="fill: #d3d3d3; fill-opacity: 0.4; stroke: #000000; stroke-opacity: 0.4"/>
     <use xlink:href="#m6b62fa6377" x="199.368215" y="67.521785" style="fill: #d3d3d3; fill-opacity: 0.4; stroke: #000000; stroke-opacity: 0.4"/>
     <use xlink:href="#m6b62fa6377" x="75.515281" y="166.979758" style="fill: #d3d3d3; fill-opacity: 0.4; stroke: #000000; stroke-opacity: 0.4"/>
     <use xlink:href="#m6b62fa6377" x="281.622856" y="210.377064" style="fill: #d3d3d3; fill-opacity: 0.4; stroke: #000000; stroke-opacity: 0.4"/>
     <use xlink:href="#m6b62fa6377" x="91.3721" y="175.072126" style="fill: #d3d3d3; fill-opacity: 0.4; stroke: #000000; stroke-opacity: 0.4"/>
     <use xlink:href="#m6b62fa6377" x="125.374261" y="179.384141" style="fill: #d3d3d3; fill-opacity: 0.4; stroke: #000000; stroke-opacity: 0.4"/>
     <use xlink:href="#m6b62fa6377" x="228.65123" y="41.764293" style="fill: #d3d3d3; fill-opacity: 0.4; stroke: #000000; stroke-opacity: 0.4"/>
     <use xlink:href="#m6b62fa6377" x="274.080436" y="228.855639" style="fill: #d3d3d3; fill-opacity: 0.4; stroke: #000000; stroke-opacity: 0.4"/>
     <use xlink:href="#m6b62fa6377" x="284.941184" y="225.238211" style="fill: #d3d3d3; fill-opacity: 0.4; stroke: #000000; stroke-opacity: 0.4"/>
     <use xlink:href="#m6b62fa6377" x="246.510077" y="212.300251" style="fill: #d3d3d3; fill-opacity: 0.4; stroke: #000000; stroke-opacity: 0.4"/>
     <use xlink:href="#m6b62fa6377" x="92.752017" y="171.952684" style="fill: #d3d3d3; fill-opacity: 0.4; stroke: #000000; stroke-opacity: 0.4"/>
     <use xlink:href="#m6b62fa6377" x="308.031326" y="235.498663" style="fill: #d3d3d3; fill-opacity: 0.4; stroke: #000000; stroke-opacity: 0.4"/>
     <use xlink:href="#m6b62fa6377" x="224.95868" y="18.444687" style="fill: #d3d3d3; fill-opacity: 0.4; stroke: #000000; stroke-opacity: 0.4"/>
     <use xlink:href="#m6b62fa6377" x="174.370117" y="172.428274" style="fill: #d3d3d3; fill-opacity: 0.4; stroke: #000000; stroke-opacity: 0.4"/>
     <use xlink:href="#m6b62fa6377" x="221.077272" y="242.800909" style="fill: #d3d3d3; fill-opacity: 0.4; stroke: #000000; stroke-opacity: 0.4"/>
     <use xlink:href="#m6b62fa6377" x="298.968762" y="205.209504" style="fill: #d3d3d3; fill-opacity: 0.4; stroke: #000000; stroke-opacity: 0.4"/>
     <use xlink:href="#m6b62fa6377" x="117.281922" y="179.008638" style="fill: #d3d3d3; fill-opacity: 0.4; stroke: #000000; stroke-opacity: 0.4"/>
     <use xlink:href="#m6b62fa6377" x="330.889967" y="213.519719" style="fill: #d3d3d3; fill-opacity: 0.4; stroke: #000000; stroke-opacity: 0.4"/>
     <use xlink:href="#m6b62fa6377" x="192.685279" y="41.24589" style="fill: #d3d3d3; fill-opacity: 0.4; stroke: #000000; stroke-opacity: 0.4"/>
     <use xlink:href="#m6b62fa6377" x="131.314953" y="169.158651" style="fill: #d3d3d3; fill-opacity: 0.4; stroke: #000000; stroke-opacity: 0.4"/>
     <use xlink:href="#m6b62fa6377" x="287.32907" y="227.4771" style="fill: #d3d3d3; fill-opacity: 0.4; stroke: #000000; stroke-opacity: 0.4"/>
     <use xlink:href="#m6b62fa6377" x="261.643406" y="224.957436" style="fill: #d3d3d3; fill-opacity: 0.4; stroke: #000000; stroke-opacity: 0.4"/>
     <use xlink:href="#m6b62fa6377" x="201.816621" y="18.419091" style="fill: #d3d3d3; fill-opacity: 0.4; stroke: #000000; stroke-opacity: 0.4"/>
     <use xlink:href="#m6b62fa6377" x="254.295772" y="53.710696" style="fill: #d3d3d3; fill-opacity: 0.4; stroke: #000000; stroke-opacity: 0.4"/>
     <use xlink:href="#m6b62fa6377" x="90.281951" y="177.995568" style="fill: #d3d3d3; fill-opacity: 0.4; stroke: #000000; stroke-opacity: 0.4"/>
     <use xlink:href="#m6b62fa6377" x="121.832189" y="160.482173" style="fill: #d3d3d3; fill-opacity: 0.4; stroke: #000000; stroke-opacity: 0.4"/>
     <use xlink:href="#m6b62fa6377" x="147.801654" y="180.012135" style="fill: #d3d3d3; fill-opacity: 0.4; stroke: #000000; stroke-opacity: 0.4"/>
     <use xlink:href="#m6b62fa6377" x="299.096694" y="231.294991" style="fill: #d3d3d3; fill-opacity: 0.4; stroke: #000000; stroke-opacity: 0.4"/>
     <use xlink:href="#m6b62fa6377" x="276.489493" y="218.717392" style="fill: #d3d3d3; fill-opacity: 0.4; stroke: #000000; stroke-opacity: 0.4"/>
     <use xlink:href="#m6b62fa6377" x="131.896873" y="165.530714" style="fill: #d3d3d3; fill-opacity: 0.4; stroke: #000000; stroke-opacity: 0.4"/>
     <use xlink:href="#m6b62fa6377" x="110.122705" y="182.426682" style="fill: #d3d3d3; fill-opacity: 0.4; stroke: #000000; stroke-opacity: 0.4"/>
     <use xlink:href="#m6b62fa6377" x="126.835368" y="161.227957" style="fill: #d3d3d3; fill-opacity: 0.4; stroke: #000000; stroke-opacity: 0.4"/>
     <use xlink:href="#m6b62fa6377" x="243.766623" y="26.373569" style="fill: #d3d3d3; fill-opacity: 0.4; stroke: #000000; stroke-opacity: 0.4"/>
     <use xlink:href="#m6b62fa6377" x="303.609518" y="221.469892" style="fill: #d3d3d3; fill-opacity: 0.4; stroke: #000000; stroke-opacity: 0.4"/>
     <use xlink:href="#m6b62fa6377" x="186.05502" y="49.413705" style="fill: #d3d3d3; fill-opacity: 0.4; stroke: #000000; stroke-opacity: 0.4"/>
     <use xlink:href="#m6b62fa6377" x="182.885597" y="44.02164" style="fill: #d3d3d3; fill-opacity: 0.4; stroke: #000000; stroke-opacity: 0.4"/>
     <use xlink:href="#m6b62fa6377" x="124.631911" y="175.66889" style="fill: #d3d3d3; fill-opacity: 0.4; stroke: #000000; stroke-opacity: 0.4"/>
     <use xlink:href="#m6b62fa6377" x="167.663366" y="54.356134" style="fill: #d3d3d3; fill-opacity: 0.4; stroke: #000000; stroke-opacity: 0.4"/>
     <use xlink:href="#m6b62fa6377" x="227.563611" y="45.251885" style="fill: #d3d3d3; fill-opacity: 0.4; stroke: #000000; stroke-opacity: 0.4"/>
     <use xlink:href="#m6b62fa6377" x="142.159166" y="206.506854" style="fill: #d3d3d3; fill-opacity: 0.4; stroke: #000000; stroke-opacity: 0.4"/>
     <use xlink:href="#m6b62fa6377" x="263.93516" y="216.867899" style="fill: #d3d3d3; fill-opacity: 0.4; stroke: #000000; stroke-opacity: 0.4"/>
     <use xlink:href="#m6b62fa6377" x="270.855274" y="225.537314" style="fill: #d3d3d3; fill-opacity: 0.4; stroke: #000000; stroke-opacity: 0.4"/>
     <use xlink:href="#m6b62fa6377" x="278.768064" y="218.543903" style="fill: #d3d3d3; fill-opacity: 0.4; stroke: #000000; stroke-opacity: 0.4"/>
     <use xlink:href="#m6b62fa6377" x="170.732978" y="40.405032" style="fill: #d3d3d3; fill-opacity: 0.4; stroke: #000000; stroke-opacity: 0.4"/>
     <use xlink:href="#m6b62fa6377" x="250.540361" y="225.956558" style="fill: #d3d3d3; fill-opacity: 0.4; stroke: #000000; stroke-opacity: 0.4"/>
     <use xlink:href="#m6b62fa6377" x="211.792346" y="35.469306" style="fill: #d3d3d3; fill-opacity: 0.4; stroke: #000000; stroke-opacity: 0.4"/>
     <use xlink:href="#m6b62fa6377" x="100.586664" y="176.588436" style="fill: #d3d3d3; fill-opacity: 0.4; stroke: #000000; stroke-opacity: 0.4"/>
     <use xlink:href="#m6b62fa6377" x="181.803981" y="44.588555" style="fill: #d3d3d3; fill-opacity: 0.4; stroke: #000000; stroke-opacity: 0.4"/>
     <use xlink:href="#m6b62fa6377" x="82.803358" y="181.189289" style="fill: #d3d3d3; fill-opacity: 0.4; stroke: #000000; stroke-opacity: 0.4"/>
     <use xlink:href="#m6b62fa6377" x="262.230061" y="220.180639" style="fill: #d3d3d3; fill-opacity: 0.4; stroke: #000000; stroke-opacity: 0.4"/>
     <use xlink:href="#m6b62fa6377" x="146.117984" y="167.507368" style="fill: #d3d3d3; fill-opacity: 0.4; stroke: #000000; stroke-opacity: 0.4"/>
     <use xlink:href="#m6b62fa6377" x="130.063585" y="166.428688" style="fill: #d3d3d3; fill-opacity: 0.4; stroke: #000000; stroke-opacity: 0.4"/>
     <use xlink:href="#m6b62fa6377" x="264.916288" y="229.13721" style="fill: #d3d3d3; fill-opacity: 0.4; stroke: #000000; stroke-opacity: 0.4"/>
     <use xlink:href="#m6b62fa6377" x="297.022155" y="239.22646" style="fill: #d3d3d3; fill-opacity: 0.4; stroke: #000000; stroke-opacity: 0.4"/>
     <use xlink:href="#m6b62fa6377" x="268.710129" y="229.440574" style="fill: #d3d3d3; fill-opacity: 0.4; stroke: #000000; stroke-opacity: 0.4"/>
     <use xlink:href="#m6b62fa6377" x="127.365985" y="175.998813" style="fill: #d3d3d3; fill-opacity: 0.4; stroke: #000000; stroke-opacity: 0.4"/>
     <use xlink:href="#m6b62fa6377" x="112.53616" y="173.087405" style="fill: #d3d3d3; fill-opacity: 0.4; stroke: #000000; stroke-opacity: 0.4"/>
     <use xlink:href="#m6b62fa6377" x="100.730521" y="167.702012" style="fill: #d3d3d3; fill-opacity: 0.4; stroke: #000000; stroke-opacity: 0.4"/>
     <use xlink:href="#m6b62fa6377" x="196.862023" y="66.565086" style="fill: #d3d3d3; fill-opacity: 0.4; stroke: #000000; stroke-opacity: 0.4"/>
     <use xlink:href="#m6b62fa6377" x="247.153827" y="229.000846" style="fill: #d3d3d3; fill-opacity: 0.4; stroke: #000000; stroke-opacity: 0.4"/>
     <use xlink:href="#m6b62fa6377" x="291.89979" y="221.375611" style="fill: #d3d3d3; fill-opacity: 0.4; stroke: #000000; stroke-opacity: 0.4"/>
     <use xlink:href="#m6b62fa6377" x="270.096889" y="220.434576" style="fill: #d3d3d3; fill-opacity: 0.4; stroke: #000000; stroke-opacity: 0.4"/>
    </g>
   </g>
   <g id="matplotlib.axis_1">
    <g id="xtick_1">
     <g id="line2d_1">
      <defs>
       <path id="m9fd832908c" d="M 0 0 
L 0 6 
" style="stroke: #000000; stroke-width: 0.5"/>
      </defs>
      <g>
       <use xlink:href="#m9fd832908c" x="63.511078" y="254.02" style="stroke: #000000; stroke-width: 0.5"/>
      </g>
     </g>
     <g id="text_1">
      <!-- −2 -->
      <g transform="translate(56.139985 271.118437) scale(0.1 -0.1)">
       <defs>
        <path id="DejaVuSerif-2212" d="M 678 2259 
L 4684 2259 
L 4684 1753 
L 678 1753 
L 678 2259 
z
" transform="scale(0.015625)"/>
        <path id="DejaVuSerif-32" d="M 819 3553 
L 469 3553 
L 469 4384 
Q 803 4563 1142 4656 
Q 1481 4750 1806 4750 
Q 2534 4750 2956 4397 
Q 3378 4044 3378 3438 
Q 3378 2753 2422 1800 
Q 2347 1728 2309 1691 
L 1131 513 
L 3078 513 
L 3078 1088 
L 3444 1088 
L 3444 0 
L 434 0 
L 434 341 
L 1850 1753 
Q 2319 2222 2519 2614 
Q 2719 3006 2719 3438 
Q 2719 3909 2473 4175 
Q 2228 4441 1797 4441 
Q 1350 4441 1106 4219 
Q 863 3997 819 3553 
z
" transform="scale(0.015625)"/>
       </defs>
       <use xlink:href="#DejaVuSerif-2212"/>
       <use xlink:href="#DejaVuSerif-32" x="83.789062"/>
      </g>
     </g>
    </g>
    <g id="xtick_2">
     <g id="line2d_2">
      <g>
       <use xlink:href="#m9fd832908c" x="119.321716" y="254.02" style="stroke: #000000; stroke-width: 0.5"/>
      </g>
     </g>
     <g id="text_2">
      <!-- 0 -->
      <g transform="translate(116.140466 271.118437) scale(0.1 -0.1)">
       <defs>
        <path id="DejaVuSerif-30" d="M 2034 219 
Q 2513 219 2750 744 
Q 2988 1269 2988 2328 
Q 2988 3391 2750 3916 
Q 2513 4441 2034 4441 
Q 1556 4441 1318 3916 
Q 1081 3391 1081 2328 
Q 1081 1269 1318 744 
Q 1556 219 2034 219 
z
M 2034 -91 
Q 1275 -91 848 546 
Q 422 1184 422 2328 
Q 422 3475 848 4112 
Q 1275 4750 2034 4750 
Q 2797 4750 3222 4112 
Q 3647 3475 3647 2328 
Q 3647 1184 3222 546 
Q 2797 -91 2034 -91 
z
" transform="scale(0.015625)"/>
       </defs>
       <use xlink:href="#DejaVuSerif-30"/>
      </g>
     </g>
    </g>
    <g id="xtick_3">
     <g id="line2d_3">
      <g>
       <use xlink:href="#m9fd832908c" x="175.132353" y="254.02" style="stroke: #000000; stroke-width: 0.5"/>
      </g>
     </g>
     <g id="text_3">
      <!-- 2 -->
      <g transform="translate(171.951103 271.118437) scale(0.1 -0.1)">
       <use xlink:href="#DejaVuSerif-32"/>
      </g>
     </g>
    </g>
    <g id="xtick_4">
     <g id="line2d_4">
      <g>
       <use xlink:href="#m9fd832908c" x="230.94299" y="254.02" style="stroke: #000000; stroke-width: 0.5"/>
      </g>
     </g>
     <g id="text_4">
      <!-- 4 -->
      <g transform="translate(227.76174 271.118437) scale(0.1 -0.1)">
       <defs>
        <path id="DejaVuSerif-34" d="M 2234 1581 
L 2234 4063 
L 641 1581 
L 2234 1581 
z
M 3609 0 
L 1484 0 
L 1484 331 
L 2234 331 
L 2234 1247 
L 197 1247 
L 197 1588 
L 2241 4750 
L 2859 4750 
L 2859 1581 
L 3750 1581 
L 3750 1247 
L 2859 1247 
L 2859 331 
L 3609 331 
L 3609 0 
z
" transform="scale(0.015625)"/>
       </defs>
       <use xlink:href="#DejaVuSerif-34"/>
      </g>
     </g>
    </g>
    <g id="xtick_5">
     <g id="line2d_5">
      <g>
       <use xlink:href="#m9fd832908c" x="286.753627" y="254.02" style="stroke: #000000; stroke-width: 0.5"/>
      </g>
     </g>
     <g id="text_5">
      <!-- 6 -->
      <g transform="translate(283.572377 271.118437) scale(0.1 -0.1)">
       <defs>
        <path id="DejaVuSerif-36" d="M 2094 219 
Q 2534 219 2771 542 
Q 3009 866 3009 1472 
Q 3009 2078 2771 2401 
Q 2534 2725 2094 2725 
Q 1647 2725 1412 2412 
Q 1178 2100 1178 1509 
Q 1178 888 1415 553 
Q 1653 219 2094 219 
z
M 1075 2569 
Q 1288 2803 1556 2918 
Q 1825 3034 2163 3034 
Q 2859 3034 3264 2615 
Q 3669 2197 3669 1472 
Q 3669 763 3233 336 
Q 2797 -91 2069 -91 
Q 1278 -91 853 498 
Q 428 1088 428 2181 
Q 428 3406 931 4078 
Q 1434 4750 2350 4750 
Q 2597 4750 2869 4703 
Q 3141 4656 3425 4563 
L 3425 3794 
L 3072 3794 
Q 3034 4109 2831 4275 
Q 2628 4441 2284 4441 
Q 1678 4441 1381 3981 
Q 1084 3522 1075 2569 
z
" transform="scale(0.015625)"/>
       </defs>
       <use xlink:href="#DejaVuSerif-36"/>
      </g>
     </g>
    </g>
    <g id="xtick_6">
     <g id="line2d_6">
      <g>
       <use xlink:href="#m9fd832908c" x="342.564265" y="254.02" style="stroke: #000000; stroke-width: 0.5"/>
      </g>
     </g>
     <g id="text_6">
      <!-- 8 -->
      <g transform="translate(339.383015 271.118437) scale(0.1 -0.1)">
       <defs>
        <path id="DejaVuSerif-38" d="M 2981 1275 
Q 2981 1775 2732 2051 
Q 2484 2328 2034 2328 
Q 1584 2328 1336 2051 
Q 1088 1775 1088 1275 
Q 1088 772 1336 495 
Q 1584 219 2034 219 
Q 2484 219 2732 495 
Q 2981 772 2981 1275 
z
M 2853 3541 
Q 2853 3966 2637 4203 
Q 2422 4441 2034 4441 
Q 1650 4441 1433 4203 
Q 1216 3966 1216 3541 
Q 1216 3113 1433 2875 
Q 1650 2638 2034 2638 
Q 2422 2638 2637 2875 
Q 2853 3113 2853 3541 
z
M 2516 2484 
Q 3047 2413 3344 2092 
Q 3641 1772 3641 1275 
Q 3641 619 3225 264 
Q 2809 -91 2034 -91 
Q 1263 -91 845 264 
Q 428 619 428 1275 
Q 428 1772 725 2092 
Q 1022 2413 1556 2484 
Q 1084 2569 832 2842 
Q 581 3116 581 3541 
Q 581 4103 968 4426 
Q 1356 4750 2034 4750 
Q 2713 4750 3100 4426 
Q 3488 4103 3488 3541 
Q 3488 3116 3236 2842 
Q 2984 2569 2516 2484 
z
" transform="scale(0.015625)"/>
       </defs>
       <use xlink:href="#DejaVuSerif-38"/>
      </g>
     </g>
    </g>
   </g>
   <g id="matplotlib.axis_2">
    <g id="ytick_1">
     <g id="line2d_7">
      <defs>
       <path id="m84eeead547" d="M 0 0 
L -6 0 
" style="stroke: #000000; stroke-width: 0.5"/>
      </defs>
      <g>
       <use xlink:href="#m84eeead547" x="47.345313" y="228.690708" style="stroke: #000000; stroke-width: 0.5"/>
      </g>
     </g>
     <g id="text_7">
      <!-- −10.0 -->
      <g transform="translate(7.2 232.489926) scale(0.1 -0.1)">
       <defs>
        <path id="DejaVuSerif-31" d="M 909 0 
L 909 331 
L 1722 331 
L 1722 4213 
L 781 3603 
L 781 4013 
L 1919 4750 
L 2350 4750 
L 2350 331 
L 3163 331 
L 3163 0 
L 909 0 
z
" transform="scale(0.015625)"/>
        <path id="DejaVuSerif-2e" d="M 603 325 
Q 603 500 722 622 
Q 841 744 1019 744 
Q 1191 744 1312 622 
Q 1434 500 1434 325 
Q 1434 153 1312 31 
Q 1191 -91 1019 -91 
Q 841 -91 722 29 
Q 603 150 603 325 
z
" transform="scale(0.015625)"/>
       </defs>
       <use xlink:href="#DejaVuSerif-2212"/>
       <use xlink:href="#DejaVuSerif-31" x="83.789062"/>
       <use xlink:href="#DejaVuSerif-30" x="147.412109"/>
       <use xlink:href="#DejaVuSerif-2e" x="211.035156"/>
       <use xlink:href="#DejaVuSerif-30" x="242.822266"/>
      </g>
     </g>
    </g>
    <g id="ytick_2">
     <g id="line2d_8">
      <g>
       <use xlink:href="#m84eeead547" x="47.345313" y="198.122576" style="stroke: #000000; stroke-width: 0.5"/>
      </g>
     </g>
     <g id="text_8">
      <!-- −7.5 -->
      <g transform="translate(13.5625 201.921795) scale(0.1 -0.1)">
       <defs>
        <path id="DejaVuSerif-37" d="M 3609 4347 
L 1784 0 
L 1319 0 
L 3059 4153 
L 903 4153 
L 903 3578 
L 538 3578 
L 538 4666 
L 3609 4666 
L 3609 4347 
z
" transform="scale(0.015625)"/>
        <path id="DejaVuSerif-35" d="M 3219 4666 
L 3219 4153 
L 1081 4153 
L 1081 2816 
Q 1244 2928 1461 2984 
Q 1678 3041 1947 3041 
Q 2703 3041 3140 2622 
Q 3578 2203 3578 1478 
Q 3578 738 3136 323 
Q 2694 -91 1894 -91 
Q 1572 -91 1234 -12 
Q 897 66 544 225 
L 544 1131 
L 897 1131 
Q 925 688 1179 453 
Q 1434 219 1894 219 
Q 2388 219 2653 544 
Q 2919 869 2919 1478 
Q 2919 2084 2655 2407 
Q 2391 2731 1894 2731 
Q 1613 2731 1398 2631 
Q 1184 2531 1019 2322 
L 750 2322 
L 750 4666 
L 3219 4666 
z
" transform="scale(0.015625)"/>
       </defs>
       <use xlink:href="#DejaVuSerif-2212"/>
       <use xlink:href="#DejaVuSerif-37" x="83.789062"/>
       <use xlink:href="#DejaVuSerif-2e" x="147.412109"/>
       <use xlink:href="#DejaVuSerif-35" x="179.199219"/>
      </g>
     </g>
    </g>
    <g id="ytick_3">
     <g id="line2d_9">
      <g>
       <use xlink:href="#m84eeead547" x="47.345313" y="167.554445" style="stroke: #000000; stroke-width: 0.5"/>
      </g>
     </g>
     <g id="text_9">
      <!-- −5.0 -->
      <g transform="translate(13.5625 171.353664) scale(0.1 -0.1)">
       <use xlink:href="#DejaVuSerif-2212"/>
       <use xlink:href="#DejaVuSerif-35" x="83.789062"/>
       <use xlink:href="#DejaVuSerif-2e" x="147.412109"/>
       <use xlink:href="#DejaVuSerif-30" x="179.199219"/>
      </g>
     </g>
    </g>
    <g id="ytick_4">
     <g id="line2d_10">
      <g>
       <use xlink:href="#m84eeead547" x="47.345313" y="136.986314" style="stroke: #000000; stroke-width: 0.5"/>
      </g>
     </g>
     <g id="text_10">
      <!-- −2.5 -->
      <g transform="translate(13.5625 140.785532) scale(0.1 -0.1)">
       <use xlink:href="#DejaVuSerif-2212"/>
       <use xlink:href="#DejaVuSerif-32" x="83.789062"/>
       <use xlink:href="#DejaVuSerif-2e" x="147.412109"/>
       <use xlink:href="#DejaVuSerif-35" x="179.199219"/>
      </g>
     </g>
    </g>
    <g id="ytick_5">
     <g id="line2d_11">
      <g>
       <use xlink:href="#m84eeead547" x="47.345313" y="106.418182" style="stroke: #000000; stroke-width: 0.5"/>
      </g>
     </g>
     <g id="text_11">
      <!-- 0.0 -->
      <g transform="translate(21.942188 110.217401) scale(0.1 -0.1)">
       <use xlink:href="#DejaVuSerif-30"/>
       <use xlink:href="#DejaVuSerif-2e" x="63.623047"/>
       <use xlink:href="#DejaVuSerif-30" x="95.410156"/>
      </g>
     </g>
    </g>
    <g id="ytick_6">
     <g id="line2d_12">
      <g>
       <use xlink:href="#m84eeead547" x="47.345313" y="75.850051" style="stroke: #000000; stroke-width: 0.5"/>
      </g>
     </g>
     <g id="text_12">
      <!-- 2.5 -->
      <g transform="translate(21.942188 79.64927) scale(0.1 -0.1)">
       <use xlink:href="#DejaVuSerif-32"/>
       <use xlink:href="#DejaVuSerif-2e" x="63.623047"/>
       <use xlink:href="#DejaVuSerif-35" x="95.410156"/>
      </g>
     </g>
    </g>
    <g id="ytick_7">
     <g id="line2d_13">
      <g>
       <use xlink:href="#m84eeead547" x="47.345313" y="45.28192" style="stroke: #000000; stroke-width: 0.5"/>
      </g>
     </g>
     <g id="text_13">
      <!-- 5.0 -->
      <g transform="translate(21.942188 49.081138) scale(0.1 -0.1)">
       <use xlink:href="#DejaVuSerif-35"/>
       <use xlink:href="#DejaVuSerif-2e" x="63.623047"/>
       <use xlink:href="#DejaVuSerif-30" x="95.410156"/>
      </g>
     </g>
    </g>
    <g id="ytick_8">
     <g id="line2d_14">
      <g>
       <use xlink:href="#m84eeead547" x="47.345313" y="14.713788" style="stroke: #000000; stroke-width: 0.5"/>
      </g>
     </g>
     <g id="text_14">
      <!-- 7.5 -->
      <g transform="translate(21.942188 18.513007) scale(0.1 -0.1)">
       <use xlink:href="#DejaVuSerif-37"/>
       <use xlink:href="#DejaVuSerif-2e" x="63.623047"/>
       <use xlink:href="#DejaVuSerif-35" x="95.410156"/>
      </g>
     </g>
    </g>
   </g>
   <g id="patch_3">
    <path d="M 47.345313 254.02 
L 47.345313 7.2 
" style="fill: none; stroke: #000000; stroke-width: 0.5; stroke-linejoin: miter; stroke-linecap: square"/>
   </g>
   <g id="patch_4">
    <path d="M 344.392094 254.02 
L 344.392094 7.2 
" style="fill: none; stroke: #000000; stroke-width: 0.5; stroke-linejoin: miter; stroke-linecap: square"/>
   </g>
   <g id="patch_5">
    <path d="M 47.345313 254.02 
L 344.392094 254.02 
" style="fill: none; stroke: #000000; stroke-width: 0.5; stroke-linejoin: miter; stroke-linecap: square"/>
   </g>
   <g id="patch_6">
    <path d="M 47.345313 7.2 
L 344.392094 7.2 
" style="fill: none; stroke: #000000; stroke-width: 0.5; stroke-linejoin: miter; stroke-linecap: square"/>
   </g>
  </g>
 </g>
 <defs>
  <clipPath id="pe61e4f9727">
   <rect x="47.345313" y="7.2" width="297.046781" height="246.82"/>
  </clipPath>
 </defs>
</svg>
