<?xml version="1.0" encoding="utf-8" standalone="no"?>
<!DOCTYPE svg PUBLIC "-//W3C//DTD SVG 1.1//EN"
  "http://www.w3.org/Graphics/SVG/1.1/DTD/svg11.dtd">
<svg xmlns:xlink="http://www.w3.org/1999/xlink" width="352.745pt" height="280.398125pt" viewBox="0 0 352.745 280.398125" xmlns="http://www.w3.org/2000/svg" version="1.1">
 <metadata>
  <rdf:RDF xmlns:dc="http://purl.org/dc/elements/1.1/" xmlns:cc="http://creativecommons.org/ns#" xmlns:rdf="http://www.w3.org/1999/02/22-rdf-syntax-ns#">
   <cc:Work>
    <dc:type rdf:resource="http://purl.org/dc/dcmitype/StillImage"/>
    <dc:date>2025-07-22T22:16:18.421247</dc:date>
    <dc:format>image/svg+xml</dc:format>
    <dc:creator>
     <cc:Agent>
      <dc:title>Matplotlib v3.8.0, https://matplotlib.org/</dc:title>
     </cc:Agent>
    </dc:creator>
   </cc:Work>
  </rdf:RDF>
 </metadata>
 <defs>
  <style type="text/css">*{stroke-linejoin: round; stroke-linecap: butt}</style>
 </defs>
 <g id="figure_1">
  <g id="patch_1">
   <path d="M 0 280.398125 
L 352.745 280.398125 
L 352.745 0 
L 0 0 
z
" style="fill: #ffffff"/>
  </g>
  <g id="axes_1">
   <g id="patch_2">
    <path d="M 29.425 254.02 
L 345.545 254.02 
L 345.545 7.2 
L 29.425 7.2 
z
" style="fill: #ffffff"/>
   </g>
   <g id="PathCollection_1">
    <defs>
     <path id="ma8cef483b3" d="M 0 3.162278 
C 0.838646 3.162278 1.643056 2.82908 2.236068 2.236068 
C 2.82908 1.643056 3.162278 0.838646 3.162278 0 
C 3.162278 -0.838646 2.82908 -1.643056 2.236068 -2.236068 
C 1.643056 -2.82908 0.838646 -3.162278 0 -3.162278 
C -0.838646 -3.162278 -1.643056 -2.82908 -2.236068 -2.236068 
C -2.82908 -1.643056 -3.162278 -0.838646 -3.162278 0 
C -3.162278 0.838646 -2.82908 1.643056 -2.236068 2.236068 
C -1.643056 2.82908 -0.838646 3.162278 0 3.162278 
z
" style="stroke: #333446; stroke-opacity: 0.5"/>
    </defs>
    <g clip-path="url(#p66f2da9b50)">
     <use xlink:href="#ma8cef483b3" x="324.011516" y="210.054864" style="fill: #3d74b6; fill-opacity: 0.5; stroke: #333446; stroke-opacity: 0.5"/>
     <use xlink:href="#ma8cef483b3" x="234.695594" y="238.906271" style="fill: #3d74b6; fill-opacity: 0.5; stroke: #333446; stroke-opacity: 0.5"/>
     <use xlink:href="#ma8cef483b3" x="234.905686" y="242.800909" style="fill: #3d74b6; fill-opacity: 0.5; stroke: #333446; stroke-opacity: 0.5"/>
     <use xlink:href="#ma8cef483b3" x="312.815573" y="211.336035" style="fill: #3d74b6; fill-opacity: 0.5; stroke: #333446; stroke-opacity: 0.5"/>
     <use xlink:href="#ma8cef483b3" x="265.038156" y="226.0208" style="fill: #3d74b6; fill-opacity: 0.5; stroke: #333446; stroke-opacity: 0.5"/>
     <use xlink:href="#ma8cef483b3" x="237.946664" y="237.075484" style="fill: #3d74b6; fill-opacity: 0.5; stroke: #333446; stroke-opacity: 0.5"/>
     <use xlink:href="#ma8cef483b3" x="326.822631" y="208.032758" style="fill: #3d74b6; fill-opacity: 0.5; stroke: #333446; stroke-opacity: 0.5"/>
     <use xlink:href="#ma8cef483b3" x="259.217962" y="231.537189" style="fill: #3d74b6; fill-opacity: 0.5; stroke: #333446; stroke-opacity: 0.5"/>
     <use xlink:href="#ma8cef483b3" x="306.217789" y="216.602316" style="fill: #3d74b6; fill-opacity: 0.5; stroke: #333446; stroke-opacity: 0.5"/>
     <use xlink:href="#ma8cef483b3" x="303.324178" y="217.293671" style="fill: #3d74b6; fill-opacity: 0.5; stroke: #333446; stroke-opacity: 0.5"/>
     <use xlink:href="#ma8cef483b3" x="321.668112" y="211.134314" style="fill: #3d74b6; fill-opacity: 0.5; stroke: #333446; stroke-opacity: 0.5"/>
     <use xlink:href="#ma8cef483b3" x="291.391815" y="219.62503" style="fill: #3d74b6; fill-opacity: 0.5; stroke: #333446; stroke-opacity: 0.5"/>
     <use xlink:href="#ma8cef483b3" x="306.232987" y="217.628993" style="fill: #3d74b6; fill-opacity: 0.5; stroke: #333446; stroke-opacity: 0.5"/>
     <use xlink:href="#ma8cef483b3" x="259.350022" y="230.216342" style="fill: #3d74b6; fill-opacity: 0.5; stroke: #333446; stroke-opacity: 0.5"/>
     <use xlink:href="#ma8cef483b3" x="250.141159" y="231.169025" style="fill: #3d74b6; fill-opacity: 0.5; stroke: #333446; stroke-opacity: 0.5"/>
     <use xlink:href="#ma8cef483b3" x="323.1351" y="208.876591" style="fill: #3d74b6; fill-opacity: 0.5; stroke: #333446; stroke-opacity: 0.5"/>
     <use xlink:href="#ma8cef483b3" x="268.584819" y="227.309435" style="fill: #3d74b6; fill-opacity: 0.5; stroke: #333446; stroke-opacity: 0.5"/>
     <use xlink:href="#ma8cef483b3" x="331.175909" y="207.581464" style="fill: #3d74b6; fill-opacity: 0.5; stroke: #333446; stroke-opacity: 0.5"/>
     <use xlink:href="#ma8cef483b3" x="296.029372" y="217.833092" style="fill: #3d74b6; fill-opacity: 0.5; stroke: #333446; stroke-opacity: 0.5"/>
     <use xlink:href="#ma8cef483b3" x="291.161334" y="222.261246" style="fill: #3d74b6; fill-opacity: 0.5; stroke: #333446; stroke-opacity: 0.5"/>
     <use xlink:href="#ma8cef483b3" x="232.045163" y="232.274682" style="fill: #3d74b6; fill-opacity: 0.5; stroke: #333446; stroke-opacity: 0.5"/>
     <use xlink:href="#ma8cef483b3" x="329.385831" y="204.370981" style="fill: #3d74b6; fill-opacity: 0.5; stroke: #333446; stroke-opacity: 0.5"/>
     <use xlink:href="#ma8cef483b3" x="271.129392" y="225.302311" style="fill: #3d74b6; fill-opacity: 0.5; stroke: #333446; stroke-opacity: 0.5"/>
     <use xlink:href="#ma8cef483b3" x="286.111344" y="227.36485" style="fill: #3d74b6; fill-opacity: 0.5; stroke: #333446; stroke-opacity: 0.5"/>
     <use xlink:href="#ma8cef483b3" x="266.257908" y="228.466852" style="fill: #3d74b6; fill-opacity: 0.5; stroke: #333446; stroke-opacity: 0.5"/>
     <use xlink:href="#ma8cef483b3" x="162.5332" y="169.956589" style="fill: #3d74b6; fill-opacity: 0.5; stroke: #333446; stroke-opacity: 0.5"/>
     <use xlink:href="#ma8cef483b3" x="253.72169" y="143.61242" style="fill: #3d74b6; fill-opacity: 0.5; stroke: #333446; stroke-opacity: 0.5"/>
     <use xlink:href="#ma8cef483b3" x="187.526192" y="168.492292" style="fill: #3d74b6; fill-opacity: 0.5; stroke: #333446; stroke-opacity: 0.5"/>
     <use xlink:href="#ma8cef483b3" x="254.47646" y="139.941425" style="fill: #3d74b6; fill-opacity: 0.5; stroke: #333446; stroke-opacity: 0.5"/>
     <use xlink:href="#ma8cef483b3" x="205.587724" y="156.975247" style="fill: #3d74b6; fill-opacity: 0.5; stroke: #333446; stroke-opacity: 0.5"/>
     <use xlink:href="#ma8cef483b3" x="261.057624" y="141.331768" style="fill: #3d74b6; fill-opacity: 0.5; stroke: #333446; stroke-opacity: 0.5"/>
     <use xlink:href="#ma8cef483b3" x="247.481688" y="147.701042" style="fill: #3d74b6; fill-opacity: 0.5; stroke: #333446; stroke-opacity: 0.5"/>
     <use xlink:href="#ma8cef483b3" x="225.222721" y="148.417751" style="fill: #3d74b6; fill-opacity: 0.5; stroke: #333446; stroke-opacity: 0.5"/>
     <use xlink:href="#ma8cef483b3" x="176.27096" y="161.301324" style="fill: #3d74b6; fill-opacity: 0.5; stroke: #333446; stroke-opacity: 0.5"/>
     <use xlink:href="#ma8cef483b3" x="167.345803" y="175.369608" style="fill: #3d74b6; fill-opacity: 0.5; stroke: #333446; stroke-opacity: 0.5"/>
     <use xlink:href="#ma8cef483b3" x="174.508754" y="164.006944" style="fill: #3d74b6; fill-opacity: 0.5; stroke: #333446; stroke-opacity: 0.5"/>
     <use xlink:href="#ma8cef483b3" x="165.553973" y="165.578844" style="fill: #3d74b6; fill-opacity: 0.5; stroke: #333446; stroke-opacity: 0.5"/>
     <use xlink:href="#ma8cef483b3" x="172.893764" y="167.163556" style="fill: #3d74b6; fill-opacity: 0.5; stroke: #333446; stroke-opacity: 0.5"/>
     <use xlink:href="#ma8cef483b3" x="186.679017" y="167.515586" style="fill: #3d74b6; fill-opacity: 0.5; stroke: #333446; stroke-opacity: 0.5"/>
     <use xlink:href="#ma8cef483b3" x="243.501427" y="144.056349" style="fill: #3d74b6; fill-opacity: 0.5; stroke: #333446; stroke-opacity: 0.5"/>
     <use xlink:href="#ma8cef483b3" x="225.628149" y="152.608267" style="fill: #3d74b6; fill-opacity: 0.5; stroke: #333446; stroke-opacity: 0.5"/>
     <use xlink:href="#ma8cef483b3" x="161.822883" y="173.335911" style="fill: #3d74b6; fill-opacity: 0.5; stroke: #333446; stroke-opacity: 0.5"/>
     <use xlink:href="#ma8cef483b3" x="168.751741" y="173.078237" style="fill: #3d74b6; fill-opacity: 0.5; stroke: #333446; stroke-opacity: 0.5"/>
     <use xlink:href="#ma8cef483b3" x="273.154257" y="135.934141" style="fill: #3d74b6; fill-opacity: 0.5; stroke: #333446; stroke-opacity: 0.5"/>
     <use xlink:href="#ma8cef483b3" x="226.60576" y="149.422042" style="fill: #3d74b6; fill-opacity: 0.5; stroke: #333446; stroke-opacity: 0.5"/>
     <use xlink:href="#ma8cef483b3" x="184.065041" y="166.60585" style="fill: #3d74b6; fill-opacity: 0.5; stroke: #333446; stroke-opacity: 0.5"/>
     <use xlink:href="#ma8cef483b3" x="189.782796" y="161.467643" style="fill: #3d74b6; fill-opacity: 0.5; stroke: #333446; stroke-opacity: 0.5"/>
     <use xlink:href="#ma8cef483b3" x="247.097361" y="148.913243" style="fill: #3d74b6; fill-opacity: 0.5; stroke: #333446; stroke-opacity: 0.5"/>
     <use xlink:href="#ma8cef483b3" x="183.148037" y="162.658316" style="fill: #3d74b6; fill-opacity: 0.5; stroke: #333446; stroke-opacity: 0.5"/>
     <use xlink:href="#ma8cef483b3" x="228.151849" y="151.163365" style="fill: #3d74b6; fill-opacity: 0.5; stroke: #333446; stroke-opacity: 0.5"/>
     <use xlink:href="#ma8cef483b3" x="132.756393" y="122.34336" style="fill: #3d74b6; fill-opacity: 0.5; stroke: #333446; stroke-opacity: 0.5"/>
     <use xlink:href="#ma8cef483b3" x="109.744783" y="128.108512" style="fill: #3d74b6; fill-opacity: 0.5; stroke: #333446; stroke-opacity: 0.5"/>
     <use xlink:href="#ma8cef483b3" x="187.770107" y="106.782348" style="fill: #3d74b6; fill-opacity: 0.5; stroke: #333446; stroke-opacity: 0.5"/>
     <use xlink:href="#ma8cef483b3" x="192.0978" y="104.1145" style="fill: #3d74b6; fill-opacity: 0.5; stroke: #333446; stroke-opacity: 0.5"/>
     <use xlink:href="#ma8cef483b3" x="207.914731" y="99.774404" style="fill: #3d74b6; fill-opacity: 0.5; stroke: #333446; stroke-opacity: 0.5"/>
     <use xlink:href="#ma8cef483b3" x="210.731623" y="94.088662" style="fill: #3d74b6; fill-opacity: 0.5; stroke: #333446; stroke-opacity: 0.5"/>
     <use xlink:href="#ma8cef483b3" x="103.679875" y="129.612959" style="fill: #3d74b6; fill-opacity: 0.5; stroke: #333446; stroke-opacity: 0.5"/>
     <use xlink:href="#ma8cef483b3" x="129.382276" y="120.191383" style="fill: #3d74b6; fill-opacity: 0.5; stroke: #333446; stroke-opacity: 0.5"/>
     <use xlink:href="#ma8cef483b3" x="173.976411" y="108.784396" style="fill: #3d74b6; fill-opacity: 0.5; stroke: #333446; stroke-opacity: 0.5"/>
     <use xlink:href="#ma8cef483b3" x="212.719179" y="94.024052" style="fill: #3d74b6; fill-opacity: 0.5; stroke: #333446; stroke-opacity: 0.5"/>
     <use xlink:href="#ma8cef483b3" x="212.854425" y="92.495095" style="fill: #3d74b6; fill-opacity: 0.5; stroke: #333446; stroke-opacity: 0.5"/>
     <use xlink:href="#ma8cef483b3" x="166.965125" y="110.0142" style="fill: #3d74b6; fill-opacity: 0.5; stroke: #333446; stroke-opacity: 0.5"/>
     <use xlink:href="#ma8cef483b3" x="208.823192" y="98.132818" style="fill: #3d74b6; fill-opacity: 0.5; stroke: #333446; stroke-opacity: 0.5"/>
     <use xlink:href="#ma8cef483b3" x="176.86696" y="113.088831" style="fill: #3d74b6; fill-opacity: 0.5; stroke: #333446; stroke-opacity: 0.5"/>
     <use xlink:href="#ma8cef483b3" x="147.532346" y="117.201743" style="fill: #3d74b6; fill-opacity: 0.5; stroke: #333446; stroke-opacity: 0.5"/>
     <use xlink:href="#ma8cef483b3" x="158.725062" y="113.04961" style="fill: #3d74b6; fill-opacity: 0.5; stroke: #333446; stroke-opacity: 0.5"/>
     <use xlink:href="#ma8cef483b3" x="172.522514" y="113.129325" style="fill: #3d74b6; fill-opacity: 0.5; stroke: #333446; stroke-opacity: 0.5"/>
     <use xlink:href="#ma8cef483b3" x="166.136569" y="105.041342" style="fill: #3d74b6; fill-opacity: 0.5; stroke: #333446; stroke-opacity: 0.5"/>
     <use xlink:href="#ma8cef483b3" x="210.056368" y="99.270251" style="fill: #3d74b6; fill-opacity: 0.5; stroke: #333446; stroke-opacity: 0.5"/>
     <use xlink:href="#ma8cef483b3" x="209.187846" y="94.842755" style="fill: #3d74b6; fill-opacity: 0.5; stroke: #333446; stroke-opacity: 0.5"/>
     <use xlink:href="#ma8cef483b3" x="148.099999" y="115.874315" style="fill: #3d74b6; fill-opacity: 0.5; stroke: #333446; stroke-opacity: 0.5"/>
     <use xlink:href="#ma8cef483b3" x="214.380451" y="93.448466" style="fill: #3d74b6; fill-opacity: 0.5; stroke: #333446; stroke-opacity: 0.5"/>
     <use xlink:href="#ma8cef483b3" x="122.338192" y="122.698492" style="fill: #3d74b6; fill-opacity: 0.5; stroke: #333446; stroke-opacity: 0.5"/>
     <use xlink:href="#ma8cef483b3" x="116.784436" y="127.710125" style="fill: #3d74b6; fill-opacity: 0.5; stroke: #333446; stroke-opacity: 0.5"/>
     <use xlink:href="#ma8cef483b3" x="117.804744" y="127.325784" style="fill: #3d74b6; fill-opacity: 0.5; stroke: #333446; stroke-opacity: 0.5"/>
     <use xlink:href="#ma8cef483b3" x="92.746626" y="43.920056" style="fill: #3d74b6; fill-opacity: 0.5; stroke: #333446; stroke-opacity: 0.5"/>
     <use xlink:href="#ma8cef483b3" x="122.934447" y="38.443405" style="fill: #3d74b6; fill-opacity: 0.5; stroke: #333446; stroke-opacity: 0.5"/>
     <use xlink:href="#ma8cef483b3" x="150.866743" y="20.798224" style="fill: #3d74b6; fill-opacity: 0.5; stroke: #333446; stroke-opacity: 0.5"/>
     <use xlink:href="#ma8cef483b3" x="43.794091" y="60.246007" style="fill: #3d74b6; fill-opacity: 0.5; stroke: #333446; stroke-opacity: 0.5"/>
     <use xlink:href="#ma8cef483b3" x="157.648561" y="28.511825" style="fill: #3d74b6; fill-opacity: 0.5; stroke: #333446; stroke-opacity: 0.5"/>
     <use xlink:href="#ma8cef483b3" x="87.660806" y="42.584715" style="fill: #3d74b6; fill-opacity: 0.5; stroke: #333446; stroke-opacity: 0.5"/>
     <use xlink:href="#ma8cef483b3" x="157.301571" y="26.375144" style="fill: #3d74b6; fill-opacity: 0.5; stroke: #333446; stroke-opacity: 0.5"/>
     <use xlink:href="#ma8cef483b3" x="114.264063" y="41.438758" style="fill: #3d74b6; fill-opacity: 0.5; stroke: #333446; stroke-opacity: 0.5"/>
     <use xlink:href="#ma8cef483b3" x="140.400164" y="27.196339" style="fill: #3d74b6; fill-opacity: 0.5; stroke: #333446; stroke-opacity: 0.5"/>
     <use xlink:href="#ma8cef483b3" x="110.765182" y="36.98961" style="fill: #3d74b6; fill-opacity: 0.5; stroke: #333446; stroke-opacity: 0.5"/>
     <use xlink:href="#ma8cef483b3" x="116.988119" y="38.229136" style="fill: #3d74b6; fill-opacity: 0.5; stroke: #333446; stroke-opacity: 0.5"/>
     <use xlink:href="#ma8cef483b3" x="77.048689" y="44.954052" style="fill: #3d74b6; fill-opacity: 0.5; stroke: #333446; stroke-opacity: 0.5"/>
     <use xlink:href="#ma8cef483b3" x="112.178727" y="38.024071" style="fill: #3d74b6; fill-opacity: 0.5; stroke: #333446; stroke-opacity: 0.5"/>
     <use xlink:href="#ma8cef483b3" x="131.208374" y="27.803665" style="fill: #3d74b6; fill-opacity: 0.5; stroke: #333446; stroke-opacity: 0.5"/>
     <use xlink:href="#ma8cef483b3" x="143.836475" y="27.254117" style="fill: #3d74b6; fill-opacity: 0.5; stroke: #333446; stroke-opacity: 0.5"/>
     <use xlink:href="#ma8cef483b3" x="131.798478" y="27.79601" style="fill: #3d74b6; fill-opacity: 0.5; stroke: #333446; stroke-opacity: 0.5"/>
     <use xlink:href="#ma8cef483b3" x="125.148714" y="34.124104" style="fill: #3d74b6; fill-opacity: 0.5; stroke: #333446; stroke-opacity: 0.5"/>
     <use xlink:href="#ma8cef483b3" x="144.555455" y="32.143202" style="fill: #3d74b6; fill-opacity: 0.5; stroke: #333446; stroke-opacity: 0.5"/>
     <use xlink:href="#ma8cef483b3" x="81.375526" y="40.543683" style="fill: #3d74b6; fill-opacity: 0.5; stroke: #333446; stroke-opacity: 0.5"/>
     <use xlink:href="#ma8cef483b3" x="121.968898" y="37.037682" style="fill: #3d74b6; fill-opacity: 0.5; stroke: #333446; stroke-opacity: 0.5"/>
     <use xlink:href="#ma8cef483b3" x="96.324297" y="43.835377" style="fill: #3d74b6; fill-opacity: 0.5; stroke: #333446; stroke-opacity: 0.5"/>
     <use xlink:href="#ma8cef483b3" x="88.304786" y="47.77042" style="fill: #3d74b6; fill-opacity: 0.5; stroke: #333446; stroke-opacity: 0.5"/>
     <use xlink:href="#ma8cef483b3" x="91.652539" y="45.274693" style="fill: #3d74b6; fill-opacity: 0.5; stroke: #333446; stroke-opacity: 0.5"/>
     <use xlink:href="#ma8cef483b3" x="90.564347" y="44.283877" style="fill: #3d74b6; fill-opacity: 0.5; stroke: #333446; stroke-opacity: 0.5"/>
     <use xlink:href="#ma8cef483b3" x="80.757829" y="47.397909" style="fill: #3d74b6; fill-opacity: 0.5; stroke: #333446; stroke-opacity: 0.5"/>
    </g>
   </g>
   <g id="matplotlib.axis_1">
    <g id="xtick_1">
     <g id="line2d_1">
      <defs>
       <path id="m5a385a1d7a" d="M 0 0 
L 0 6 
" style="stroke: #000000; stroke-width: 0.5"/>
      </defs>
      <g>
       <use xlink:href="#m5a385a1d7a" x="43.74721" y="254.02" style="stroke: #000000; stroke-width: 0.5"/>
      </g>
     </g>
     <g id="text_1">
      <!-- 0.0 -->
      <g transform="translate(35.795648 271.118437) scale(0.1 -0.1)">
       <defs>
        <path id="DejaVuSerif-30" d="M 2034 219 
Q 2513 219 2750 744 
Q 2988 1269 2988 2328 
Q 2988 3391 2750 3916 
Q 2513 4441 2034 4441 
Q 1556 4441 1318 3916 
Q 1081 3391 1081 2328 
Q 1081 1269 1318 744 
Q 1556 219 2034 219 
z
M 2034 -91 
Q 1275 -91 848 546 
Q 422 1184 422 2328 
Q 422 3475 848 4112 
Q 1275 4750 2034 4750 
Q 2797 4750 3222 4112 
Q 3647 3475 3647 2328 
Q 3647 1184 3222 546 
Q 2797 -91 2034 -91 
z
" transform="scale(0.015625)"/>
        <path id="DejaVuSerif-2e" d="M 603 325 
Q 603 500 722 622 
Q 841 744 1019 744 
Q 1191 744 1312 622 
Q 1434 500 1434 325 
Q 1434 153 1312 31 
Q 1191 -91 1019 -91 
Q 841 -91 722 29 
Q 603 150 603 325 
z
" transform="scale(0.015625)"/>
       </defs>
       <use xlink:href="#DejaVuSerif-30"/>
       <use xlink:href="#DejaVuSerif-2e" x="63.623047"/>
       <use xlink:href="#DejaVuSerif-30" x="95.410156"/>
      </g>
     </g>
    </g>
    <g id="xtick_2">
     <g id="line2d_2">
      <g>
       <use xlink:href="#m5a385a1d7a" x="102.052961" y="254.02" style="stroke: #000000; stroke-width: 0.5"/>
      </g>
     </g>
     <g id="text_2">
      <!-- 0.2 -->
      <g transform="translate(94.101398 271.118437) scale(0.1 -0.1)">
       <defs>
        <path id="DejaVuSerif-32" d="M 819 3553 
L 469 3553 
L 469 4384 
Q 803 4563 1142 4656 
Q 1481 4750 1806 4750 
Q 2534 4750 2956 4397 
Q 3378 4044 3378 3438 
Q 3378 2753 2422 1800 
Q 2347 1728 2309 1691 
L 1131 513 
L 3078 513 
L 3078 1088 
L 3444 1088 
L 3444 0 
L 434 0 
L 434 341 
L 1850 1753 
Q 2319 2222 2519 2614 
Q 2719 3006 2719 3438 
Q 2719 3909 2473 4175 
Q 2228 4441 1797 4441 
Q 1350 4441 1106 4219 
Q 863 3997 819 3553 
z
" transform="scale(0.015625)"/>
       </defs>
       <use xlink:href="#DejaVuSerif-30"/>
       <use xlink:href="#DejaVuSerif-2e" x="63.623047"/>
       <use xlink:href="#DejaVuSerif-32" x="95.410156"/>
      </g>
     </g>
    </g>
    <g id="xtick_3">
     <g id="line2d_3">
      <g>
       <use xlink:href="#m5a385a1d7a" x="160.358712" y="254.02" style="stroke: #000000; stroke-width: 0.5"/>
      </g>
     </g>
     <g id="text_3">
      <!-- 0.4 -->
      <g transform="translate(152.407149 271.118437) scale(0.1 -0.1)">
       <defs>
        <path id="DejaVuSerif-34" d="M 2234 1581 
L 2234 4063 
L 641 1581 
L 2234 1581 
z
M 3609 0 
L 1484 0 
L 1484 331 
L 2234 331 
L 2234 1247 
L 197 1247 
L 197 1588 
L 2241 4750 
L 2859 4750 
L 2859 1581 
L 3750 1581 
L 3750 1247 
L 2859 1247 
L 2859 331 
L 3609 331 
L 3609 0 
z
" transform="scale(0.015625)"/>
       </defs>
       <use xlink:href="#DejaVuSerif-30"/>
       <use xlink:href="#DejaVuSerif-2e" x="63.623047"/>
       <use xlink:href="#DejaVuSerif-34" x="95.410156"/>
      </g>
     </g>
    </g>
    <g id="xtick_4">
     <g id="line2d_4">
      <g>
       <use xlink:href="#m5a385a1d7a" x="218.664462" y="254.02" style="stroke: #000000; stroke-width: 0.5"/>
      </g>
     </g>
     <g id="text_4">
      <!-- 0.6 -->
      <g transform="translate(210.7129 271.118437) scale(0.1 -0.1)">
       <defs>
        <path id="DejaVuSerif-36" d="M 2094 219 
Q 2534 219 2771 542 
Q 3009 866 3009 1472 
Q 3009 2078 2771 2401 
Q 2534 2725 2094 2725 
Q 1647 2725 1412 2412 
Q 1178 2100 1178 1509 
Q 1178 888 1415 553 
Q 1653 219 2094 219 
z
M 1075 2569 
Q 1288 2803 1556 2918 
Q 1825 3034 2163 3034 
Q 2859 3034 3264 2615 
Q 3669 2197 3669 1472 
Q 3669 763 3233 336 
Q 2797 -91 2069 -91 
Q 1278 -91 853 498 
Q 428 1088 428 2181 
Q 428 3406 931 4078 
Q 1434 4750 2350 4750 
Q 2597 4750 2869 4703 
Q 3141 4656 3425 4563 
L 3425 3794 
L 3072 3794 
Q 3034 4109 2831 4275 
Q 2628 4441 2284 4441 
Q 1678 4441 1381 3981 
Q 1084 3522 1075 2569 
z
" transform="scale(0.015625)"/>
       </defs>
       <use xlink:href="#DejaVuSerif-30"/>
       <use xlink:href="#DejaVuSerif-2e" x="63.623047"/>
       <use xlink:href="#DejaVuSerif-36" x="95.410156"/>
      </g>
     </g>
    </g>
    <g id="xtick_5">
     <g id="line2d_5">
      <g>
       <use xlink:href="#m5a385a1d7a" x="276.970213" y="254.02" style="stroke: #000000; stroke-width: 0.5"/>
      </g>
     </g>
     <g id="text_5">
      <!-- 0.8 -->
      <g transform="translate(269.018651 271.118437) scale(0.1 -0.1)">
       <defs>
        <path id="DejaVuSerif-38" d="M 2981 1275 
Q 2981 1775 2732 2051 
Q 2484 2328 2034 2328 
Q 1584 2328 1336 2051 
Q 1088 1775 1088 1275 
Q 1088 772 1336 495 
Q 1584 219 2034 219 
Q 2484 219 2732 495 
Q 2981 772 2981 1275 
z
M 2853 3541 
Q 2853 3966 2637 4203 
Q 2422 4441 2034 4441 
Q 1650 4441 1433 4203 
Q 1216 3966 1216 3541 
Q 1216 3113 1433 2875 
Q 1650 2638 2034 2638 
Q 2422 2638 2637 2875 
Q 2853 3113 2853 3541 
z
M 2516 2484 
Q 3047 2413 3344 2092 
Q 3641 1772 3641 1275 
Q 3641 619 3225 264 
Q 2809 -91 2034 -91 
Q 1263 -91 845 264 
Q 428 619 428 1275 
Q 428 1772 725 2092 
Q 1022 2413 1556 2484 
Q 1084 2569 832 2842 
Q 581 3116 581 3541 
Q 581 4103 968 4426 
Q 1356 4750 2034 4750 
Q 2713 4750 3100 4426 
Q 3488 4103 3488 3541 
Q 3488 3116 3236 2842 
Q 2984 2569 2516 2484 
z
" transform="scale(0.015625)"/>
       </defs>
       <use xlink:href="#DejaVuSerif-30"/>
       <use xlink:href="#DejaVuSerif-2e" x="63.623047"/>
       <use xlink:href="#DejaVuSerif-38" x="95.410156"/>
      </g>
     </g>
    </g>
    <g id="xtick_6">
     <g id="line2d_6">
      <g>
       <use xlink:href="#m5a385a1d7a" x="335.275964" y="254.02" style="stroke: #000000; stroke-width: 0.5"/>
      </g>
     </g>
     <g id="text_6">
      <!-- 1.0 -->
      <g transform="translate(327.324401 271.118437) scale(0.1 -0.1)">
       <defs>
        <path id="DejaVuSerif-31" d="M 909 0 
L 909 331 
L 1722 331 
L 1722 4213 
L 781 3603 
L 781 4013 
L 1919 4750 
L 2350 4750 
L 2350 331 
L 3163 331 
L 3163 0 
L 909 0 
z
" transform="scale(0.015625)"/>
       </defs>
       <use xlink:href="#DejaVuSerif-31"/>
       <use xlink:href="#DejaVuSerif-2e" x="63.623047"/>
       <use xlink:href="#DejaVuSerif-30" x="95.410156"/>
      </g>
     </g>
    </g>
   </g>
   <g id="matplotlib.axis_2">
    <g id="ytick_1">
     <g id="line2d_7">
      <defs>
       <path id="me171013325" d="M 0 0 
L -6 0 
" style="stroke: #000000; stroke-width: 0.5"/>
      </defs>
      <g>
       <use xlink:href="#me171013325" x="29.425" y="237.23886" style="stroke: #000000; stroke-width: 0.5"/>
      </g>
     </g>
     <g id="text_7">
      <!-- 4 -->
      <g transform="translate(13.5625 241.038078) scale(0.1 -0.1)">
       <use xlink:href="#DejaVuSerif-34"/>
      </g>
     </g>
    </g>
    <g id="ytick_2">
     <g id="line2d_8">
      <g>
       <use xlink:href="#me171013325" x="29.425" y="207.581048" style="stroke: #000000; stroke-width: 0.5"/>
      </g>
     </g>
     <g id="text_8">
      <!-- 5 -->
      <g transform="translate(13.5625 211.380267) scale(0.1 -0.1)">
       <defs>
        <path id="DejaVuSerif-35" d="M 3219 4666 
L 3219 4153 
L 1081 4153 
L 1081 2816 
Q 1244 2928 1461 2984 
Q 1678 3041 1947 3041 
Q 2703 3041 3140 2622 
Q 3578 2203 3578 1478 
Q 3578 738 3136 323 
Q 2694 -91 1894 -91 
Q 1572 -91 1234 -12 
Q 897 66 544 225 
L 544 1131 
L 897 1131 
Q 925 688 1179 453 
Q 1434 219 1894 219 
Q 2388 219 2653 544 
Q 2919 869 2919 1478 
Q 2919 2084 2655 2407 
Q 2391 2731 1894 2731 
Q 1613 2731 1398 2631 
Q 1184 2531 1019 2322 
L 750 2322 
L 750 4666 
L 3219 4666 
z
" transform="scale(0.015625)"/>
       </defs>
       <use xlink:href="#DejaVuSerif-35"/>
      </g>
     </g>
    </g>
    <g id="ytick_3">
     <g id="line2d_9">
      <g>
       <use xlink:href="#me171013325" x="29.425" y="177.923236" style="stroke: #000000; stroke-width: 0.5"/>
      </g>
     </g>
     <g id="text_9">
      <!-- 6 -->
      <g transform="translate(13.5625 181.722455) scale(0.1 -0.1)">
       <use xlink:href="#DejaVuSerif-36"/>
      </g>
     </g>
    </g>
    <g id="ytick_4">
     <g id="line2d_10">
      <g>
       <use xlink:href="#me171013325" x="29.425" y="148.265424" style="stroke: #000000; stroke-width: 0.5"/>
      </g>
     </g>
     <g id="text_10">
      <!-- 7 -->
      <g transform="translate(13.5625 152.064643) scale(0.1 -0.1)">
       <defs>
        <path id="DejaVuSerif-37" d="M 3609 4347 
L 1784 0 
L 1319 0 
L 3059 4153 
L 903 4153 
L 903 3578 
L 538 3578 
L 538 4666 
L 3609 4666 
L 3609 4347 
z
" transform="scale(0.015625)"/>
       </defs>
       <use xlink:href="#DejaVuSerif-37"/>
      </g>
     </g>
    </g>
    <g id="ytick_5">
     <g id="line2d_11">
      <g>
       <use xlink:href="#me171013325" x="29.425" y="118.607612" style="stroke: #000000; stroke-width: 0.5"/>
      </g>
     </g>
     <g id="text_11">
      <!-- 8 -->
      <g transform="translate(13.5625 122.406831) scale(0.1 -0.1)">
       <use xlink:href="#DejaVuSerif-38"/>
      </g>
     </g>
    </g>
    <g id="ytick_6">
     <g id="line2d_12">
      <g>
       <use xlink:href="#me171013325" x="29.425" y="88.949801" style="stroke: #000000; stroke-width: 0.5"/>
      </g>
     </g>
     <g id="text_12">
      <!-- 9 -->
      <g transform="translate(13.5625 92.749019) scale(0.1 -0.1)">
       <defs>
        <path id="DejaVuSerif-39" d="M 2994 2091 
Q 2784 1856 2512 1740 
Q 2241 1625 1900 1625 
Q 1206 1625 804 2044 
Q 403 2463 403 3188 
Q 403 3897 839 4323 
Q 1275 4750 2003 4750 
Q 2794 4750 3217 4161 
Q 3641 3572 3641 2478 
Q 3641 1253 3137 581 
Q 2634 -91 1722 -91 
Q 1475 -91 1203 -44 
Q 931 3 647 97 
L 647 872 
L 997 872 
Q 1038 556 1241 387 
Q 1444 219 1784 219 
Q 2391 219 2687 676 
Q 2984 1134 2994 2091 
z
M 1978 4441 
Q 1534 4441 1298 4117 
Q 1063 3794 1063 3188 
Q 1063 2581 1298 2256 
Q 1534 1931 1978 1931 
Q 2422 1931 2658 2245 
Q 2894 2559 2894 3150 
Q 2894 3772 2656 4106 
Q 2419 4441 1978 4441 
z
" transform="scale(0.015625)"/>
       </defs>
       <use xlink:href="#DejaVuSerif-39"/>
      </g>
     </g>
    </g>
    <g id="ytick_7">
     <g id="line2d_13">
      <g>
       <use xlink:href="#me171013325" x="29.425" y="59.291989" style="stroke: #000000; stroke-width: 0.5"/>
      </g>
     </g>
     <g id="text_13">
      <!-- 10 -->
      <g transform="translate(7.2 63.091208) scale(0.1 -0.1)">
       <use xlink:href="#DejaVuSerif-31"/>
       <use xlink:href="#DejaVuSerif-30" x="63.623047"/>
      </g>
     </g>
    </g>
    <g id="ytick_8">
     <g id="line2d_14">
      <g>
       <use xlink:href="#me171013325" x="29.425" y="29.634177" style="stroke: #000000; stroke-width: 0.5"/>
      </g>
     </g>
     <g id="text_14">
      <!-- 11 -->
      <g transform="translate(7.2 33.433396) scale(0.1 -0.1)">
       <use xlink:href="#DejaVuSerif-31"/>
       <use xlink:href="#DejaVuSerif-31" x="63.623047"/>
      </g>
     </g>
    </g>
   </g>
   <g id="line2d_15">
    <path d="M 43.794091 18.419091 
L 46.696938 20.621861 
L 49.599784 22.824632 
L 52.502631 25.027403 
L 55.405478 27.230173 
L 58.308324 29.432944 
L 61.211171 31.635714 
L 64.114017 33.838485 
L 67.016864 36.041256 
L 69.919711 38.244026 
L 72.822557 40.446797 
L 75.725404 42.649567 
L 78.628251 44.852338 
L 81.531097 47.055108 
L 84.433944 49.257879 
L 87.336791 51.46065 
L 90.239637 53.66342 
L 93.142484 55.866191 
L 96.045331 58.068961 
L 98.948177 60.271732 
L 101.851024 62.474503 
L 104.753871 64.677273 
L 107.656717 66.880044 
L 110.559564 69.082814 
L 113.46241 71.285585 
L 116.365257 73.488355 
L 119.268104 75.691126 
L 122.17095 77.893897 
L 125.073797 80.096667 
L 127.976644 82.299438 
L 130.87949 84.502208 
L 133.782337 86.704979 
L 136.685184 88.90775 
L 139.58803 91.11052 
L 142.490877 93.313291 
L 145.393724 95.516061 
L 148.29657 97.718832 
L 151.199417 99.921602 
L 154.102264 102.124373 
L 157.00511 104.327144 
L 159.907957 106.529914 
L 162.810803 108.732685 
L 165.71365 110.935455 
L 168.616497 113.138226 
L 171.519343 115.340996 
L 174.42219 117.543767 
L 177.325037 119.746538 
L 180.227883 121.949308 
L 183.13073 124.152079 
L 186.033577 126.354849 
L 188.936423 128.55762 
L 191.83927 130.760391 
L 194.742117 132.963161 
L 197.644963 135.165932 
L 200.54781 137.368702 
L 203.450657 139.571473 
L 206.353503 141.774243 
L 209.25635 143.977014 
L 212.159197 146.179785 
L 215.062043 148.382555 
L 217.96489 150.585326 
L 220.867736 152.788096 
L 223.770583 154.990867 
L 226.67343 157.193638 
L 229.576276 159.396408 
L 232.479123 161.599179 
L 235.38197 163.801949 
L 238.284816 166.00472 
L 241.187663 168.20749 
L 244.09051 170.410261 
L 246.993356 172.613032 
L 249.896203 174.815802 
L 252.79905 177.018573 
L 255.701896 179.221343 
L 258.604743 181.424114 
L 261.50759 183.626885 
L 264.410436 185.829655 
L 267.313283 188.032426 
L 270.216129 190.235196 
L 273.118976 192.437967 
L 276.021823 194.640737 
L 278.924669 196.843508 
L 281.827516 199.046279 
L 284.730363 201.249049 
L 287.633209 203.45182 
L 290.536056 205.65459 
L 293.438903 207.857361 
L 296.341749 210.060131 
L 299.244596 212.262902 
L 302.147443 214.465673 
L 305.050289 216.668443 
L 307.953136 218.871214 
L 310.855983 221.073984 
L 313.758829 223.276755 
L 316.661676 225.479526 
L 319.564522 227.682296 
L 322.467369 229.885067 
L 325.370216 232.087837 
L 328.273062 234.290608 
L 331.175909 236.493378 
" clip-path="url(#p66f2da9b50)" style="fill: none; stroke-dasharray: 5.55,2.4; stroke-dashoffset: 0; stroke: #af3e3e; stroke-opacity: 0.7; stroke-width: 1.5"/>
   </g>
   <g id="patch_3">
    <path d="M 29.425 254.02 
L 29.425 7.2 
" style="fill: none; stroke: #000000; stroke-width: 0.5; stroke-linejoin: miter; stroke-linecap: square"/>
   </g>
   <g id="patch_4">
    <path d="M 29.425 254.02 
L 345.545 254.02 
" style="fill: none; stroke: #000000; stroke-width: 0.5; stroke-linejoin: miter; stroke-linecap: square"/>
   </g>
   <g id="legend_1">
    <g id="patch_5">
     <path d="M 282.045 29.878125 
L 338.545 29.878125 
Q 340.545 29.878125 340.545 27.878125 
L 340.545 14.2 
Q 340.545 12.2 338.545 12.2 
L 282.045 12.2 
Q 280.045 12.2 280.045 14.2 
L 280.045 27.878125 
Q 280.045 29.878125 282.045 29.878125 
z
" style="fill: #ffffff; opacity: 0.8; stroke: #cccccc; stroke-linejoin: miter"/>
    </g>
    <g id="PathCollection_2">
     <g>
      <use xlink:href="#ma8cef483b3" x="294.045" y="21.173437" style="fill: #3d74b6; fill-opacity: 0.5; stroke: #333446; stroke-opacity: 0.5"/>
     </g>
    </g>
    <g id="text_15">
     <!-- $k=1$ -->
     <g transform="translate(312.045 23.798437) scale(0.1 -0.1)">
      <defs>
       <path id="DejaVuSans-Oblique-6b" d="M 1172 4863 
L 1747 4863 
L 1197 2028 
L 3169 3500 
L 3916 3500 
L 1716 1825 
L 3322 0 
L 2625 0 
L 1131 1709 
L 800 0 
L 225 0 
L 1172 4863 
z
" transform="scale(0.015625)"/>
       <path id="DejaVuSans-3d" d="M 678 2906 
L 4684 2906 
L 4684 2381 
L 678 2381 
L 678 2906 
z
M 678 1631 
L 4684 1631 
L 4684 1100 
L 678 1100 
L 678 1631 
z
" transform="scale(0.015625)"/>
       <path id="DejaVuSans-31" d="M 794 531 
L 1825 531 
L 1825 4091 
L 703 3866 
L 703 4441 
L 1819 4666 
L 2450 4666 
L 2450 531 
L 3481 531 
L 3481 0 
L 794 0 
L 794 531 
z
" transform="scale(0.015625)"/>
      </defs>
      <use xlink:href="#DejaVuSans-Oblique-6b" transform="translate(0 0.015625)"/>
      <use xlink:href="#DejaVuSans-3d" transform="translate(77.392578 0.015625)"/>
      <use xlink:href="#DejaVuSans-31" transform="translate(180.664062 0.015625)"/>
     </g>
    </g>
   </g>
  </g>
 </g>
 <defs>
  <clipPath id="p66f2da9b50">
   <rect x="29.425" y="7.2" width="316.12" height="246.82"/>
  </clipPath>
 </defs>
</svg>
