<?xml version="1.0" encoding="utf-8" standalone="no"?>
<!DOCTYPE svg PUBLIC "-//W3C//DTD SVG 1.1//EN"
  "http://www.w3.org/Graphics/SVG/1.1/DTD/svg11.dtd">
<svg xmlns:xlink="http://www.w3.org/1999/xlink" width="352.7725pt" height="280.398125pt" viewBox="0 0 352.7725 280.398125" xmlns="http://www.w3.org/2000/svg" version="1.1">
 <metadata>
  <rdf:RDF xmlns:dc="http://purl.org/dc/elements/1.1/" xmlns:cc="http://creativecommons.org/ns#" xmlns:rdf="http://www.w3.org/1999/02/22-rdf-syntax-ns#">
   <cc:Work>
    <dc:type rdf:resource="http://purl.org/dc/dcmitype/StillImage"/>
    <dc:date>2025-08-02T19:06:30.449310</dc:date>
    <dc:format>image/svg+xml</dc:format>
    <dc:creator>
     <cc:Agent>
      <dc:title>Matplotlib v3.8.0, https://matplotlib.org/</dc:title>
     </cc:Agent>
    </dc:creator>
   </cc:Work>
  </rdf:RDF>
 </metadata>
 <defs>
  <style type="text/css">*{stroke-linejoin: round; stroke-linecap: butt}</style>
 </defs>
 <g id="figure_1">
  <g id="patch_1">
   <path d="M 0 280.398125 
L 352.7725 280.398125 
L 352.7725 0 
L 0 0 
z
" style="fill: #ffffff"/>
  </g>
  <g id="axes_1">
   <g id="patch_2">
    <path d="M 23.0625 254.02 
L 345.5725 254.02 
L 345.5725 7.2 
L 23.0625 7.2 
z
" style="fill: #ffffff"/>
   </g>
   <g id="PathCollection_1">
    <defs>
     <path id="m776e7ae7b8" d="M 0 3.162278 
C 0.838646 3.162278 1.643056 2.82908 2.236068 2.236068 
C 2.82908 1.643056 3.162278 0.838646 3.162278 0 
C 3.162278 -0.838646 2.82908 -1.643056 2.236068 -2.236068 
C 1.643056 -2.82908 0.838646 -3.162278 0 -3.162278 
C -0.838646 -3.162278 -1.643056 -2.82908 -2.236068 -2.236068 
C -2.82908 -1.643056 -3.162278 -0.838646 -3.162278 0 
C -3.162278 0.838646 -2.82908 1.643056 -2.236068 2.236068 
C -1.643056 2.82908 -0.838646 3.162278 0 3.162278 
z
" style="stroke: #333446; stroke-opacity: 0.7"/>
    </defs>
    <g clip-path="url(#p50271b0687)">
     <use xlink:href="#m776e7ae7b8" x="303.222578" y="44.608169" style="fill: #eaefef; fill-opacity: 0.7; stroke: #333446; stroke-opacity: 0.7"/>
     <use xlink:href="#m776e7ae7b8" x="77.406976" y="172.568618" style="fill: #eaefef; fill-opacity: 0.7; stroke: #333446; stroke-opacity: 0.7"/>
     <use xlink:href="#m776e7ae7b8" x="77.938148" y="170.415021" style="fill: #eaefef; fill-opacity: 0.7; stroke: #333446; stroke-opacity: 0.7"/>
     <use xlink:href="#m776e7ae7b8" x="274.916106" y="52.247955" style="fill: #eaefef; fill-opacity: 0.7; stroke: #333446; stroke-opacity: 0.7"/>
     <use xlink:href="#m776e7ae7b8" x="154.121448" y="135.528847" style="fill: #eaefef; fill-opacity: 0.7; stroke: #333446; stroke-opacity: 0.7"/>
     <use xlink:href="#m776e7ae7b8" x="85.626588" y="169.119718" style="fill: #eaefef; fill-opacity: 0.7; stroke: #333446; stroke-opacity: 0.7"/>
     <use xlink:href="#m776e7ae7b8" x="310.329861" y="32.336948" style="fill: #eaefef; fill-opacity: 0.7; stroke: #333446; stroke-opacity: 0.7"/>
     <use xlink:href="#m776e7ae7b8" x="139.406372" y="142.038112" style="fill: #eaefef; fill-opacity: 0.7; stroke: #333446; stroke-opacity: 0.7"/>
     <use xlink:href="#m776e7ae7b8" x="258.235066" y="70.047319" style="fill: #eaefef; fill-opacity: 0.7; stroke: #333446; stroke-opacity: 0.7"/>
     <use xlink:href="#m776e7ae7b8" x="250.919207" y="66.386243" style="fill: #eaefef; fill-opacity: 0.7; stroke: #333446; stroke-opacity: 0.7"/>
     <use xlink:href="#m776e7ae7b8" x="297.297798" y="36.027485" style="fill: #eaefef; fill-opacity: 0.7; stroke: #333446; stroke-opacity: 0.7"/>
     <use xlink:href="#m776e7ae7b8" x="220.750861" y="90.85641" style="fill: #eaefef; fill-opacity: 0.7; stroke: #333446; stroke-opacity: 0.7"/>
     <use xlink:href="#m776e7ae7b8" x="258.273491" y="61.889909" style="fill: #eaefef; fill-opacity: 0.7; stroke: #333446; stroke-opacity: 0.7"/>
     <use xlink:href="#m776e7ae7b8" x="139.740257" y="144.338373" style="fill: #eaefef; fill-opacity: 0.7; stroke: #333446; stroke-opacity: 0.7"/>
     <use xlink:href="#m776e7ae7b8" x="116.45768" y="149.972006" style="fill: #eaefef; fill-opacity: 0.7; stroke: #333446; stroke-opacity: 0.7"/>
     <use xlink:href="#m776e7ae7b8" x="301.006752" y="37.156588" style="fill: #eaefef; fill-opacity: 0.7; stroke: #333446; stroke-opacity: 0.7"/>
     <use xlink:href="#m776e7ae7b8" x="163.088404" y="125.171976" style="fill: #eaefef; fill-opacity: 0.7; stroke: #333446; stroke-opacity: 0.7"/>
     <use xlink:href="#m776e7ae7b8" x="321.336165" y="25.031656" style="fill: #eaefef; fill-opacity: 0.7; stroke: #333446; stroke-opacity: 0.7"/>
     <use xlink:href="#m776e7ae7b8" x="232.4759" y="76.532371" style="fill: #eaefef; fill-opacity: 0.7; stroke: #333446; stroke-opacity: 0.7"/>
     <use xlink:href="#m776e7ae7b8" x="220.16814" y="84.840575" style="fill: #eaefef; fill-opacity: 0.7; stroke: #333446; stroke-opacity: 0.7"/>
     <use xlink:href="#m776e7ae7b8" x="70.705945" y="180.075609" style="fill: #eaefef; fill-opacity: 0.7; stroke: #333446; stroke-opacity: 0.7"/>
     <use xlink:href="#m776e7ae7b8" x="316.810346" y="26.77192" style="fill: #eaefef; fill-opacity: 0.7; stroke: #333446; stroke-opacity: 0.7"/>
     <use xlink:href="#m776e7ae7b8" x="169.521795" y="119.888579" style="fill: #eaefef; fill-opacity: 0.7; stroke: #333446; stroke-opacity: 0.7"/>
     <use xlink:href="#m776e7ae7b8" x="207.400355" y="93.501724" style="fill: #eaefef; fill-opacity: 0.7; stroke: #333446; stroke-opacity: 0.7"/>
     <use xlink:href="#m776e7ae7b8" x="157.205323" y="126.93327" style="fill: #eaefef; fill-opacity: 0.7; stroke: #333446; stroke-opacity: 0.7"/>
     <use xlink:href="#m776e7ae7b8" x="106.757621" y="156.640412" style="fill: #eaefef; fill-opacity: 0.7; stroke: #333446; stroke-opacity: 0.7"/>
     <use xlink:href="#m776e7ae7b8" x="303.215976" y="37.421178" style="fill: #eaefef; fill-opacity: 0.7; stroke: #333446; stroke-opacity: 0.7"/>
     <use xlink:href="#m776e7ae7b8" x="206.011685" y="108.561827" style="fill: #eaefef; fill-opacity: 0.7; stroke: #333446; stroke-opacity: 0.7"/>
     <use xlink:href="#m776e7ae7b8" x="37.722045" y="198.499511" style="fill: #eaefef; fill-opacity: 0.7; stroke: #333446; stroke-opacity: 0.7"/>
     <use xlink:href="#m776e7ae7b8" x="218.826442" y="79.012187" style="fill: #eaefef; fill-opacity: 0.7; stroke: #333446; stroke-opacity: 0.7"/>
     <use xlink:href="#m776e7ae7b8" x="133.179355" y="141.106866" style="fill: #eaefef; fill-opacity: 0.7; stroke: #333446; stroke-opacity: 0.7"/>
     <use xlink:href="#m776e7ae7b8" x="192.266467" y="106.37908" style="fill: #eaefef; fill-opacity: 0.7; stroke: #333446; stroke-opacity: 0.7"/>
     <use xlink:href="#m776e7ae7b8" x="298.074963" y="39.854791" style="fill: #eaefef; fill-opacity: 0.7; stroke: #333446; stroke-opacity: 0.7"/>
     <use xlink:href="#m776e7ae7b8" x="142.208373" y="138.019345" style="fill: #eaefef; fill-opacity: 0.7; stroke: #333446; stroke-opacity: 0.7"/>
     <use xlink:href="#m776e7ae7b8" x="304.735992" y="34.941448" style="fill: #eaefef; fill-opacity: 0.7; stroke: #333446; stroke-opacity: 0.7"/>
     <use xlink:href="#m776e7ae7b8" x="220.658848" y="93.230309" style="fill: #eaefef; fill-opacity: 0.7; stroke: #333446; stroke-opacity: 0.7"/>
     <use xlink:href="#m776e7ae7b8" x="41.540318" y="203.321359" style="fill: #eaefef; fill-opacity: 0.7; stroke: #333446; stroke-opacity: 0.7"/>
     <use xlink:href="#m776e7ae7b8" x="310.898479" y="35.770049" style="fill: #eaefef; fill-opacity: 0.7; stroke: #333446; stroke-opacity: 0.7"/>
     <use xlink:href="#m776e7ae7b8" x="240.570484" y="74.31105" style="fill: #eaefef; fill-opacity: 0.7; stroke: #333446; stroke-opacity: 0.7"/>
     <use xlink:href="#m776e7ae7b8" x="330.912955" y="19.900698" style="fill: #eaefef; fill-opacity: 0.7; stroke: #333446; stroke-opacity: 0.7"/>
     <use xlink:href="#m776e7ae7b8" x="87.686338" y="169.531719" style="fill: #eaefef; fill-opacity: 0.7; stroke: #333446; stroke-opacity: 0.7"/>
     <use xlink:href="#m776e7ae7b8" x="77.307044" y="179.186288" style="fill: #eaefef; fill-opacity: 0.7; stroke: #333446; stroke-opacity: 0.7"/>
     <use xlink:href="#m776e7ae7b8" x="311.829609" y="25.968735" style="fill: #eaefef; fill-opacity: 0.7; stroke: #333446; stroke-opacity: 0.7"/>
     <use xlink:href="#m776e7ae7b8" x="242.316223" y="73.374518" style="fill: #eaefef; fill-opacity: 0.7; stroke: #333446; stroke-opacity: 0.7"/>
     <use xlink:href="#m776e7ae7b8" x="56.334394" y="181.416391" style="fill: #eaefef; fill-opacity: 0.7; stroke: #333446; stroke-opacity: 0.7"/>
     <use xlink:href="#m776e7ae7b8" x="259.606288" y="72.278558" style="fill: #eaefef; fill-opacity: 0.7; stroke: #333446; stroke-opacity: 0.7"/>
     <use xlink:href="#m776e7ae7b8" x="259.138439" y="66.768718" style="fill: #eaefef; fill-opacity: 0.7; stroke: #333446; stroke-opacity: 0.7"/>
     <use xlink:href="#m776e7ae7b8" x="309.007846" y="28.141533" style="fill: #eaefef; fill-opacity: 0.7; stroke: #333446; stroke-opacity: 0.7"/>
     <use xlink:href="#m776e7ae7b8" x="246.652117" y="59.88735" style="fill: #eaefef; fill-opacity: 0.7; stroke: #333446; stroke-opacity: 0.7"/>
     <use xlink:href="#m776e7ae7b8" x="73.514164" y="181.920479" style="fill: #eaefef; fill-opacity: 0.7; stroke: #333446; stroke-opacity: 0.7"/>
     <use xlink:href="#m776e7ae7b8" x="42.736986" y="199.961855" style="fill: #eaefef; fill-opacity: 0.7; stroke: #333446; stroke-opacity: 0.7"/>
     <use xlink:href="#m776e7ae7b8" x="44.603489" y="200.039669" style="fill: #eaefef; fill-opacity: 0.7; stroke: #333446; stroke-opacity: 0.7"/>
     <use xlink:href="#m776e7ae7b8" x="45.221299" y="192.413077" style="fill: #eaefef; fill-opacity: 0.7; stroke: #333446; stroke-opacity: 0.7"/>
     <use xlink:href="#m776e7ae7b8" x="109.465333" y="159.439519" style="fill: #eaefef; fill-opacity: 0.7; stroke: #333446; stroke-opacity: 0.7"/>
     <use xlink:href="#m776e7ae7b8" x="290.434786" y="40.877117" style="fill: #eaefef; fill-opacity: 0.7; stroke: #333446; stroke-opacity: 0.7"/>
     <use xlink:href="#m776e7ae7b8" x="195.737448" y="105.211706" style="fill: #eaefef; fill-opacity: 0.7; stroke: #333446; stroke-opacity: 0.7"/>
     <use xlink:href="#m776e7ae7b8" x="199.86234" y="107.038087" style="fill: #eaefef; fill-opacity: 0.7; stroke: #333446; stroke-opacity: 0.7"/>
     <use xlink:href="#m776e7ae7b8" x="285.128778" y="45.924392" style="fill: #eaefef; fill-opacity: 0.7; stroke: #333446; stroke-opacity: 0.7"/>
     <use xlink:href="#m776e7ae7b8" x="73.485375" y="178.445782" style="fill: #eaefef; fill-opacity: 0.7; stroke: #333446; stroke-opacity: 0.7"/>
     <use xlink:href="#m776e7ae7b8" x="119.186531" y="145.969157" style="fill: #eaefef; fill-opacity: 0.7; stroke: #333446; stroke-opacity: 0.7"/>
     <use xlink:href="#m776e7ae7b8" x="209.573125" y="95.518215" style="fill: #eaefef; fill-opacity: 0.7; stroke: #333446; stroke-opacity: 0.7"/>
     <use xlink:href="#m776e7ae7b8" x="322.738271" y="26.543361" style="fill: #eaefef; fill-opacity: 0.7; stroke: #333446; stroke-opacity: 0.7"/>
     <use xlink:href="#m776e7ae7b8" x="202.282346" y="96.98609" style="fill: #eaefef; fill-opacity: 0.7; stroke: #333446; stroke-opacity: 0.7"/>
     <use xlink:href="#m776e7ae7b8" x="42.373511" y="199.27541" style="fill: #eaefef; fill-opacity: 0.7; stroke: #333446; stroke-opacity: 0.7"/>
     <use xlink:href="#m776e7ae7b8" x="272.923487" y="53.770361" style="fill: #eaefef; fill-opacity: 0.7; stroke: #333446; stroke-opacity: 0.7"/>
     <use xlink:href="#m776e7ae7b8" x="105.562776" y="160.904248" style="fill: #eaefef; fill-opacity: 0.7; stroke: #333446; stroke-opacity: 0.7"/>
     <use xlink:href="#m776e7ae7b8" x="274.831758" y="48.480712" style="fill: #eaefef; fill-opacity: 0.7; stroke: #333446; stroke-opacity: 0.7"/>
     <use xlink:href="#m776e7ae7b8" x="151.227375" y="130.064799" style="fill: #eaefef; fill-opacity: 0.7; stroke: #333446; stroke-opacity: 0.7"/>
     <use xlink:href="#m776e7ae7b8" x="291.470778" y="34.534855" style="fill: #eaefef; fill-opacity: 0.7; stroke: #333446; stroke-opacity: 0.7"/>
     <use xlink:href="#m776e7ae7b8" x="257.14702" y="59.856658" style="fill: #eaefef; fill-opacity: 0.7; stroke: #333446; stroke-opacity: 0.7"/>
     <use xlink:href="#m776e7ae7b8" x="200.870132" y="97.42889" style="fill: #eaefef; fill-opacity: 0.7; stroke: #333446; stroke-opacity: 0.7"/>
     <use xlink:href="#m776e7ae7b8" x="77.106407" y="186.061946" style="fill: #eaefef; fill-opacity: 0.7; stroke: #333446; stroke-opacity: 0.7"/>
     <use xlink:href="#m776e7ae7b8" x="54.541117" y="189.926105" style="fill: #eaefef; fill-opacity: 0.7; stroke: #333446; stroke-opacity: 0.7"/>
     <use xlink:href="#m776e7ae7b8" x="72.651058" y="179.35682" style="fill: #eaefef; fill-opacity: 0.7; stroke: #333446; stroke-opacity: 0.7"/>
     <use xlink:href="#m776e7ae7b8" x="50.010869" y="191.812321" style="fill: #eaefef; fill-opacity: 0.7; stroke: #333446; stroke-opacity: 0.7"/>
     <use xlink:href="#m776e7ae7b8" x="68.56791" y="179.030743" style="fill: #eaefef; fill-opacity: 0.7; stroke: #333446; stroke-opacity: 0.7"/>
     <use xlink:href="#m776e7ae7b8" x="103.420881" y="163.77707" style="fill: #eaefef; fill-opacity: 0.7; stroke: #333446; stroke-opacity: 0.7"/>
     <use xlink:href="#m776e7ae7b8" x="247.083808" y="67.533267" style="fill: #eaefef; fill-opacity: 0.7; stroke: #333446; stroke-opacity: 0.7"/>
     <use xlink:href="#m776e7ae7b8" x="201.895169" y="102.457028" style="fill: #eaefef; fill-opacity: 0.7; stroke: #333446; stroke-opacity: 0.7"/>
     <use xlink:href="#m776e7ae7b8" x="40.577632" y="192.443737" style="fill: #eaefef; fill-opacity: 0.7; stroke: #333446; stroke-opacity: 0.7"/>
     <use xlink:href="#m776e7ae7b8" x="58.095719" y="196.671917" style="fill: #eaefef; fill-opacity: 0.7; stroke: #333446; stroke-opacity: 0.7"/>
     <use xlink:href="#m776e7ae7b8" x="322.054446" y="32.286115" style="fill: #eaefef; fill-opacity: 0.7; stroke: #333446; stroke-opacity: 0.7"/>
     <use xlink:href="#m776e7ae7b8" x="204.366841" y="105.955711" style="fill: #eaefef; fill-opacity: 0.7; stroke: #333446; stroke-opacity: 0.7"/>
     <use xlink:href="#m776e7ae7b8" x="96.81202" y="170.217716" style="fill: #eaefef; fill-opacity: 0.7; stroke: #333446; stroke-opacity: 0.7"/>
     <use xlink:href="#m776e7ae7b8" x="111.268101" y="162.167659" style="fill: #eaefef; fill-opacity: 0.7; stroke: #333446; stroke-opacity: 0.7"/>
     <use xlink:href="#m776e7ae7b8" x="256.175335" y="56.543279" style="fill: #eaefef; fill-opacity: 0.7; stroke: #333446; stroke-opacity: 0.7"/>
     <use xlink:href="#m776e7ae7b8" x="94.493578" y="169.058548" style="fill: #eaefef; fill-opacity: 0.7; stroke: #333446; stroke-opacity: 0.7"/>
     <use xlink:href="#m776e7ae7b8" x="208.275787" y="102.060702" style="fill: #eaefef; fill-opacity: 0.7; stroke: #333446; stroke-opacity: 0.7"/>
     <use xlink:href="#m776e7ae7b8" x="322.863349" y="18.419091" style="fill: #eaefef; fill-opacity: 0.7; stroke: #333446; stroke-opacity: 0.7"/>
     <use xlink:href="#m776e7ae7b8" x="286.543328" y="49.214377" style="fill: #eaefef; fill-opacity: 0.7; stroke: #333446; stroke-opacity: 0.7"/>
     <use xlink:href="#m776e7ae7b8" x="107.589261" y="165.033487" style="fill: #eaefef; fill-opacity: 0.7; stroke: #333446; stroke-opacity: 0.7"/>
     <use xlink:href="#m776e7ae7b8" x="182.45217" y="108.030872" style="fill: #eaefef; fill-opacity: 0.7; stroke: #333446; stroke-opacity: 0.7"/>
     <use xlink:href="#m776e7ae7b8" x="219.655142" y="85.75418" style="fill: #eaefef; fill-opacity: 0.7; stroke: #333446; stroke-opacity: 0.7"/>
     <use xlink:href="#m776e7ae7b8" x="281.281294" y="51.826967" style="fill: #eaefef; fill-opacity: 0.7; stroke: #333446; stroke-opacity: 0.7"/>
     <use xlink:href="#m776e7ae7b8" x="83.102048" y="168.18273" style="fill: #eaefef; fill-opacity: 0.7; stroke: #333446; stroke-opacity: 0.7"/>
     <use xlink:href="#m776e7ae7b8" x="42.352553" y="199.807262" style="fill: #eaefef; fill-opacity: 0.7; stroke: #333446; stroke-opacity: 0.7"/>
     <use xlink:href="#m776e7ae7b8" x="57.520177" y="183.33453" style="fill: #eaefef; fill-opacity: 0.7; stroke: #333446; stroke-opacity: 0.7"/>
     <use xlink:href="#m776e7ae7b8" x="180.263201" y="111.143975" style="fill: #eaefef; fill-opacity: 0.7; stroke: #333446; stroke-opacity: 0.7"/>
     <use xlink:href="#m776e7ae7b8" x="215.637761" y="83.940471" style="fill: #eaefef; fill-opacity: 0.7; stroke: #333446; stroke-opacity: 0.7"/>
     <use xlink:href="#m776e7ae7b8" x="204.588248" y="97.638878" style="fill: #eaefef; fill-opacity: 0.7; stroke: #333446; stroke-opacity: 0.7"/>
     <use xlink:href="#m776e7ae7b8" x="204.59018" y="148.843659" style="fill: #eaefef; fill-opacity: 0.7; stroke: #333446; stroke-opacity: 0.7"/>
     <use xlink:href="#m776e7ae7b8" x="174.179388" y="124.986626" style="fill: #eaefef; fill-opacity: 0.7; stroke: #333446; stroke-opacity: 0.7"/>
     <use xlink:href="#m776e7ae7b8" x="137.909552" y="96.344572" style="fill: #eaefef; fill-opacity: 0.7; stroke: #333446; stroke-opacity: 0.7"/>
     <use xlink:href="#m776e7ae7b8" x="56.985717" y="37.276242" style="fill: #eaefef; fill-opacity: 0.7; stroke: #333446; stroke-opacity: 0.7"/>
     <use xlink:href="#m776e7ae7b8" x="148.297842" y="101.930086" style="fill: #eaefef; fill-opacity: 0.7; stroke: #333446; stroke-opacity: 0.7"/>
     <use xlink:href="#m776e7ae7b8" x="60.351671" y="29.351373" style="fill: #eaefef; fill-opacity: 0.7; stroke: #333446; stroke-opacity: 0.7"/>
     <use xlink:href="#m776e7ae7b8" x="326.63628" y="242.800909" style="fill: #eaefef; fill-opacity: 0.7; stroke: #333446; stroke-opacity: 0.7"/>
     <use xlink:href="#m776e7ae7b8" x="90.42007" y="56.101212" style="fill: #eaefef; fill-opacity: 0.7; stroke: #333446; stroke-opacity: 0.7"/>
     <use xlink:href="#m776e7ae7b8" x="276.233216" y="210.68955" style="fill: #eaefef; fill-opacity: 0.7; stroke: #333446; stroke-opacity: 0.7"/>
     <use xlink:href="#m776e7ae7b8" x="294.837634" y="225.30379" style="fill: #eaefef; fill-opacity: 0.7; stroke: #333446; stroke-opacity: 0.7"/>
     <use xlink:href="#m776e7ae7b8" x="239.838234" y="184.63246" style="fill: #eaefef; fill-opacity: 0.7; stroke: #333446; stroke-opacity: 0.7"/>
     <use xlink:href="#m776e7ae7b8" x="204.777814" y="144.589527" style="fill: #eaefef; fill-opacity: 0.7; stroke: #333446; stroke-opacity: 0.7"/>
     <use xlink:href="#m776e7ae7b8" x="84.334435" y="56.598401" style="fill: #eaefef; fill-opacity: 0.7; stroke: #333446; stroke-opacity: 0.7"/>
     <use xlink:href="#m776e7ae7b8" x="174.524378" y="119.974359" style="fill: #eaefef; fill-opacity: 0.7; stroke: #333446; stroke-opacity: 0.7"/>
     <use xlink:href="#m776e7ae7b8" x="138.641648" y="101.83861" style="fill: #eaefef; fill-opacity: 0.7; stroke: #333446; stroke-opacity: 0.7"/>
     <use xlink:href="#m776e7ae7b8" x="103.223529" y="72.332766" style="fill: #eaefef; fill-opacity: 0.7; stroke: #333446; stroke-opacity: 0.7"/>
     <use xlink:href="#m776e7ae7b8" x="211.563969" y="155.217848" style="fill: #eaefef; fill-opacity: 0.7; stroke: #333446; stroke-opacity: 0.7"/>
     <use xlink:href="#m776e7ae7b8" x="128.941205" y="86.282101" style="fill: #eaefef; fill-opacity: 0.7; stroke: #333446; stroke-opacity: 0.7"/>
     <use xlink:href="#m776e7ae7b8" x="307.026912" y="230.593827" style="fill: #eaefef; fill-opacity: 0.7; stroke: #333446; stroke-opacity: 0.7"/>
     <use xlink:href="#m776e7ae7b8" x="305.060411" y="228.34581" style="fill: #eaefef; fill-opacity: 0.7; stroke: #333446; stroke-opacity: 0.7"/>
     <use xlink:href="#m776e7ae7b8" x="112.681071" y="77.67494" style="fill: #eaefef; fill-opacity: 0.7; stroke: #333446; stroke-opacity: 0.7"/>
     <use xlink:href="#m776e7ae7b8" x="69.569486" y="42.961085" style="fill: #eaefef; fill-opacity: 0.7; stroke: #333446; stroke-opacity: 0.7"/>
     <use xlink:href="#m776e7ae7b8" x="93.766315" y="68.035816" style="fill: #eaefef; fill-opacity: 0.7; stroke: #333446; stroke-opacity: 0.7"/>
     <use xlink:href="#m776e7ae7b8" x="184.166426" y="133.698784" style="fill: #eaefef; fill-opacity: 0.7; stroke: #333446; stroke-opacity: 0.7"/>
     <use xlink:href="#m776e7ae7b8" x="251.682125" y="188.136937" style="fill: #eaefef; fill-opacity: 0.7; stroke: #333446; stroke-opacity: 0.7"/>
     <use xlink:href="#m776e7ae7b8" x="98.257025" y="66.651072" style="fill: #eaefef; fill-opacity: 0.7; stroke: #333446; stroke-opacity: 0.7"/>
     <use xlink:href="#m776e7ae7b8" x="110.002651" y="73.354085" style="fill: #eaefef; fill-opacity: 0.7; stroke: #333446; stroke-opacity: 0.7"/>
     <use xlink:href="#m776e7ae7b8" x="287.971194" y="219.024467" style="fill: #eaefef; fill-opacity: 0.7; stroke: #333446; stroke-opacity: 0.7"/>
     <use xlink:href="#m776e7ae7b8" x="159.478999" y="115.016243" style="fill: #eaefef; fill-opacity: 0.7; stroke: #333446; stroke-opacity: 0.7"/>
     <use xlink:href="#m776e7ae7b8" x="218.690867" y="162.657934" style="fill: #eaefef; fill-opacity: 0.7; stroke: #333446; stroke-opacity: 0.7"/>
     <use xlink:href="#m776e7ae7b8" x="105.766756" y="70.365239" style="fill: #eaefef; fill-opacity: 0.7; stroke: #333446; stroke-opacity: 0.7"/>
     <use xlink:href="#m776e7ae7b8" x="66.938442" y="38.065355" style="fill: #eaefef; fill-opacity: 0.7; stroke: #333446; stroke-opacity: 0.7"/>
     <use xlink:href="#m776e7ae7b8" x="188.964091" y="142.293587" style="fill: #eaefef; fill-opacity: 0.7; stroke: #333446; stroke-opacity: 0.7"/>
     <use xlink:href="#m776e7ae7b8" x="177.549581" y="126.13932" style="fill: #eaefef; fill-opacity: 0.7; stroke: #333446; stroke-opacity: 0.7"/>
     <use xlink:href="#m776e7ae7b8" x="81.887436" y="43.892214" style="fill: #eaefef; fill-opacity: 0.7; stroke: #333446; stroke-opacity: 0.7"/>
     <use xlink:href="#m776e7ae7b8" x="220.200722" y="169.300821" style="fill: #eaefef; fill-opacity: 0.7; stroke: #333446; stroke-opacity: 0.7"/>
     <use xlink:href="#m776e7ae7b8" x="197.26437" y="148.251436" style="fill: #eaefef; fill-opacity: 0.7; stroke: #333446; stroke-opacity: 0.7"/>
     <use xlink:href="#m776e7ae7b8" x="229.73279" y="174.067356" style="fill: #eaefef; fill-opacity: 0.7; stroke: #333446; stroke-opacity: 0.7"/>
     <use xlink:href="#m776e7ae7b8" x="79.491646" y="52.898551" style="fill: #eaefef; fill-opacity: 0.7; stroke: #333446; stroke-opacity: 0.7"/>
     <use xlink:href="#m776e7ae7b8" x="258.446077" y="185.059893" style="fill: #eaefef; fill-opacity: 0.7; stroke: #333446; stroke-opacity: 0.7"/>
     <use xlink:href="#m776e7ae7b8" x="102.341757" y="69.543384" style="fill: #eaefef; fill-opacity: 0.7; stroke: #333446; stroke-opacity: 0.7"/>
     <use xlink:href="#m776e7ae7b8" x="189.994453" y="141.894084" style="fill: #eaefef; fill-opacity: 0.7; stroke: #333446; stroke-opacity: 0.7"/>
     <use xlink:href="#m776e7ae7b8" x="268.401839" y="197.55471" style="fill: #eaefef; fill-opacity: 0.7; stroke: #333446; stroke-opacity: 0.7"/>
     <use xlink:href="#m776e7ae7b8" x="43.459398" y="25.998839" style="fill: #eaefef; fill-opacity: 0.7; stroke: #333446; stroke-opacity: 0.7"/>
     <use xlink:href="#m776e7ae7b8" x="132.50643" y="88.152841" style="fill: #eaefef; fill-opacity: 0.7; stroke: #333446; stroke-opacity: 0.7"/>
     <use xlink:href="#m776e7ae7b8" x="294.236404" y="219.380246" style="fill: #eaefef; fill-opacity: 0.7; stroke: #333446; stroke-opacity: 0.7"/>
     <use xlink:href="#m776e7ae7b8" x="285.918534" y="207.792789" style="fill: #eaefef; fill-opacity: 0.7; stroke: #333446; stroke-opacity: 0.7"/>
     <use xlink:href="#m776e7ae7b8" x="195.622327" y="146.173328" style="fill: #eaefef; fill-opacity: 0.7; stroke: #333446; stroke-opacity: 0.7"/>
     <use xlink:href="#m776e7ae7b8" x="292.37484" y="205.250837" style="fill: #eaefef; fill-opacity: 0.7; stroke: #333446; stroke-opacity: 0.7"/>
     <use xlink:href="#m776e7ae7b8" x="316.903728" y="234.827069" style="fill: #eaefef; fill-opacity: 0.7; stroke: #333446; stroke-opacity: 0.7"/>
     <use xlink:href="#m776e7ae7b8" x="319.742414" y="154.041677" style="fill: #eaefef; fill-opacity: 0.7; stroke: #333446; stroke-opacity: 0.7"/>
     <use xlink:href="#m776e7ae7b8" x="273.904734" y="150.284218" style="fill: #eaefef; fill-opacity: 0.7; stroke: #333446; stroke-opacity: 0.7"/>
     <use xlink:href="#m776e7ae7b8" x="46.405492" y="154.857492" style="fill: #eaefef; fill-opacity: 0.7; stroke: #333446; stroke-opacity: 0.7"/>
     <use xlink:href="#m776e7ae7b8" x="246.021923" y="167.032152" style="fill: #eaefef; fill-opacity: 0.7; stroke: #333446; stroke-opacity: 0.7"/>
     <use xlink:href="#m776e7ae7b8" x="173.970534" y="152.524106" style="fill: #eaefef; fill-opacity: 0.7; stroke: #333446; stroke-opacity: 0.7"/>
     <use xlink:href="#m776e7ae7b8" x="316.23829" y="151.491913" style="fill: #eaefef; fill-opacity: 0.7; stroke: #333446; stroke-opacity: 0.7"/>
     <use xlink:href="#m776e7ae7b8" x="102.160025" y="156.270301" style="fill: #eaefef; fill-opacity: 0.7; stroke: #333446; stroke-opacity: 0.7"/>
     <use xlink:href="#m776e7ae7b8" x="115.615693" y="158.337228" style="fill: #eaefef; fill-opacity: 0.7; stroke: #333446; stroke-opacity: 0.7"/>
     <use xlink:href="#m776e7ae7b8" x="60.896477" y="153.057881" style="fill: #eaefef; fill-opacity: 0.7; stroke: #333446; stroke-opacity: 0.7"/>
     <use xlink:href="#m776e7ae7b8" x="163.243966" y="157.32819" style="fill: #eaefef; fill-opacity: 0.7; stroke: #333446; stroke-opacity: 0.7"/>
     <use xlink:href="#m776e7ae7b8" x="69.017413" y="148.370304" style="fill: #eaefef; fill-opacity: 0.7; stroke: #333446; stroke-opacity: 0.7"/>
     <use xlink:href="#m776e7ae7b8" x="223.732899" y="151.834097" style="fill: #eaefef; fill-opacity: 0.7; stroke: #333446; stroke-opacity: 0.7"/>
     <use xlink:href="#m776e7ae7b8" x="273.610599" y="143.738134" style="fill: #eaefef; fill-opacity: 0.7; stroke: #333446; stroke-opacity: 0.7"/>
     <use xlink:href="#m776e7ae7b8" x="242.311015" y="157.812859" style="fill: #eaefef; fill-opacity: 0.7; stroke: #333446; stroke-opacity: 0.7"/>
     <use xlink:href="#m776e7ae7b8" x="262.77518" y="161.998683" style="fill: #eaefef; fill-opacity: 0.7; stroke: #333446; stroke-opacity: 0.7"/>
     <use xlink:href="#m776e7ae7b8" x="137.84033" y="152.488818" style="fill: #eaefef; fill-opacity: 0.7; stroke: #333446; stroke-opacity: 0.7"/>
     <use xlink:href="#m776e7ae7b8" x="286.255189" y="149.509378" style="fill: #eaefef; fill-opacity: 0.7; stroke: #333446; stroke-opacity: 0.7"/>
     <use xlink:href="#m776e7ae7b8" x="163.288174" y="155.244342" style="fill: #eaefef; fill-opacity: 0.7; stroke: #333446; stroke-opacity: 0.7"/>
     <use xlink:href="#m776e7ae7b8" x="279.815704" y="160.721394" style="fill: #eaefef; fill-opacity: 0.7; stroke: #333446; stroke-opacity: 0.7"/>
     <use xlink:href="#m776e7ae7b8" x="221.583437" y="156.570862" style="fill: #eaefef; fill-opacity: 0.7; stroke: #333446; stroke-opacity: 0.7"/>
     <use xlink:href="#m776e7ae7b8" x="79.160706" y="153.863224" style="fill: #eaefef; fill-opacity: 0.7; stroke: #333446; stroke-opacity: 0.7"/>
     <use xlink:href="#m776e7ae7b8" x="59.986329" y="157.892098" style="fill: #eaefef; fill-opacity: 0.7; stroke: #333446; stroke-opacity: 0.7"/>
     <use xlink:href="#m776e7ae7b8" x="42.280745" y="157.854296" style="fill: #eaefef; fill-opacity: 0.7; stroke: #333446; stroke-opacity: 0.7"/>
     <use xlink:href="#m776e7ae7b8" x="56.548091" y="157.905778" style="fill: #eaefef; fill-opacity: 0.7; stroke: #333446; stroke-opacity: 0.7"/>
     <use xlink:href="#m776e7ae7b8" x="172.078436" y="159.608933" style="fill: #eaefef; fill-opacity: 0.7; stroke: #333446; stroke-opacity: 0.7"/>
     <use xlink:href="#m776e7ae7b8" x="70.291994" y="159.35038" style="fill: #eaefef; fill-opacity: 0.7; stroke: #333446; stroke-opacity: 0.7"/>
     <use xlink:href="#m776e7ae7b8" x="45.067063" y="163.899105" style="fill: #eaefef; fill-opacity: 0.7; stroke: #333446; stroke-opacity: 0.7"/>
     <use xlink:href="#m776e7ae7b8" x="259.428929" y="145.67996" style="fill: #eaefef; fill-opacity: 0.7; stroke: #333446; stroke-opacity: 0.7"/>
     <use xlink:href="#m776e7ae7b8" x="153.288163" y="157.774711" style="fill: #eaefef; fill-opacity: 0.7; stroke: #333446; stroke-opacity: 0.7"/>
     <use xlink:href="#m776e7ae7b8" x="257.093024" y="151.711544" style="fill: #eaefef; fill-opacity: 0.7; stroke: #333446; stroke-opacity: 0.7"/>
     <use xlink:href="#m776e7ae7b8" x="170.256707" y="160.046341" style="fill: #eaefef; fill-opacity: 0.7; stroke: #333446; stroke-opacity: 0.7"/>
     <use xlink:href="#m776e7ae7b8" x="169.573276" y="151.618319" style="fill: #eaefef; fill-opacity: 0.7; stroke: #333446; stroke-opacity: 0.7"/>
     <use xlink:href="#m776e7ae7b8" x="177.824218" y="163.881991" style="fill: #eaefef; fill-opacity: 0.7; stroke: #333446; stroke-opacity: 0.7"/>
     <use xlink:href="#m776e7ae7b8" x="176.624693" y="150.921422" style="fill: #eaefef; fill-opacity: 0.7; stroke: #333446; stroke-opacity: 0.7"/>
     <use xlink:href="#m776e7ae7b8" x="273.669596" y="153.833552" style="fill: #eaefef; fill-opacity: 0.7; stroke: #333446; stroke-opacity: 0.7"/>
     <use xlink:href="#m776e7ae7b8" x="155.511756" y="145.7256" style="fill: #eaefef; fill-opacity: 0.7; stroke: #333446; stroke-opacity: 0.7"/>
     <use xlink:href="#m776e7ae7b8" x="303.601208" y="159.267542" style="fill: #eaefef; fill-opacity: 0.7; stroke: #333446; stroke-opacity: 0.7"/>
     <use xlink:href="#m776e7ae7b8" x="47.802374" y="156.873584" style="fill: #eaefef; fill-opacity: 0.7; stroke: #333446; stroke-opacity: 0.7"/>
     <use xlink:href="#m776e7ae7b8" x="265.034424" y="152.099205" style="fill: #eaefef; fill-opacity: 0.7; stroke: #333446; stroke-opacity: 0.7"/>
     <use xlink:href="#m776e7ae7b8" x="73.9182" y="151.089037" style="fill: #eaefef; fill-opacity: 0.7; stroke: #333446; stroke-opacity: 0.7"/>
     <use xlink:href="#m776e7ae7b8" x="219.229958" y="156.491624" style="fill: #eaefef; fill-opacity: 0.7; stroke: #333446; stroke-opacity: 0.7"/>
     <use xlink:href="#m776e7ae7b8" x="39.931456" y="156.950764" style="fill: #eaefef; fill-opacity: 0.7; stroke: #333446; stroke-opacity: 0.7"/>
     <use xlink:href="#m776e7ae7b8" x="195.677368" y="164.851818" style="fill: #eaefef; fill-opacity: 0.7; stroke: #333446; stroke-opacity: 0.7"/>
     <use xlink:href="#m776e7ae7b8" x="37.765571" y="161.243437" style="fill: #eaefef; fill-opacity: 0.7; stroke: #333446; stroke-opacity: 0.7"/>
     <use xlink:href="#m776e7ae7b8" x="317.312886" y="150.883369" style="fill: #eaefef; fill-opacity: 0.7; stroke: #333446; stroke-opacity: 0.7"/>
     <use xlink:href="#m776e7ae7b8" x="303.812266" y="148.064421" style="fill: #eaefef; fill-opacity: 0.7; stroke: #333446; stroke-opacity: 0.7"/>
     <use xlink:href="#m776e7ae7b8" x="271.547906" y="155.011576" style="fill: #eaefef; fill-opacity: 0.7; stroke: #333446; stroke-opacity: 0.7"/>
     <use xlink:href="#m776e7ae7b8" x="306.722877" y="143.594862" style="fill: #eaefef; fill-opacity: 0.7; stroke: #333446; stroke-opacity: 0.7"/>
     <use xlink:href="#m776e7ae7b8" x="79.790214" y="148.546516" style="fill: #eaefef; fill-opacity: 0.7; stroke: #333446; stroke-opacity: 0.7"/>
     <use xlink:href="#m776e7ae7b8" x="83.378794" y="156.949608" style="fill: #eaefef; fill-opacity: 0.7; stroke: #333446; stroke-opacity: 0.7"/>
     <use xlink:href="#m776e7ae7b8" x="92.194578" y="167.741686" style="fill: #eaefef; fill-opacity: 0.7; stroke: #333446; stroke-opacity: 0.7"/>
     <use xlink:href="#m776e7ae7b8" x="220.404055" y="162.766903" style="fill: #eaefef; fill-opacity: 0.7; stroke: #333446; stroke-opacity: 0.7"/>
     <use xlink:href="#m776e7ae7b8" x="303.932397" y="156.806176" style="fill: #eaefef; fill-opacity: 0.7; stroke: #333446; stroke-opacity: 0.7"/>
     <use xlink:href="#m776e7ae7b8" x="328.74077" y="147.617397" style="fill: #eaefef; fill-opacity: 0.7; stroke: #333446; stroke-opacity: 0.7"/>
     <use xlink:href="#m776e7ae7b8" x="246.533509" y="152.655367" style="fill: #eaefef; fill-opacity: 0.7; stroke: #333446; stroke-opacity: 0.7"/>
     <use xlink:href="#m776e7ae7b8" x="252.629915" y="163.730346" style="fill: #eaefef; fill-opacity: 0.7; stroke: #333446; stroke-opacity: 0.7"/>
     <use xlink:href="#m776e7ae7b8" x="304.959486" y="154.238986" style="fill: #eaefef; fill-opacity: 0.7; stroke: #333446; stroke-opacity: 0.7"/>
     <use xlink:href="#m776e7ae7b8" x="155.063977" y="148.042777" style="fill: #eaefef; fill-opacity: 0.7; stroke: #333446; stroke-opacity: 0.7"/>
     <use xlink:href="#m776e7ae7b8" x="110.538387" y="157.981134" style="fill: #eaefef; fill-opacity: 0.7; stroke: #333446; stroke-opacity: 0.7"/>
     <use xlink:href="#m776e7ae7b8" x="88.007599" y="160.079133" style="fill: #eaefef; fill-opacity: 0.7; stroke: #333446; stroke-opacity: 0.7"/>
     <use xlink:href="#m776e7ae7b8" x="72.094895" y="147.300156" style="fill: #eaefef; fill-opacity: 0.7; stroke: #333446; stroke-opacity: 0.7"/>
     <use xlink:href="#m776e7ae7b8" x="276.454894" y="153.377214" style="fill: #eaefef; fill-opacity: 0.7; stroke: #333446; stroke-opacity: 0.7"/>
     <use xlink:href="#m776e7ae7b8" x="80.154072" y="158.944734" style="fill: #eaefef; fill-opacity: 0.7; stroke: #333446; stroke-opacity: 0.7"/>
     <use xlink:href="#m776e7ae7b8" x="114.797686" y="154.545904" style="fill: #eaefef; fill-opacity: 0.7; stroke: #333446; stroke-opacity: 0.7"/>
     <use xlink:href="#m776e7ae7b8" x="278.364953" y="153.515504" style="fill: #eaefef; fill-opacity: 0.7; stroke: #333446; stroke-opacity: 0.7"/>
     <use xlink:href="#m776e7ae7b8" x="128.445135" y="157.951405" style="fill: #eaefef; fill-opacity: 0.7; stroke: #333446; stroke-opacity: 0.7"/>
     <use xlink:href="#m776e7ae7b8" x="326.518448" y="147.22214" style="fill: #eaefef; fill-opacity: 0.7; stroke: #333446; stroke-opacity: 0.7"/>
     <use xlink:href="#m776e7ae7b8" x="115.48794" y="150.978466" style="fill: #eaefef; fill-opacity: 0.7; stroke: #333446; stroke-opacity: 0.7"/>
     <use xlink:href="#m776e7ae7b8" x="194.210919" y="151.014823" style="fill: #eaefef; fill-opacity: 0.7; stroke: #333446; stroke-opacity: 0.7"/>
     <use xlink:href="#m776e7ae7b8" x="129.58899" y="156.417648" style="fill: #eaefef; fill-opacity: 0.7; stroke: #333446; stroke-opacity: 0.7"/>
    </g>
   </g>
   <g id="matplotlib.axis_1">
    <g id="xtick_1">
     <g id="line2d_1">
      <defs>
       <path id="m00ca367d05" d="M 0 0 
L 0 6 
" style="stroke: #000000; stroke-width: 0.5"/>
      </defs>
      <g>
       <use xlink:href="#m00ca367d05" x="36.875797" y="254.02" style="stroke: #000000; stroke-width: 0.5"/>
      </g>
     </g>
     <g id="text_1">
      <!-- 0.0 -->
      <g transform="translate(28.924235 271.118437) scale(0.1 -0.1)">
       <defs>
        <path id="DejaVuSerif-30" d="M 2034 219 
Q 2513 219 2750 744 
Q 2988 1269 2988 2328 
Q 2988 3391 2750 3916 
Q 2513 4441 2034 4441 
Q 1556 4441 1318 3916 
Q 1081 3391 1081 2328 
Q 1081 1269 1318 744 
Q 1556 219 2034 219 
z
M 2034 -91 
Q 1275 -91 848 546 
Q 422 1184 422 2328 
Q 422 3475 848 4112 
Q 1275 4750 2034 4750 
Q 2797 4750 3222 4112 
Q 3647 3475 3647 2328 
Q 3647 1184 3222 546 
Q 2797 -91 2034 -91 
z
" transform="scale(0.015625)"/>
        <path id="DejaVuSerif-2e" d="M 603 325 
Q 603 500 722 622 
Q 841 744 1019 744 
Q 1191 744 1312 622 
Q 1434 500 1434 325 
Q 1434 153 1312 31 
Q 1191 -91 1019 -91 
Q 841 -91 722 29 
Q 603 150 603 325 
z
" transform="scale(0.015625)"/>
       </defs>
       <use xlink:href="#DejaVuSerif-30"/>
       <use xlink:href="#DejaVuSerif-2e" x="63.623047"/>
       <use xlink:href="#DejaVuSerif-30" x="95.410156"/>
      </g>
     </g>
    </g>
    <g id="xtick_2">
     <g id="line2d_2">
      <g>
       <use xlink:href="#m00ca367d05" x="95.841088" y="254.02" style="stroke: #000000; stroke-width: 0.5"/>
      </g>
     </g>
     <g id="text_2">
      <!-- 0.2 -->
      <g transform="translate(87.889525 271.118437) scale(0.1 -0.1)">
       <defs>
        <path id="DejaVuSerif-32" d="M 819 3553 
L 469 3553 
L 469 4384 
Q 803 4563 1142 4656 
Q 1481 4750 1806 4750 
Q 2534 4750 2956 4397 
Q 3378 4044 3378 3438 
Q 3378 2753 2422 1800 
Q 2347 1728 2309 1691 
L 1131 513 
L 3078 513 
L 3078 1088 
L 3444 1088 
L 3444 0 
L 434 0 
L 434 341 
L 1850 1753 
Q 2319 2222 2519 2614 
Q 2719 3006 2719 3438 
Q 2719 3909 2473 4175 
Q 2228 4441 1797 4441 
Q 1350 4441 1106 4219 
Q 863 3997 819 3553 
z
" transform="scale(0.015625)"/>
       </defs>
       <use xlink:href="#DejaVuSerif-30"/>
       <use xlink:href="#DejaVuSerif-2e" x="63.623047"/>
       <use xlink:href="#DejaVuSerif-32" x="95.410156"/>
      </g>
     </g>
    </g>
    <g id="xtick_3">
     <g id="line2d_3">
      <g>
       <use xlink:href="#m00ca367d05" x="154.806378" y="254.02" style="stroke: #000000; stroke-width: 0.5"/>
      </g>
     </g>
     <g id="text_3">
      <!-- 0.4 -->
      <g transform="translate(146.854815 271.118437) scale(0.1 -0.1)">
       <defs>
        <path id="DejaVuSerif-34" d="M 2234 1581 
L 2234 4063 
L 641 1581 
L 2234 1581 
z
M 3609 0 
L 1484 0 
L 1484 331 
L 2234 331 
L 2234 1247 
L 197 1247 
L 197 1588 
L 2241 4750 
L 2859 4750 
L 2859 1581 
L 3750 1581 
L 3750 1247 
L 2859 1247 
L 2859 331 
L 3609 331 
L 3609 0 
z
" transform="scale(0.015625)"/>
       </defs>
       <use xlink:href="#DejaVuSerif-30"/>
       <use xlink:href="#DejaVuSerif-2e" x="63.623047"/>
       <use xlink:href="#DejaVuSerif-34" x="95.410156"/>
      </g>
     </g>
    </g>
    <g id="xtick_4">
     <g id="line2d_4">
      <g>
       <use xlink:href="#m00ca367d05" x="213.771668" y="254.02" style="stroke: #000000; stroke-width: 0.5"/>
      </g>
     </g>
     <g id="text_4">
      <!-- 0.6 -->
      <g transform="translate(205.820106 271.118437) scale(0.1 -0.1)">
       <defs>
        <path id="DejaVuSerif-36" d="M 2094 219 
Q 2534 219 2771 542 
Q 3009 866 3009 1472 
Q 3009 2078 2771 2401 
Q 2534 2725 2094 2725 
Q 1647 2725 1412 2412 
Q 1178 2100 1178 1509 
Q 1178 888 1415 553 
Q 1653 219 2094 219 
z
M 1075 2569 
Q 1288 2803 1556 2918 
Q 1825 3034 2163 3034 
Q 2859 3034 3264 2615 
Q 3669 2197 3669 1472 
Q 3669 763 3233 336 
Q 2797 -91 2069 -91 
Q 1278 -91 853 498 
Q 428 1088 428 2181 
Q 428 3406 931 4078 
Q 1434 4750 2350 4750 
Q 2597 4750 2869 4703 
Q 3141 4656 3425 4563 
L 3425 3794 
L 3072 3794 
Q 3034 4109 2831 4275 
Q 2628 4441 2284 4441 
Q 1678 4441 1381 3981 
Q 1084 3522 1075 2569 
z
" transform="scale(0.015625)"/>
       </defs>
       <use xlink:href="#DejaVuSerif-30"/>
       <use xlink:href="#DejaVuSerif-2e" x="63.623047"/>
       <use xlink:href="#DejaVuSerif-36" x="95.410156"/>
      </g>
     </g>
    </g>
    <g id="xtick_5">
     <g id="line2d_5">
      <g>
       <use xlink:href="#m00ca367d05" x="272.736959" y="254.02" style="stroke: #000000; stroke-width: 0.5"/>
      </g>
     </g>
     <g id="text_5">
      <!-- 0.8 -->
      <g transform="translate(264.785396 271.118437) scale(0.1 -0.1)">
       <defs>
        <path id="DejaVuSerif-38" d="M 2981 1275 
Q 2981 1775 2732 2051 
Q 2484 2328 2034 2328 
Q 1584 2328 1336 2051 
Q 1088 1775 1088 1275 
Q 1088 772 1336 495 
Q 1584 219 2034 219 
Q 2484 219 2732 495 
Q 2981 772 2981 1275 
z
M 2853 3541 
Q 2853 3966 2637 4203 
Q 2422 4441 2034 4441 
Q 1650 4441 1433 4203 
Q 1216 3966 1216 3541 
Q 1216 3113 1433 2875 
Q 1650 2638 2034 2638 
Q 2422 2638 2637 2875 
Q 2853 3113 2853 3541 
z
M 2516 2484 
Q 3047 2413 3344 2092 
Q 3641 1772 3641 1275 
Q 3641 619 3225 264 
Q 2809 -91 2034 -91 
Q 1263 -91 845 264 
Q 428 619 428 1275 
Q 428 1772 725 2092 
Q 1022 2413 1556 2484 
Q 1084 2569 832 2842 
Q 581 3116 581 3541 
Q 581 4103 968 4426 
Q 1356 4750 2034 4750 
Q 2713 4750 3100 4426 
Q 3488 4103 3488 3541 
Q 3488 3116 3236 2842 
Q 2984 2569 2516 2484 
z
" transform="scale(0.015625)"/>
       </defs>
       <use xlink:href="#DejaVuSerif-30"/>
       <use xlink:href="#DejaVuSerif-2e" x="63.623047"/>
       <use xlink:href="#DejaVuSerif-38" x="95.410156"/>
      </g>
     </g>
    </g>
    <g id="xtick_6">
     <g id="line2d_6">
      <g>
       <use xlink:href="#m00ca367d05" x="331.702249" y="254.02" style="stroke: #000000; stroke-width: 0.5"/>
      </g>
     </g>
     <g id="text_6">
      <!-- 1.0 -->
      <g transform="translate(323.750687 271.118437) scale(0.1 -0.1)">
       <defs>
        <path id="DejaVuSerif-31" d="M 909 0 
L 909 331 
L 1722 331 
L 1722 4213 
L 781 3603 
L 781 4013 
L 1919 4750 
L 2350 4750 
L 2350 331 
L 3163 331 
L 3163 0 
L 909 0 
z
" transform="scale(0.015625)"/>
       </defs>
       <use xlink:href="#DejaVuSerif-31"/>
       <use xlink:href="#DejaVuSerif-2e" x="63.623047"/>
       <use xlink:href="#DejaVuSerif-30" x="95.410156"/>
      </g>
     </g>
    </g>
   </g>
   <g id="matplotlib.axis_2">
    <g id="ytick_1">
     <g id="line2d_7">
      <defs>
       <path id="mfc6cd6b104" d="M 0 0 
L -6 0 
" style="stroke: #000000; stroke-width: 0.5"/>
      </defs>
      <g>
       <use xlink:href="#mfc6cd6b104" x="23.0625" y="250.317666" style="stroke: #000000; stroke-width: 0.5"/>
      </g>
     </g>
     <g id="text_7">
      <!-- 0 -->
      <g transform="translate(7.2 254.116885) scale(0.1 -0.1)">
       <use xlink:href="#DejaVuSerif-30"/>
      </g>
     </g>
    </g>
    <g id="ytick_2">
     <g id="line2d_8">
      <g>
       <use xlink:href="#mfc6cd6b104" x="23.0625" y="203.859141" style="stroke: #000000; stroke-width: 0.5"/>
      </g>
     </g>
     <g id="text_8">
      <!-- 1 -->
      <g transform="translate(7.2 207.65836) scale(0.1 -0.1)">
       <use xlink:href="#DejaVuSerif-31"/>
      </g>
     </g>
    </g>
    <g id="ytick_3">
     <g id="line2d_9">
      <g>
       <use xlink:href="#mfc6cd6b104" x="23.0625" y="157.400616" style="stroke: #000000; stroke-width: 0.5"/>
      </g>
     </g>
     <g id="text_9">
      <!-- 2 -->
      <g transform="translate(7.2 161.199835) scale(0.1 -0.1)">
       <use xlink:href="#DejaVuSerif-32"/>
      </g>
     </g>
    </g>
    <g id="ytick_4">
     <g id="line2d_10">
      <g>
       <use xlink:href="#mfc6cd6b104" x="23.0625" y="110.942091" style="stroke: #000000; stroke-width: 0.5"/>
      </g>
     </g>
     <g id="text_10">
      <!-- 3 -->
      <g transform="translate(7.2 114.74131) scale(0.1 -0.1)">
       <defs>
        <path id="DejaVuSerif-33" d="M 622 4469 
Q 988 4606 1323 4678 
Q 1659 4750 1953 4750 
Q 2638 4750 3022 4454 
Q 3406 4159 3406 3634 
Q 3406 3213 3140 2930 
Q 2875 2647 2388 2547 
Q 2963 2466 3280 2130 
Q 3597 1794 3597 1259 
Q 3597 606 3158 257 
Q 2719 -91 1894 -91 
Q 1528 -91 1179 -12 
Q 831 66 488 225 
L 488 1131 
L 838 1131 
Q 869 681 1141 450 
Q 1413 219 1906 219 
Q 2384 219 2661 495 
Q 2938 772 2938 1253 
Q 2938 1803 2653 2086 
Q 2369 2369 1819 2369 
L 1522 2369 
L 1522 2688 
L 1678 2688 
Q 2225 2688 2498 2914 
Q 2772 3141 2772 3597 
Q 2772 4006 2547 4223 
Q 2322 4441 1900 4441 
Q 1478 4441 1245 4241 
Q 1013 4041 972 3647 
L 622 3647 
L 622 4469 
z
" transform="scale(0.015625)"/>
       </defs>
       <use xlink:href="#DejaVuSerif-33"/>
      </g>
     </g>
    </g>
    <g id="ytick_5">
     <g id="line2d_11">
      <g>
       <use xlink:href="#mfc6cd6b104" x="23.0625" y="64.483566" style="stroke: #000000; stroke-width: 0.5"/>
      </g>
     </g>
     <g id="text_11">
      <!-- 4 -->
      <g transform="translate(7.2 68.282785) scale(0.1 -0.1)">
       <use xlink:href="#DejaVuSerif-34"/>
      </g>
     </g>
    </g>
    <g id="ytick_6">
     <g id="line2d_12">
      <g>
       <use xlink:href="#mfc6cd6b104" x="23.0625" y="18.025042" style="stroke: #000000; stroke-width: 0.5"/>
      </g>
     </g>
     <g id="text_12">
      <!-- 5 -->
      <g transform="translate(7.2 21.82426) scale(0.1 -0.1)">
       <defs>
        <path id="DejaVuSerif-35" d="M 3219 4666 
L 3219 4153 
L 1081 4153 
L 1081 2816 
Q 1244 2928 1461 2984 
Q 1678 3041 1947 3041 
Q 2703 3041 3140 2622 
Q 3578 2203 3578 1478 
Q 3578 738 3136 323 
Q 2694 -91 1894 -91 
Q 1572 -91 1234 -12 
Q 897 66 544 225 
L 544 1131 
L 897 1131 
Q 925 688 1179 453 
Q 1434 219 1894 219 
Q 2388 219 2653 544 
Q 2919 869 2919 1478 
Q 2919 2084 2655 2407 
Q 2391 2731 1894 2731 
Q 1613 2731 1398 2631 
Q 1184 2531 1019 2322 
L 750 2322 
L 750 4666 
L 3219 4666 
z
" transform="scale(0.015625)"/>
       </defs>
       <use xlink:href="#DejaVuSerif-35"/>
      </g>
     </g>
    </g>
   </g>
   <g id="line2d_13">
    <path d="M 37.722045 152.203353 
L 330.912955 105.371282 
L 330.912955 105.371282 
" clip-path="url(#p50271b0687)" style="fill: none; stroke-dasharray: 5.55,2.4; stroke-dashoffset: 0; stroke: #af3e3e; stroke-opacity: 0.7; stroke-width: 1.5"/>
   </g>
   <g id="patch_3">
    <path d="M 23.0625 254.02 
L 23.0625 7.2 
" style="fill: none; stroke: #000000; stroke-width: 0.5; stroke-linejoin: miter; stroke-linecap: square"/>
   </g>
   <g id="patch_4">
    <path d="M 23.0625 254.02 
L 345.5725 254.02 
" style="fill: none; stroke: #000000; stroke-width: 0.5; stroke-linejoin: miter; stroke-linecap: square"/>
   </g>
  </g>
 </g>
 <defs>
  <clipPath id="p50271b0687">
   <rect x="23.0625" y="7.2" width="322.51" height="246.82"/>
  </clipPath>
 </defs>
</svg>
