<?xml version="1.0" encoding="utf-8" standalone="no"?>
<!DOCTYPE svg PUBLIC "-//W3C//DTD SVG 1.1//EN"
  "http://www.w3.org/Graphics/SVG/1.1/DTD/svg11.dtd">
<svg xmlns:xlink="http://www.w3.org/1999/xlink" width="352.745pt" height="280.398125pt" viewBox="0 0 352.745 280.398125" xmlns="http://www.w3.org/2000/svg" version="1.1">
 <metadata>
  <rdf:RDF xmlns:dc="http://purl.org/dc/elements/1.1/" xmlns:cc="http://creativecommons.org/ns#" xmlns:rdf="http://www.w3.org/1999/02/22-rdf-syntax-ns#">
   <cc:Work>
    <dc:type rdf:resource="http://purl.org/dc/dcmitype/StillImage"/>
    <dc:date>2025-07-20T11:42:59.654510</dc:date>
    <dc:format>image/svg+xml</dc:format>
    <dc:creator>
     <cc:Agent>
      <dc:title>Matplotlib v3.8.0, https://matplotlib.org/</dc:title>
     </cc:Agent>
    </dc:creator>
   </cc:Work>
  </rdf:RDF>
 </metadata>
 <defs>
  <style type="text/css">*{stroke-linejoin: round; stroke-linecap: butt}</style>
 </defs>
 <g id="figure_1">
  <g id="patch_1">
   <path d="M 0 280.398125 
L 352.745 280.398125 
L 352.745 0 
L 0 0 
z
" style="fill: #ffffff"/>
  </g>
  <g id="axes_1">
   <g id="patch_2">
    <path d="M 29.425 254.02 
L 345.545 254.02 
L 345.545 7.2 
L 29.425 7.2 
z
" style="fill: #ffffff"/>
   </g>
   <g id="PathCollection_1">
    <defs>
     <path id="me767687904" d="M 0 3.162278 
C 0.838646 3.162278 1.643056 2.82908 2.236068 2.236068 
C 2.82908 1.643056 3.162278 0.838646 3.162278 0 
C 3.162278 -0.838646 2.82908 -1.643056 2.236068 -2.236068 
C 1.643056 -2.82908 0.838646 -3.162278 0 -3.162278 
C -0.838646 -3.162278 -1.643056 -2.82908 -2.236068 -2.236068 
C -2.82908 -1.643056 -3.162278 -0.838646 -3.162278 0 
C -3.162278 0.838646 -2.82908 1.643056 -2.236068 2.236068 
C -1.643056 2.82908 -0.838646 3.162278 0 3.162278 
z
" style="stroke: #333446; stroke-opacity: 0.7"/>
    </defs>
    <g clip-path="url(#pa8bb745b21)">
     <use xlink:href="#me767687904" x="324.011516" y="209.703935" style="fill: #eaefef; fill-opacity: 0.7; stroke: #333446; stroke-opacity: 0.7"/>
     <use xlink:href="#me767687904" x="234.695594" y="238.864533" style="fill: #eaefef; fill-opacity: 0.7; stroke: #333446; stroke-opacity: 0.7"/>
     <use xlink:href="#me767687904" x="234.905686" y="242.800909" style="fill: #eaefef; fill-opacity: 0.7; stroke: #333446; stroke-opacity: 0.7"/>
     <use xlink:href="#me767687904" x="312.815573" y="210.998836" style="fill: #eaefef; fill-opacity: 0.7; stroke: #333446; stroke-opacity: 0.7"/>
     <use xlink:href="#me767687904" x="265.038156" y="225.840972" style="fill: #eaefef; fill-opacity: 0.7; stroke: #333446; stroke-opacity: 0.7"/>
     <use xlink:href="#me767687904" x="237.946664" y="237.014126" style="fill: #eaefef; fill-opacity: 0.7; stroke: #333446; stroke-opacity: 0.7"/>
     <use xlink:href="#me767687904" x="326.822631" y="207.660158" style="fill: #eaefef; fill-opacity: 0.7; stroke: #333446; stroke-opacity: 0.7"/>
     <use xlink:href="#me767687904" x="259.217962" y="231.416479" style="fill: #eaefef; fill-opacity: 0.7; stroke: #333446; stroke-opacity: 0.7"/>
     <use xlink:href="#me767687904" x="306.217789" y="216.321553" style="fill: #eaefef; fill-opacity: 0.7; stroke: #333446; stroke-opacity: 0.7"/>
     <use xlink:href="#me767687904" x="303.324178" y="217.020317" style="fill: #eaefef; fill-opacity: 0.7; stroke: #333446; stroke-opacity: 0.7"/>
     <use xlink:href="#me767687904" x="321.668112" y="210.794953" style="fill: #eaefef; fill-opacity: 0.7; stroke: #333446; stroke-opacity: 0.7"/>
     <use xlink:href="#me767687904" x="291.391815" y="219.376661" style="fill: #eaefef; fill-opacity: 0.7; stroke: #333446; stroke-opacity: 0.7"/>
     <use xlink:href="#me767687904" x="306.232987" y="217.359233" style="fill: #eaefef; fill-opacity: 0.7; stroke: #333446; stroke-opacity: 0.7"/>
     <use xlink:href="#me767687904" x="259.350022" y="230.081477" style="fill: #eaefef; fill-opacity: 0.7; stroke: #333446; stroke-opacity: 0.7"/>
     <use xlink:href="#me767687904" x="250.141159" y="231.044369" style="fill: #eaefef; fill-opacity: 0.7; stroke: #333446; stroke-opacity: 0.7"/>
     <use xlink:href="#me767687904" x="323.1351" y="208.513034" style="fill: #eaefef; fill-opacity: 0.7; stroke: #333446; stroke-opacity: 0.7"/>
     <use xlink:href="#me767687904" x="268.584819" y="227.143418" style="fill: #eaefef; fill-opacity: 0.7; stroke: #333446; stroke-opacity: 0.7"/>
     <use xlink:href="#me767687904" x="331.175909" y="207.204028" style="fill: #eaefef; fill-opacity: 0.7; stroke: #333446; stroke-opacity: 0.7"/>
     <use xlink:href="#me767687904" x="296.029372" y="217.565519" style="fill: #eaefef; fill-opacity: 0.7; stroke: #333446; stroke-opacity: 0.7"/>
     <use xlink:href="#me767687904" x="291.161334" y="222.041129" style="fill: #eaefef; fill-opacity: 0.7; stroke: #333446; stroke-opacity: 0.7"/>
     <use xlink:href="#me767687904" x="232.045163" y="232.161876" style="fill: #eaefef; fill-opacity: 0.7; stroke: #333446; stroke-opacity: 0.7"/>
     <use xlink:href="#me767687904" x="329.385831" y="203.959139" style="fill: #eaefef; fill-opacity: 0.7; stroke: #333446; stroke-opacity: 0.7"/>
     <use xlink:href="#me767687904" x="271.129392" y="225.114784" style="fill: #eaefef; fill-opacity: 0.7; stroke: #333446; stroke-opacity: 0.7"/>
     <use xlink:href="#me767687904" x="286.111344" y="227.199427" style="fill: #eaefef; fill-opacity: 0.7; stroke: #333446; stroke-opacity: 0.7"/>
     <use xlink:href="#me767687904" x="266.257908" y="228.313238" style="fill: #eaefef; fill-opacity: 0.7; stroke: #333446; stroke-opacity: 0.7"/>
     <use xlink:href="#me767687904" x="162.5332" y="169.17594" style="fill: #eaefef; fill-opacity: 0.7; stroke: #333446; stroke-opacity: 0.7"/>
     <use xlink:href="#me767687904" x="253.72169" y="142.549448" style="fill: #eaefef; fill-opacity: 0.7; stroke: #333446; stroke-opacity: 0.7"/>
     <use xlink:href="#me767687904" x="187.526192" y="167.69595" style="fill: #eaefef; fill-opacity: 0.7; stroke: #333446; stroke-opacity: 0.7"/>
     <use xlink:href="#me767687904" x="254.47646" y="138.839112" style="fill: #eaefef; fill-opacity: 0.7; stroke: #333446; stroke-opacity: 0.7"/>
     <use xlink:href="#me767687904" x="205.587724" y="156.05548" style="fill: #eaefef; fill-opacity: 0.7; stroke: #333446; stroke-opacity: 0.7"/>
     <use xlink:href="#me767687904" x="261.057624" y="140.244355" style="fill: #eaefef; fill-opacity: 0.7; stroke: #333446; stroke-opacity: 0.7"/>
     <use xlink:href="#me767687904" x="247.481688" y="146.681886" style="fill: #eaefef; fill-opacity: 0.7; stroke: #333446; stroke-opacity: 0.7"/>
     <use xlink:href="#me767687904" x="225.222721" y="147.406276" style="fill: #eaefef; fill-opacity: 0.7; stroke: #333446; stroke-opacity: 0.7"/>
     <use xlink:href="#me767687904" x="176.27096" y="160.427919" style="fill: #eaefef; fill-opacity: 0.7; stroke: #333446; stroke-opacity: 0.7"/>
     <use xlink:href="#me767687904" x="167.345803" y="174.646968" style="fill: #eaefef; fill-opacity: 0.7; stroke: #333446; stroke-opacity: 0.7"/>
     <use xlink:href="#me767687904" x="174.508754" y="163.162534" style="fill: #eaefef; fill-opacity: 0.7; stroke: #333446; stroke-opacity: 0.7"/>
     <use xlink:href="#me767687904" x="165.553973" y="164.751279" style="fill: #eaefef; fill-opacity: 0.7; stroke: #333446; stroke-opacity: 0.7"/>
     <use xlink:href="#me767687904" x="172.893764" y="166.352974" style="fill: #eaefef; fill-opacity: 0.7; stroke: #333446; stroke-opacity: 0.7"/>
     <use xlink:href="#me767687904" x="186.679017" y="166.708777" style="fill: #eaefef; fill-opacity: 0.7; stroke: #333446; stroke-opacity: 0.7"/>
     <use xlink:href="#me767687904" x="243.501427" y="142.998134" style="fill: #eaefef; fill-opacity: 0.7; stroke: #333446; stroke-opacity: 0.7"/>
     <use xlink:href="#me767687904" x="225.628149" y="151.6417" style="fill: #eaefef; fill-opacity: 0.7; stroke: #333446; stroke-opacity: 0.7"/>
     <use xlink:href="#me767687904" x="161.822883" y="172.591476" style="fill: #eaefef; fill-opacity: 0.7; stroke: #333446; stroke-opacity: 0.7"/>
     <use xlink:href="#me767687904" x="168.751741" y="172.331041" style="fill: #eaefef; fill-opacity: 0.7; stroke: #333446; stroke-opacity: 0.7"/>
     <use xlink:href="#me767687904" x="273.154257" y="134.788883" style="fill: #eaefef; fill-opacity: 0.7; stroke: #333446; stroke-opacity: 0.7"/>
     <use xlink:href="#me767687904" x="226.60576" y="148.42133" style="fill: #eaefef; fill-opacity: 0.7; stroke: #333446; stroke-opacity: 0.7"/>
     <use xlink:href="#me767687904" x="184.065041" y="165.789292" style="fill: #eaefef; fill-opacity: 0.7; stroke: #333446; stroke-opacity: 0.7"/>
     <use xlink:href="#me767687904" x="189.782796" y="160.59602" style="fill: #eaefef; fill-opacity: 0.7; stroke: #333446; stroke-opacity: 0.7"/>
     <use xlink:href="#me767687904" x="247.097361" y="147.907078" style="fill: #eaefef; fill-opacity: 0.7; stroke: #333446; stroke-opacity: 0.7"/>
     <use xlink:href="#me767687904" x="183.148037" y="161.799453" style="fill: #eaefef; fill-opacity: 0.7; stroke: #333446; stroke-opacity: 0.7"/>
     <use xlink:href="#me767687904" x="228.151849" y="150.181314" style="fill: #eaefef; fill-opacity: 0.7; stroke: #333446; stroke-opacity: 0.7"/>
     <use xlink:href="#me767687904" x="132.756393" y="121.052454" style="fill: #eaefef; fill-opacity: 0.7; stroke: #333446; stroke-opacity: 0.7"/>
     <use xlink:href="#me767687904" x="109.744783" y="126.879389" style="fill: #eaefef; fill-opacity: 0.7; stroke: #333446; stroke-opacity: 0.7"/>
     <use xlink:href="#me767687904" x="187.770107" y="105.32468" style="fill: #eaefef; fill-opacity: 0.7; stroke: #333446; stroke-opacity: 0.7"/>
     <use xlink:href="#me767687904" x="192.0978" y="102.628241" style="fill: #eaefef; fill-opacity: 0.7; stroke: #333446; stroke-opacity: 0.7"/>
     <use xlink:href="#me767687904" x="207.914731" y="98.241634" style="fill: #eaefef; fill-opacity: 0.7; stroke: #333446; stroke-opacity: 0.7"/>
     <use xlink:href="#me767687904" x="210.731623" y="92.494959" style="fill: #eaefef; fill-opacity: 0.7; stroke: #333446; stroke-opacity: 0.7"/>
     <use xlink:href="#me767687904" x="103.679875" y="128.399959" style="fill: #eaefef; fill-opacity: 0.7; stroke: #333446; stroke-opacity: 0.7"/>
     <use xlink:href="#me767687904" x="129.382276" y="118.877415" style="fill: #eaefef; fill-opacity: 0.7; stroke: #333446; stroke-opacity: 0.7"/>
     <use xlink:href="#me767687904" x="173.976411" y="107.348182" style="fill: #eaefef; fill-opacity: 0.7; stroke: #333446; stroke-opacity: 0.7"/>
     <use xlink:href="#me767687904" x="212.719179" y="92.429657" style="fill: #eaefef; fill-opacity: 0.7; stroke: #333446; stroke-opacity: 0.7"/>
     <use xlink:href="#me767687904" x="212.854425" y="90.884315" style="fill: #eaefef; fill-opacity: 0.7; stroke: #333446; stroke-opacity: 0.7"/>
     <use xlink:href="#me767687904" x="166.965125" y="108.591166" style="fill: #eaefef; fill-opacity: 0.7; stroke: #333446; stroke-opacity: 0.7"/>
     <use xlink:href="#me767687904" x="208.823192" y="96.582455" style="fill: #eaefef; fill-opacity: 0.7; stroke: #333446; stroke-opacity: 0.7"/>
     <use xlink:href="#me767687904" x="176.86696" y="111.698747" style="fill: #eaefef; fill-opacity: 0.7; stroke: #333446; stroke-opacity: 0.7"/>
     <use xlink:href="#me767687904" x="147.532346" y="115.855736" style="fill: #eaefef; fill-opacity: 0.7; stroke: #333446; stroke-opacity: 0.7"/>
     <use xlink:href="#me767687904" x="158.725062" y="111.659105" style="fill: #eaefef; fill-opacity: 0.7; stroke: #333446; stroke-opacity: 0.7"/>
     <use xlink:href="#me767687904" x="172.522514" y="111.739675" style="fill: #eaefef; fill-opacity: 0.7; stroke: #333446; stroke-opacity: 0.7"/>
     <use xlink:href="#me767687904" x="166.136569" y="103.565015" style="fill: #eaefef; fill-opacity: 0.7; stroke: #333446; stroke-opacity: 0.7"/>
     <use xlink:href="#me767687904" x="210.056368" y="97.732078" style="fill: #eaefef; fill-opacity: 0.7; stroke: #333446; stroke-opacity: 0.7"/>
     <use xlink:href="#me767687904" x="209.187846" y="93.257134" style="fill: #eaefef; fill-opacity: 0.7; stroke: #333446; stroke-opacity: 0.7"/>
     <use xlink:href="#me767687904" x="148.099999" y="114.514082" style="fill: #eaefef; fill-opacity: 0.7; stroke: #333446; stroke-opacity: 0.7"/>
     <use xlink:href="#me767687904" x="214.380451" y="91.847902" style="fill: #eaefef; fill-opacity: 0.7; stroke: #333446; stroke-opacity: 0.7"/>
     <use xlink:href="#me767687904" x="122.338192" y="121.411392" style="fill: #eaefef; fill-opacity: 0.7; stroke: #333446; stroke-opacity: 0.7"/>
     <use xlink:href="#me767687904" x="116.784436" y="126.476733" style="fill: #eaefef; fill-opacity: 0.7; stroke: #333446; stroke-opacity: 0.7"/>
     <use xlink:href="#me767687904" x="117.804744" y="126.088273" style="fill: #eaefef; fill-opacity: 0.7; stroke: #333446; stroke-opacity: 0.7"/>
     <use xlink:href="#me767687904" x="92.746626" y="41.788712" style="fill: #eaefef; fill-opacity: 0.7; stroke: #333446; stroke-opacity: 0.7"/>
     <use xlink:href="#me767687904" x="122.934447" y="36.25337" style="fill: #eaefef; fill-opacity: 0.7; stroke: #333446; stroke-opacity: 0.7"/>
     <use xlink:href="#me767687904" x="150.866743" y="18.419091" style="fill: #eaefef; fill-opacity: 0.7; stroke: #333446; stroke-opacity: 0.7"/>
     <use xlink:href="#me767687904" x="43.794091" y="58.289623" style="fill: #eaefef; fill-opacity: 0.7; stroke: #333446; stroke-opacity: 0.7"/>
     <use xlink:href="#me767687904" x="157.648561" y="26.215355" style="fill: #eaefef; fill-opacity: 0.7; stroke: #333446; stroke-opacity: 0.7"/>
     <use xlink:href="#me767687904" x="87.660806" y="40.439061" style="fill: #eaefef; fill-opacity: 0.7; stroke: #333446; stroke-opacity: 0.7"/>
     <use xlink:href="#me767687904" x="157.301571" y="24.055776" style="fill: #eaefef; fill-opacity: 0.7; stroke: #333446; stroke-opacity: 0.7"/>
     <use xlink:href="#me767687904" x="114.264063" y="39.280822" style="fill: #eaefef; fill-opacity: 0.7; stroke: #333446; stroke-opacity: 0.7"/>
     <use xlink:href="#me767687904" x="140.400164" y="24.885772" style="fill: #eaefef; fill-opacity: 0.7; stroke: #333446; stroke-opacity: 0.7"/>
     <use xlink:href="#me767687904" x="110.765182" y="34.783995" style="fill: #eaefef; fill-opacity: 0.7; stroke: #333446; stroke-opacity: 0.7"/>
     <use xlink:href="#me767687904" x="116.988119" y="36.036804" style="fill: #eaefef; fill-opacity: 0.7; stroke: #333446; stroke-opacity: 0.7"/>
     <use xlink:href="#me767687904" x="77.048689" y="42.833789" style="fill: #eaefef; fill-opacity: 0.7; stroke: #333446; stroke-opacity: 0.7"/>
     <use xlink:href="#me767687904" x="112.178727" y="35.829541" style="fill: #eaefef; fill-opacity: 0.7; stroke: #333446; stroke-opacity: 0.7"/>
     <use xlink:href="#me767687904" x="131.208374" y="25.499607" style="fill: #eaefef; fill-opacity: 0.7; stroke: #333446; stroke-opacity: 0.7"/>
     <use xlink:href="#me767687904" x="143.836475" y="24.944169" style="fill: #eaefef; fill-opacity: 0.7; stroke: #333446; stroke-opacity: 0.7"/>
     <use xlink:href="#me767687904" x="131.798478" y="25.49187" style="fill: #eaefef; fill-opacity: 0.7; stroke: #333446; stroke-opacity: 0.7"/>
     <use xlink:href="#me767687904" x="125.148714" y="31.88778" style="fill: #eaefef; fill-opacity: 0.7; stroke: #333446; stroke-opacity: 0.7"/>
     <use xlink:href="#me767687904" x="144.555455" y="29.885649" style="fill: #eaefef; fill-opacity: 0.7; stroke: #333446; stroke-opacity: 0.7"/>
     <use xlink:href="#me767687904" x="81.375526" y="38.376155" style="fill: #eaefef; fill-opacity: 0.7; stroke: #333446; stroke-opacity: 0.7"/>
     <use xlink:href="#me767687904" x="121.968898" y="34.832582" style="fill: #eaefef; fill-opacity: 0.7; stroke: #333446; stroke-opacity: 0.7"/>
     <use xlink:href="#me767687904" x="96.324297" y="41.703126" style="fill: #eaefef; fill-opacity: 0.7; stroke: #333446; stroke-opacity: 0.7"/>
     <use xlink:href="#me767687904" x="88.304786" y="45.680339" style="fill: #eaefef; fill-opacity: 0.7; stroke: #333446; stroke-opacity: 0.7"/>
     <use xlink:href="#me767687904" x="91.652539" y="43.157867" style="fill: #eaefef; fill-opacity: 0.7; stroke: #333446; stroke-opacity: 0.7"/>
     <use xlink:href="#me767687904" x="90.564347" y="42.156432" style="fill: #eaefef; fill-opacity: 0.7; stroke: #333446; stroke-opacity: 0.7"/>
     <use xlink:href="#me767687904" x="80.757829" y="45.303836" style="fill: #eaefef; fill-opacity: 0.7; stroke: #333446; stroke-opacity: 0.7"/>
    </g>
   </g>
   <g id="matplotlib.axis_1">
    <g id="xtick_1">
     <g id="line2d_1">
      <defs>
       <path id="md64bbf6db4" d="M 0 0 
L 0 6 
" style="stroke: #000000; stroke-width: 0.5"/>
      </defs>
      <g>
       <use xlink:href="#md64bbf6db4" x="43.74721" y="254.02" style="stroke: #000000; stroke-width: 0.5"/>
      </g>
     </g>
     <g id="text_1">
      <!-- 0.0 -->
      <g transform="translate(35.795648 271.118437) scale(0.1 -0.1)">
       <defs>
        <path id="DejaVuSerif-30" d="M 2034 219 
Q 2513 219 2750 744 
Q 2988 1269 2988 2328 
Q 2988 3391 2750 3916 
Q 2513 4441 2034 4441 
Q 1556 4441 1318 3916 
Q 1081 3391 1081 2328 
Q 1081 1269 1318 744 
Q 1556 219 2034 219 
z
M 2034 -91 
Q 1275 -91 848 546 
Q 422 1184 422 2328 
Q 422 3475 848 4112 
Q 1275 4750 2034 4750 
Q 2797 4750 3222 4112 
Q 3647 3475 3647 2328 
Q 3647 1184 3222 546 
Q 2797 -91 2034 -91 
z
" transform="scale(0.015625)"/>
        <path id="DejaVuSerif-2e" d="M 603 325 
Q 603 500 722 622 
Q 841 744 1019 744 
Q 1191 744 1312 622 
Q 1434 500 1434 325 
Q 1434 153 1312 31 
Q 1191 -91 1019 -91 
Q 841 -91 722 29 
Q 603 150 603 325 
z
" transform="scale(0.015625)"/>
       </defs>
       <use xlink:href="#DejaVuSerif-30"/>
       <use xlink:href="#DejaVuSerif-2e" x="63.623047"/>
       <use xlink:href="#DejaVuSerif-30" x="95.410156"/>
      </g>
     </g>
    </g>
    <g id="xtick_2">
     <g id="line2d_2">
      <g>
       <use xlink:href="#md64bbf6db4" x="102.052961" y="254.02" style="stroke: #000000; stroke-width: 0.5"/>
      </g>
     </g>
     <g id="text_2">
      <!-- 0.2 -->
      <g transform="translate(94.101398 271.118437) scale(0.1 -0.1)">
       <defs>
        <path id="DejaVuSerif-32" d="M 819 3553 
L 469 3553 
L 469 4384 
Q 803 4563 1142 4656 
Q 1481 4750 1806 4750 
Q 2534 4750 2956 4397 
Q 3378 4044 3378 3438 
Q 3378 2753 2422 1800 
Q 2347 1728 2309 1691 
L 1131 513 
L 3078 513 
L 3078 1088 
L 3444 1088 
L 3444 0 
L 434 0 
L 434 341 
L 1850 1753 
Q 2319 2222 2519 2614 
Q 2719 3006 2719 3438 
Q 2719 3909 2473 4175 
Q 2228 4441 1797 4441 
Q 1350 4441 1106 4219 
Q 863 3997 819 3553 
z
" transform="scale(0.015625)"/>
       </defs>
       <use xlink:href="#DejaVuSerif-30"/>
       <use xlink:href="#DejaVuSerif-2e" x="63.623047"/>
       <use xlink:href="#DejaVuSerif-32" x="95.410156"/>
      </g>
     </g>
    </g>
    <g id="xtick_3">
     <g id="line2d_3">
      <g>
       <use xlink:href="#md64bbf6db4" x="160.358712" y="254.02" style="stroke: #000000; stroke-width: 0.5"/>
      </g>
     </g>
     <g id="text_3">
      <!-- 0.4 -->
      <g transform="translate(152.407149 271.118437) scale(0.1 -0.1)">
       <defs>
        <path id="DejaVuSerif-34" d="M 2234 1581 
L 2234 4063 
L 641 1581 
L 2234 1581 
z
M 3609 0 
L 1484 0 
L 1484 331 
L 2234 331 
L 2234 1247 
L 197 1247 
L 197 1588 
L 2241 4750 
L 2859 4750 
L 2859 1581 
L 3750 1581 
L 3750 1247 
L 2859 1247 
L 2859 331 
L 3609 331 
L 3609 0 
z
" transform="scale(0.015625)"/>
       </defs>
       <use xlink:href="#DejaVuSerif-30"/>
       <use xlink:href="#DejaVuSerif-2e" x="63.623047"/>
       <use xlink:href="#DejaVuSerif-34" x="95.410156"/>
      </g>
     </g>
    </g>
    <g id="xtick_4">
     <g id="line2d_4">
      <g>
       <use xlink:href="#md64bbf6db4" x="218.664462" y="254.02" style="stroke: #000000; stroke-width: 0.5"/>
      </g>
     </g>
     <g id="text_4">
      <!-- 0.6 -->
      <g transform="translate(210.7129 271.118437) scale(0.1 -0.1)">
       <defs>
        <path id="DejaVuSerif-36" d="M 2094 219 
Q 2534 219 2771 542 
Q 3009 866 3009 1472 
Q 3009 2078 2771 2401 
Q 2534 2725 2094 2725 
Q 1647 2725 1412 2412 
Q 1178 2100 1178 1509 
Q 1178 888 1415 553 
Q 1653 219 2094 219 
z
M 1075 2569 
Q 1288 2803 1556 2918 
Q 1825 3034 2163 3034 
Q 2859 3034 3264 2615 
Q 3669 2197 3669 1472 
Q 3669 763 3233 336 
Q 2797 -91 2069 -91 
Q 1278 -91 853 498 
Q 428 1088 428 2181 
Q 428 3406 931 4078 
Q 1434 4750 2350 4750 
Q 2597 4750 2869 4703 
Q 3141 4656 3425 4563 
L 3425 3794 
L 3072 3794 
Q 3034 4109 2831 4275 
Q 2628 4441 2284 4441 
Q 1678 4441 1381 3981 
Q 1084 3522 1075 2569 
z
" transform="scale(0.015625)"/>
       </defs>
       <use xlink:href="#DejaVuSerif-30"/>
       <use xlink:href="#DejaVuSerif-2e" x="63.623047"/>
       <use xlink:href="#DejaVuSerif-36" x="95.410156"/>
      </g>
     </g>
    </g>
    <g id="xtick_5">
     <g id="line2d_5">
      <g>
       <use xlink:href="#md64bbf6db4" x="276.970213" y="254.02" style="stroke: #000000; stroke-width: 0.5"/>
      </g>
     </g>
     <g id="text_5">
      <!-- 0.8 -->
      <g transform="translate(269.018651 271.118437) scale(0.1 -0.1)">
       <defs>
        <path id="DejaVuSerif-38" d="M 2981 1275 
Q 2981 1775 2732 2051 
Q 2484 2328 2034 2328 
Q 1584 2328 1336 2051 
Q 1088 1775 1088 1275 
Q 1088 772 1336 495 
Q 1584 219 2034 219 
Q 2484 219 2732 495 
Q 2981 772 2981 1275 
z
M 2853 3541 
Q 2853 3966 2637 4203 
Q 2422 4441 2034 4441 
Q 1650 4441 1433 4203 
Q 1216 3966 1216 3541 
Q 1216 3113 1433 2875 
Q 1650 2638 2034 2638 
Q 2422 2638 2637 2875 
Q 2853 3113 2853 3541 
z
M 2516 2484 
Q 3047 2413 3344 2092 
Q 3641 1772 3641 1275 
Q 3641 619 3225 264 
Q 2809 -91 2034 -91 
Q 1263 -91 845 264 
Q 428 619 428 1275 
Q 428 1772 725 2092 
Q 1022 2413 1556 2484 
Q 1084 2569 832 2842 
Q 581 3116 581 3541 
Q 581 4103 968 4426 
Q 1356 4750 2034 4750 
Q 2713 4750 3100 4426 
Q 3488 4103 3488 3541 
Q 3488 3116 3236 2842 
Q 2984 2569 2516 2484 
z
" transform="scale(0.015625)"/>
       </defs>
       <use xlink:href="#DejaVuSerif-30"/>
       <use xlink:href="#DejaVuSerif-2e" x="63.623047"/>
       <use xlink:href="#DejaVuSerif-38" x="95.410156"/>
      </g>
     </g>
    </g>
    <g id="xtick_6">
     <g id="line2d_6">
      <g>
       <use xlink:href="#md64bbf6db4" x="335.275964" y="254.02" style="stroke: #000000; stroke-width: 0.5"/>
      </g>
     </g>
     <g id="text_6">
      <!-- 1.0 -->
      <g transform="translate(327.324401 271.118437) scale(0.1 -0.1)">
       <defs>
        <path id="DejaVuSerif-31" d="M 909 0 
L 909 331 
L 1722 331 
L 1722 4213 
L 781 3603 
L 781 4013 
L 1919 4750 
L 2350 4750 
L 2350 331 
L 3163 331 
L 3163 0 
L 909 0 
z
" transform="scale(0.015625)"/>
       </defs>
       <use xlink:href="#DejaVuSerif-31"/>
       <use xlink:href="#DejaVuSerif-2e" x="63.623047"/>
       <use xlink:href="#DejaVuSerif-30" x="95.410156"/>
      </g>
     </g>
    </g>
   </g>
   <g id="matplotlib.axis_2">
    <g id="ytick_1">
     <g id="line2d_7">
      <defs>
       <path id="m7c8da177d0" d="M 0 0 
L -6 0 
" style="stroke: #000000; stroke-width: 0.5"/>
      </defs>
      <g>
       <use xlink:href="#m7c8da177d0" x="29.425" y="237.179253" style="stroke: #000000; stroke-width: 0.5"/>
      </g>
     </g>
     <g id="text_7">
      <!-- 4 -->
      <g transform="translate(13.5625 240.978472) scale(0.1 -0.1)">
       <use xlink:href="#DejaVuSerif-34"/>
      </g>
     </g>
    </g>
    <g id="ytick_2">
     <g id="line2d_8">
      <g>
       <use xlink:href="#m7c8da177d0" x="29.425" y="207.203608" style="stroke: #000000; stroke-width: 0.5"/>
      </g>
     </g>
     <g id="text_8">
      <!-- 5 -->
      <g transform="translate(13.5625 211.002826) scale(0.1 -0.1)">
       <defs>
        <path id="DejaVuSerif-35" d="M 3219 4666 
L 3219 4153 
L 1081 4153 
L 1081 2816 
Q 1244 2928 1461 2984 
Q 1678 3041 1947 3041 
Q 2703 3041 3140 2622 
Q 3578 2203 3578 1478 
Q 3578 738 3136 323 
Q 2694 -91 1894 -91 
Q 1572 -91 1234 -12 
Q 897 66 544 225 
L 544 1131 
L 897 1131 
Q 925 688 1179 453 
Q 1434 219 1894 219 
Q 2388 219 2653 544 
Q 2919 869 2919 1478 
Q 2919 2084 2655 2407 
Q 2391 2731 1894 2731 
Q 1613 2731 1398 2631 
Q 1184 2531 1019 2322 
L 750 2322 
L 750 4666 
L 3219 4666 
z
" transform="scale(0.015625)"/>
       </defs>
       <use xlink:href="#DejaVuSerif-35"/>
      </g>
     </g>
    </g>
    <g id="ytick_3">
     <g id="line2d_9">
      <g>
       <use xlink:href="#m7c8da177d0" x="29.425" y="177.227962" style="stroke: #000000; stroke-width: 0.5"/>
      </g>
     </g>
     <g id="text_9">
      <!-- 6 -->
      <g transform="translate(13.5625 181.027181) scale(0.1 -0.1)">
       <use xlink:href="#DejaVuSerif-36"/>
      </g>
     </g>
    </g>
    <g id="ytick_4">
     <g id="line2d_10">
      <g>
       <use xlink:href="#m7c8da177d0" x="29.425" y="147.252317" style="stroke: #000000; stroke-width: 0.5"/>
      </g>
     </g>
     <g id="text_10">
      <!-- 7 -->
      <g transform="translate(13.5625 151.051536) scale(0.1 -0.1)">
       <defs>
        <path id="DejaVuSerif-37" d="M 3609 4347 
L 1784 0 
L 1319 0 
L 3059 4153 
L 903 4153 
L 903 3578 
L 538 3578 
L 538 4666 
L 3609 4666 
L 3609 4347 
z
" transform="scale(0.015625)"/>
       </defs>
       <use xlink:href="#DejaVuSerif-37"/>
      </g>
     </g>
    </g>
    <g id="ytick_5">
     <g id="line2d_11">
      <g>
       <use xlink:href="#m7c8da177d0" x="29.425" y="117.276672" style="stroke: #000000; stroke-width: 0.5"/>
      </g>
     </g>
     <g id="text_11">
      <!-- 8 -->
      <g transform="translate(13.5625 121.07589) scale(0.1 -0.1)">
       <use xlink:href="#DejaVuSerif-38"/>
      </g>
     </g>
    </g>
    <g id="ytick_6">
     <g id="line2d_12">
      <g>
       <use xlink:href="#m7c8da177d0" x="29.425" y="87.301026" style="stroke: #000000; stroke-width: 0.5"/>
      </g>
     </g>
     <g id="text_12">
      <!-- 9 -->
      <g transform="translate(13.5625 91.100245) scale(0.1 -0.1)">
       <defs>
        <path id="DejaVuSerif-39" d="M 2994 2091 
Q 2784 1856 2512 1740 
Q 2241 1625 1900 1625 
Q 1206 1625 804 2044 
Q 403 2463 403 3188 
Q 403 3897 839 4323 
Q 1275 4750 2003 4750 
Q 2794 4750 3217 4161 
Q 3641 3572 3641 2478 
Q 3641 1253 3137 581 
Q 2634 -91 1722 -91 
Q 1475 -91 1203 -44 
Q 931 3 647 97 
L 647 872 
L 997 872 
Q 1038 556 1241 387 
Q 1444 219 1784 219 
Q 2391 219 2687 676 
Q 2984 1134 2994 2091 
z
M 1978 4441 
Q 1534 4441 1298 4117 
Q 1063 3794 1063 3188 
Q 1063 2581 1298 2256 
Q 1534 1931 1978 1931 
Q 2422 1931 2658 2245 
Q 2894 2559 2894 3150 
Q 2894 3772 2656 4106 
Q 2419 4441 1978 4441 
z
" transform="scale(0.015625)"/>
       </defs>
       <use xlink:href="#DejaVuSerif-39"/>
      </g>
     </g>
    </g>
    <g id="ytick_7">
     <g id="line2d_13">
      <g>
       <use xlink:href="#m7c8da177d0" x="29.425" y="57.325381" style="stroke: #000000; stroke-width: 0.5"/>
      </g>
     </g>
     <g id="text_13">
      <!-- 10 -->
      <g transform="translate(7.2 61.1246) scale(0.1 -0.1)">
       <use xlink:href="#DejaVuSerif-31"/>
       <use xlink:href="#DejaVuSerif-30" x="63.623047"/>
      </g>
     </g>
    </g>
    <g id="ytick_8">
     <g id="line2d_14">
      <g>
       <use xlink:href="#m7c8da177d0" x="29.425" y="27.349736" style="stroke: #000000; stroke-width: 0.5"/>
      </g>
     </g>
     <g id="text_14">
      <!-- 11 -->
      <g transform="translate(7.2 31.148954) scale(0.1 -0.1)">
       <use xlink:href="#DejaVuSerif-31"/>
       <use xlink:href="#DejaVuSerif-31" x="63.623047"/>
      </g>
     </g>
    </g>
   </g>
   <g id="patch_3">
    <path d="M 29.425 254.02 
L 29.425 7.2 
" style="fill: none; stroke: #000000; stroke-width: 0.5; stroke-linejoin: miter; stroke-linecap: square"/>
   </g>
   <g id="patch_4">
    <path d="M 29.425 254.02 
L 345.545 254.02 
" style="fill: none; stroke: #000000; stroke-width: 0.5; stroke-linejoin: miter; stroke-linecap: square"/>
   </g>
  </g>
 </g>
 <defs>
  <clipPath id="pa8bb745b21">
   <rect x="29.425" y="7.2" width="316.12" height="246.82"/>
  </clipPath>
 </defs>
</svg>
