<?xml version="1.0" encoding="utf-8" standalone="no"?>
<!DOCTYPE svg PUBLIC "-//W3C//DTD SVG 1.1//EN"
  "http://www.w3.org/Graphics/SVG/1.1/DTD/svg11.dtd">
<svg xmlns:xlink="http://www.w3.org/1999/xlink" width="352.081993pt" height="280.398125pt" viewBox="0 0 352.081993 280.398125" xmlns="http://www.w3.org/2000/svg" version="1.1">
 <metadata>
  <rdf:RDF xmlns:dc="http://purl.org/dc/elements/1.1/" xmlns:cc="http://creativecommons.org/ns#" xmlns:rdf="http://www.w3.org/1999/02/22-rdf-syntax-ns#">
   <cc:Work>
    <dc:type rdf:resource="http://purl.org/dc/dcmitype/StillImage"/>
    <dc:date>2025-08-02T19:54:06.046904</dc:date>
    <dc:format>image/svg+xml</dc:format>
    <dc:creator>
     <cc:Agent>
      <dc:title>Matplotlib v3.8.0, https://matplotlib.org/</dc:title>
     </cc:Agent>
    </dc:creator>
   </cc:Work>
  </rdf:RDF>
 </metadata>
 <defs>
  <style type="text/css">*{stroke-linejoin: round; stroke-linecap: butt}</style>
 </defs>
 <g id="figure_1">
  <g id="patch_1">
   <path d="M 0 280.398125 
L 352.081993 280.398125 
L 352.081993 0 
L 0 0 
z
" style="fill: #ffffff"/>
  </g>
  <g id="axes_1">
   <g id="patch_2">
    <path d="M 29.425 254.02 
L 343.545243 254.02 
L 343.545243 7.2 
L 29.425 7.2 
z
" style="fill: #ffffff"/>
   </g>
   <g id="PathCollection_1">
    <defs>
     <path id="mfd307d824b" d="M 0 3.162278 
C 0.838646 3.162278 1.643056 2.82908 2.236068 2.236068 
C 2.82908 1.643056 3.162278 0.838646 3.162278 0 
C 3.162278 -0.838646 2.82908 -1.643056 2.236068 -2.236068 
C 1.643056 -2.82908 0.838646 -3.162278 0 -3.162278 
C -0.838646 -3.162278 -1.643056 -2.82908 -2.236068 -2.236068 
C -2.82908 -1.643056 -3.162278 -0.838646 -3.162278 0 
C -3.162278 0.838646 -2.82908 1.643056 -2.236068 2.236068 
C -1.643056 2.82908 -0.838646 3.162278 0 3.162278 
z
" style="stroke: #333446; stroke-opacity: 0.7"/>
    </defs>
    <g clip-path="url(#p7b4095bceb)">
     <use xlink:href="#mfd307d824b" x="259.638496" y="231.643997" style="fill: #eaefef; fill-opacity: 0.7; stroke: #333446; stroke-opacity: 0.7"/>
     <use xlink:href="#mfd307d824b" x="306.877683" y="215.27621" style="fill: #eaefef; fill-opacity: 0.7; stroke: #333446; stroke-opacity: 0.7"/>
     <use xlink:href="#mfd307d824b" x="329.26705" y="210.081443" style="fill: #eaefef; fill-opacity: 0.7; stroke: #333446; stroke-opacity: 0.7"/>
     <use xlink:href="#mfd307d824b" x="319.878754" y="212.953168" style="fill: #eaefef; fill-opacity: 0.7; stroke: #333446; stroke-opacity: 0.7"/>
     <use xlink:href="#mfd307d824b" x="245.755048" y="237.354564" style="fill: #eaefef; fill-opacity: 0.7; stroke: #333446; stroke-opacity: 0.7"/>
     <use xlink:href="#mfd307d824b" x="264.359362" y="234.053085" style="fill: #eaefef; fill-opacity: 0.7; stroke: #333446; stroke-opacity: 0.7"/>
     <use xlink:href="#mfd307d824b" x="288.964378" y="222.794737" style="fill: #eaefef; fill-opacity: 0.7; stroke: #333446; stroke-opacity: 0.7"/>
     <use xlink:href="#mfd307d824b" x="280.974111" y="226.623548" style="fill: #eaefef; fill-opacity: 0.7; stroke: #333446; stroke-opacity: 0.7"/>
     <use xlink:href="#mfd307d824b" x="261.518859" y="230.064015" style="fill: #eaefef; fill-opacity: 0.7; stroke: #333446; stroke-opacity: 0.7"/>
     <use xlink:href="#mfd307d824b" x="225.974983" y="238.855025" style="fill: #eaefef; fill-opacity: 0.7; stroke: #333446; stroke-opacity: 0.7"/>
     <use xlink:href="#mfd307d824b" x="301.398776" y="219.424097" style="fill: #eaefef; fill-opacity: 0.7; stroke: #333446; stroke-opacity: 0.7"/>
     <use xlink:href="#mfd307d824b" x="224.334492" y="242.800909" style="fill: #eaefef; fill-opacity: 0.7; stroke: #333446; stroke-opacity: 0.7"/>
     <use xlink:href="#mfd307d824b" x="320.393837" y="210.82142" style="fill: #eaefef; fill-opacity: 0.7; stroke: #333446; stroke-opacity: 0.7"/>
     <use xlink:href="#mfd307d824b" x="320.069213" y="214.060133" style="fill: #eaefef; fill-opacity: 0.7; stroke: #333446; stroke-opacity: 0.7"/>
     <use xlink:href="#mfd307d824b" x="300.930296" y="220.211187" style="fill: #eaefef; fill-opacity: 0.7; stroke: #333446; stroke-opacity: 0.7"/>
     <use xlink:href="#mfd307d824b" x="273.514774" y="226.201616" style="fill: #eaefef; fill-opacity: 0.7; stroke: #333446; stroke-opacity: 0.7"/>
     <use xlink:href="#mfd307d824b" x="299.781422" y="216.823161" style="fill: #eaefef; fill-opacity: 0.7; stroke: #333446; stroke-opacity: 0.7"/>
     <use xlink:href="#mfd307d824b" x="262.224183" y="222.283644" style="fill: #eaefef; fill-opacity: 0.7; stroke: #333446; stroke-opacity: 0.7"/>
     <use xlink:href="#mfd307d824b" x="311.925486" y="209.325131" style="fill: #eaefef; fill-opacity: 0.7; stroke: #333446; stroke-opacity: 0.7"/>
     <use xlink:href="#mfd307d824b" x="310.557477" y="218.322688" style="fill: #eaefef; fill-opacity: 0.7; stroke: #333446; stroke-opacity: 0.7"/>
     <use xlink:href="#mfd307d824b" x="232.656148" y="241.13586" style="fill: #eaefef; fill-opacity: 0.7; stroke: #333446; stroke-opacity: 0.7"/>
     <use xlink:href="#mfd307d824b" x="252.695388" y="231.162153" style="fill: #eaefef; fill-opacity: 0.7; stroke: #333446; stroke-opacity: 0.7"/>
     <use xlink:href="#mfd307d824b" x="255.926287" y="228.751948" style="fill: #eaefef; fill-opacity: 0.7; stroke: #333446; stroke-opacity: 0.7"/>
     <use xlink:href="#mfd307d824b" x="258.418968" y="230.086562" style="fill: #eaefef; fill-opacity: 0.7; stroke: #333446; stroke-opacity: 0.7"/>
     <use xlink:href="#mfd307d824b" x="283.420362" y="215.93584" style="fill: #eaefef; fill-opacity: 0.7; stroke: #333446; stroke-opacity: 0.7"/>
     <use xlink:href="#mfd307d824b" x="231.559829" y="143.920698" style="fill: #eaefef; fill-opacity: 0.7; stroke: #333446; stroke-opacity: 0.7"/>
     <use xlink:href="#mfd307d824b" x="226.447908" y="152.485785" style="fill: #eaefef; fill-opacity: 0.7; stroke: #333446; stroke-opacity: 0.7"/>
     <use xlink:href="#mfd307d824b" x="169.63811" y="165.574693" style="fill: #eaefef; fill-opacity: 0.7; stroke: #333446; stroke-opacity: 0.7"/>
     <use xlink:href="#mfd307d824b" x="193.038229" y="161.319977" style="fill: #eaefef; fill-opacity: 0.7; stroke: #333446; stroke-opacity: 0.7"/>
     <use xlink:href="#mfd307d824b" x="208.56611" y="154.241046" style="fill: #eaefef; fill-opacity: 0.7; stroke: #333446; stroke-opacity: 0.7"/>
     <use xlink:href="#mfd307d824b" x="167.495552" y="163.363114" style="fill: #eaefef; fill-opacity: 0.7; stroke: #333446; stroke-opacity: 0.7"/>
     <use xlink:href="#mfd307d824b" x="196.544136" y="159.839544" style="fill: #eaefef; fill-opacity: 0.7; stroke: #333446; stroke-opacity: 0.7"/>
     <use xlink:href="#mfd307d824b" x="179.882938" y="161.154485" style="fill: #eaefef; fill-opacity: 0.7; stroke: #333446; stroke-opacity: 0.7"/>
     <use xlink:href="#mfd307d824b" x="256.360862" y="141.41646" style="fill: #eaefef; fill-opacity: 0.7; stroke: #333446; stroke-opacity: 0.7"/>
     <use xlink:href="#mfd307d824b" x="193.877088" y="157.827156" style="fill: #eaefef; fill-opacity: 0.7; stroke: #333446; stroke-opacity: 0.7"/>
     <use xlink:href="#mfd307d824b" x="179.715956" y="163.206474" style="fill: #eaefef; fill-opacity: 0.7; stroke: #333446; stroke-opacity: 0.7"/>
     <use xlink:href="#mfd307d824b" x="202.114025" y="158.238481" style="fill: #eaefef; fill-opacity: 0.7; stroke: #333446; stroke-opacity: 0.7"/>
     <use xlink:href="#mfd307d824b" x="236.056193" y="145.136148" style="fill: #eaefef; fill-opacity: 0.7; stroke: #333446; stroke-opacity: 0.7"/>
     <use xlink:href="#mfd307d824b" x="159.815215" y="168.497647" style="fill: #eaefef; fill-opacity: 0.7; stroke: #333446; stroke-opacity: 0.7"/>
     <use xlink:href="#mfd307d824b" x="174.028511" y="165.290081" style="fill: #eaefef; fill-opacity: 0.7; stroke: #333446; stroke-opacity: 0.7"/>
     <use xlink:href="#mfd307d824b" x="237.444451" y="147.480034" style="fill: #eaefef; fill-opacity: 0.7; stroke: #333446; stroke-opacity: 0.7"/>
     <use xlink:href="#mfd307d824b" x="244.600004" y="144.740345" style="fill: #eaefef; fill-opacity: 0.7; stroke: #333446; stroke-opacity: 0.7"/>
     <use xlink:href="#mfd307d824b" x="227.991824" y="151.421763" style="fill: #eaefef; fill-opacity: 0.7; stroke: #333446; stroke-opacity: 0.7"/>
     <use xlink:href="#mfd307d824b" x="260.274639" y="139.124836" style="fill: #eaefef; fill-opacity: 0.7; stroke: #333446; stroke-opacity: 0.7"/>
     <use xlink:href="#mfd307d824b" x="172.55553" y="170.493246" style="fill: #eaefef; fill-opacity: 0.7; stroke: #333446; stroke-opacity: 0.7"/>
     <use xlink:href="#mfd307d824b" x="238.585493" y="144.030451" style="fill: #eaefef; fill-opacity: 0.7; stroke: #333446; stroke-opacity: 0.7"/>
     <use xlink:href="#mfd307d824b" x="264.974438" y="138.726571" style="fill: #eaefef; fill-opacity: 0.7; stroke: #333446; stroke-opacity: 0.7"/>
     <use xlink:href="#mfd307d824b" x="170.325438" y="164.313186" style="fill: #eaefef; fill-opacity: 0.7; stroke: #333446; stroke-opacity: 0.7"/>
     <use xlink:href="#mfd307d824b" x="181.811966" y="161.230523" style="fill: #eaefef; fill-opacity: 0.7; stroke: #333446; stroke-opacity: 0.7"/>
     <use xlink:href="#mfd307d824b" x="219.216225" y="150.773913" style="fill: #eaefef; fill-opacity: 0.7; stroke: #333446; stroke-opacity: 0.7"/>
     <use xlink:href="#mfd307d824b" x="116.493994" y="124.555706" style="fill: #eaefef; fill-opacity: 0.7; stroke: #333446; stroke-opacity: 0.7"/>
     <use xlink:href="#mfd307d824b" x="197.181934" y="100.689207" style="fill: #eaefef; fill-opacity: 0.7; stroke: #333446; stroke-opacity: 0.7"/>
     <use xlink:href="#mfd307d824b" x="91.827493" y="125.827395" style="fill: #eaefef; fill-opacity: 0.7; stroke: #333446; stroke-opacity: 0.7"/>
     <use xlink:href="#mfd307d824b" x="103.030077" y="129.515257" style="fill: #eaefef; fill-opacity: 0.7; stroke: #333446; stroke-opacity: 0.7"/>
     <use xlink:href="#mfd307d824b" x="136.407974" y="115.921148" style="fill: #eaefef; fill-opacity: 0.7; stroke: #333446; stroke-opacity: 0.7"/>
     <use xlink:href="#mfd307d824b" x="139.622969" y="114.702724" style="fill: #eaefef; fill-opacity: 0.7; stroke: #333446; stroke-opacity: 0.7"/>
     <use xlink:href="#mfd307d824b" x="124.203705" y="115.605927" style="fill: #eaefef; fill-opacity: 0.7; stroke: #333446; stroke-opacity: 0.7"/>
     <use xlink:href="#mfd307d824b" x="101.834653" y="131.183942" style="fill: #eaefef; fill-opacity: 0.7; stroke: #333446; stroke-opacity: 0.7"/>
     <use xlink:href="#mfd307d824b" x="104.633596" y="124.201865" style="fill: #eaefef; fill-opacity: 0.7; stroke: #333446; stroke-opacity: 0.7"/>
     <use xlink:href="#mfd307d824b" x="129.232337" y="118.117305" style="fill: #eaefef; fill-opacity: 0.7; stroke: #333446; stroke-opacity: 0.7"/>
     <use xlink:href="#mfd307d824b" x="207.375632" y="95.046257" style="fill: #eaefef; fill-opacity: 0.7; stroke: #333446; stroke-opacity: 0.7"/>
     <use xlink:href="#mfd307d824b" x="115.583218" y="124.364569" style="fill: #eaefef; fill-opacity: 0.7; stroke: #333446; stroke-opacity: 0.7"/>
     <use xlink:href="#mfd307d824b" x="182.246159" y="106.247142" style="fill: #eaefef; fill-opacity: 0.7; stroke: #333446; stroke-opacity: 0.7"/>
     <use xlink:href="#mfd307d824b" x="121.853729" y="121.284501" style="fill: #eaefef; fill-opacity: 0.7; stroke: #333446; stroke-opacity: 0.7"/>
     <use xlink:href="#mfd307d824b" x="94.571294" y="128.5483" style="fill: #eaefef; fill-opacity: 0.7; stroke: #333446; stroke-opacity: 0.7"/>
     <use xlink:href="#mfd307d824b" x="91.95502" y="124.176132" style="fill: #eaefef; fill-opacity: 0.7; stroke: #333446; stroke-opacity: 0.7"/>
     <use xlink:href="#mfd307d824b" x="108.828852" y="123.350948" style="fill: #eaefef; fill-opacity: 0.7; stroke: #333446; stroke-opacity: 0.7"/>
     <use xlink:href="#mfd307d824b" x="147.030496" y="112.598679" style="fill: #eaefef; fill-opacity: 0.7; stroke: #333446; stroke-opacity: 0.7"/>
     <use xlink:href="#mfd307d824b" x="183.310642" y="99.958514" style="fill: #eaefef; fill-opacity: 0.7; stroke: #333446; stroke-opacity: 0.7"/>
     <use xlink:href="#mfd307d824b" x="179.966076" y="107.836104" style="fill: #eaefef; fill-opacity: 0.7; stroke: #333446; stroke-opacity: 0.7"/>
     <use xlink:href="#mfd307d824b" x="133.485524" y="114.360872" style="fill: #eaefef; fill-opacity: 0.7; stroke: #333446; stroke-opacity: 0.7"/>
     <use xlink:href="#mfd307d824b" x="149.136436" y="109.237733" style="fill: #eaefef; fill-opacity: 0.7; stroke: #333446; stroke-opacity: 0.7"/>
     <use xlink:href="#mfd307d824b" x="190.493729" y="97.247581" style="fill: #eaefef; fill-opacity: 0.7; stroke: #333446; stroke-opacity: 0.7"/>
     <use xlink:href="#mfd307d824b" x="193.497863" y="100.082029" style="fill: #eaefef; fill-opacity: 0.7; stroke: #333446; stroke-opacity: 0.7"/>
     <use xlink:href="#mfd307d824b" x="129.47583" y="121.378296" style="fill: #eaefef; fill-opacity: 0.7; stroke: #333446; stroke-opacity: 0.7"/>
     <use xlink:href="#mfd307d824b" x="101.597738" y="35.15364" style="fill: #eaefef; fill-opacity: 0.7; stroke: #333446; stroke-opacity: 0.7"/>
     <use xlink:href="#mfd307d824b" x="43.703193" y="51.929534" style="fill: #eaefef; fill-opacity: 0.7; stroke: #333446; stroke-opacity: 0.7"/>
     <use xlink:href="#mfd307d824b" x="125.209917" y="24.837793" style="fill: #eaefef; fill-opacity: 0.7; stroke: #333446; stroke-opacity: 0.7"/>
     <use xlink:href="#mfd307d824b" x="104.789401" y="35.328073" style="fill: #eaefef; fill-opacity: 0.7; stroke: #333446; stroke-opacity: 0.7"/>
     <use xlink:href="#mfd307d824b" x="104.200344" y="34.304591" style="fill: #eaefef; fill-opacity: 0.7; stroke: #333446; stroke-opacity: 0.7"/>
     <use xlink:href="#mfd307d824b" x="114.817838" y="34.692605" style="fill: #eaefef; fill-opacity: 0.7; stroke: #333446; stroke-opacity: 0.7"/>
     <use xlink:href="#mfd307d824b" x="150.129675" y="26.192663" style="fill: #eaefef; fill-opacity: 0.7; stroke: #333446; stroke-opacity: 0.7"/>
     <use xlink:href="#mfd307d824b" x="97.677303" y="37.406869" style="fill: #eaefef; fill-opacity: 0.7; stroke: #333446; stroke-opacity: 0.7"/>
     <use xlink:href="#mfd307d824b" x="134.970581" y="26.803634" style="fill: #eaefef; fill-opacity: 0.7; stroke: #333446; stroke-opacity: 0.7"/>
     <use xlink:href="#mfd307d824b" x="79.935161" y="41.929382" style="fill: #eaefef; fill-opacity: 0.7; stroke: #333446; stroke-opacity: 0.7"/>
     <use xlink:href="#mfd307d824b" x="109.046597" y="29.974988" style="fill: #eaefef; fill-opacity: 0.7; stroke: #333446; stroke-opacity: 0.7"/>
     <use xlink:href="#mfd307d824b" x="142.483637" y="21.937073" style="fill: #eaefef; fill-opacity: 0.7; stroke: #333446; stroke-opacity: 0.7"/>
     <use xlink:href="#mfd307d824b" x="110.242052" y="27.582888" style="fill: #eaefef; fill-opacity: 0.7; stroke: #333446; stroke-opacity: 0.7"/>
     <use xlink:href="#mfd307d824b" x="65.657559" y="43.621991" style="fill: #eaefef; fill-opacity: 0.7; stroke: #333446; stroke-opacity: 0.7"/>
     <use xlink:href="#mfd307d824b" x="104.783658" y="36.25048" style="fill: #eaefef; fill-opacity: 0.7; stroke: #333446; stroke-opacity: 0.7"/>
     <use xlink:href="#mfd307d824b" x="71.613884" y="46.941878" style="fill: #eaefef; fill-opacity: 0.7; stroke: #333446; stroke-opacity: 0.7"/>
     <use xlink:href="#mfd307d824b" x="68.038971" y="51.098618" style="fill: #eaefef; fill-opacity: 0.7; stroke: #333446; stroke-opacity: 0.7"/>
     <use xlink:href="#mfd307d824b" x="103.580897" y="31.165541" style="fill: #eaefef; fill-opacity: 0.7; stroke: #333446; stroke-opacity: 0.7"/>
     <use xlink:href="#mfd307d824b" x="48.030047" y="48.941174" style="fill: #eaefef; fill-opacity: 0.7; stroke: #333446; stroke-opacity: 0.7"/>
     <use xlink:href="#mfd307d824b" x="88.335453" y="38.687934" style="fill: #eaefef; fill-opacity: 0.7; stroke: #333446; stroke-opacity: 0.7"/>
     <use xlink:href="#mfd307d824b" x="144.999281" y="21.789292" style="fill: #eaefef; fill-opacity: 0.7; stroke: #333446; stroke-opacity: 0.7"/>
     <use xlink:href="#mfd307d824b" x="75.638788" y="44.096019" style="fill: #eaefef; fill-opacity: 0.7; stroke: #333446; stroke-opacity: 0.7"/>
     <use xlink:href="#mfd307d824b" x="51.5664" y="46.845579" style="fill: #eaefef; fill-opacity: 0.7; stroke: #333446; stroke-opacity: 0.7"/>
     <use xlink:href="#mfd307d824b" x="86.125185" y="39.064549" style="fill: #eaefef; fill-opacity: 0.7; stroke: #333446; stroke-opacity: 0.7"/>
     <use xlink:href="#mfd307d824b" x="132.067789" y="18.419091" style="fill: #eaefef; fill-opacity: 0.7; stroke: #333446; stroke-opacity: 0.7"/>
    </g>
   </g>
   <g id="matplotlib.axis_1">
    <g id="xtick_1">
     <g id="line2d_1">
      <defs>
       <path id="md23c337ed1" d="M 0 0 
L 0 6 
" style="stroke: #000000; stroke-width: 0.5"/>
      </defs>
      <g>
       <use xlink:href="#md23c337ed1" x="89.972913" y="254.02" style="stroke: #000000; stroke-width: 0.5"/>
      </g>
     </g>
     <g id="text_1">
      <!-- 0.2 -->
      <g transform="translate(82.02135 271.118437) scale(0.1 -0.1)">
       <defs>
        <path id="DejaVuSerif-30" d="M 2034 219 
Q 2513 219 2750 744 
Q 2988 1269 2988 2328 
Q 2988 3391 2750 3916 
Q 2513 4441 2034 4441 
Q 1556 4441 1318 3916 
Q 1081 3391 1081 2328 
Q 1081 1269 1318 744 
Q 1556 219 2034 219 
z
M 2034 -91 
Q 1275 -91 848 546 
Q 422 1184 422 2328 
Q 422 3475 848 4112 
Q 1275 4750 2034 4750 
Q 2797 4750 3222 4112 
Q 3647 3475 3647 2328 
Q 3647 1184 3222 546 
Q 2797 -91 2034 -91 
z
" transform="scale(0.015625)"/>
        <path id="DejaVuSerif-2e" d="M 603 325 
Q 603 500 722 622 
Q 841 744 1019 744 
Q 1191 744 1312 622 
Q 1434 500 1434 325 
Q 1434 153 1312 31 
Q 1191 -91 1019 -91 
Q 841 -91 722 29 
Q 603 150 603 325 
z
" transform="scale(0.015625)"/>
        <path id="DejaVuSerif-32" d="M 819 3553 
L 469 3553 
L 469 4384 
Q 803 4563 1142 4656 
Q 1481 4750 1806 4750 
Q 2534 4750 2956 4397 
Q 3378 4044 3378 3438 
Q 3378 2753 2422 1800 
Q 2347 1728 2309 1691 
L 1131 513 
L 3078 513 
L 3078 1088 
L 3444 1088 
L 3444 0 
L 434 0 
L 434 341 
L 1850 1753 
Q 2319 2222 2519 2614 
Q 2719 3006 2719 3438 
Q 2719 3909 2473 4175 
Q 2228 4441 1797 4441 
Q 1350 4441 1106 4219 
Q 863 3997 819 3553 
z
" transform="scale(0.015625)"/>
       </defs>
       <use xlink:href="#DejaVuSerif-30"/>
       <use xlink:href="#DejaVuSerif-2e" x="63.623047"/>
       <use xlink:href="#DejaVuSerif-32" x="95.410156"/>
      </g>
     </g>
    </g>
    <g id="xtick_2">
     <g id="line2d_2">
      <g>
       <use xlink:href="#md23c337ed1" x="151.712292" y="254.02" style="stroke: #000000; stroke-width: 0.5"/>
      </g>
     </g>
     <g id="text_2">
      <!-- 0.4 -->
      <g transform="translate(143.76073 271.118437) scale(0.1 -0.1)">
       <defs>
        <path id="DejaVuSerif-34" d="M 2234 1581 
L 2234 4063 
L 641 1581 
L 2234 1581 
z
M 3609 0 
L 1484 0 
L 1484 331 
L 2234 331 
L 2234 1247 
L 197 1247 
L 197 1588 
L 2241 4750 
L 2859 4750 
L 2859 1581 
L 3750 1581 
L 3750 1247 
L 2859 1247 
L 2859 331 
L 3609 331 
L 3609 0 
z
" transform="scale(0.015625)"/>
       </defs>
       <use xlink:href="#DejaVuSerif-30"/>
       <use xlink:href="#DejaVuSerif-2e" x="63.623047"/>
       <use xlink:href="#DejaVuSerif-34" x="95.410156"/>
      </g>
     </g>
    </g>
    <g id="xtick_3">
     <g id="line2d_3">
      <g>
       <use xlink:href="#md23c337ed1" x="213.451672" y="254.02" style="stroke: #000000; stroke-width: 0.5"/>
      </g>
     </g>
     <g id="text_3">
      <!-- 0.6 -->
      <g transform="translate(205.500109 271.118437) scale(0.1 -0.1)">
       <defs>
        <path id="DejaVuSerif-36" d="M 2094 219 
Q 2534 219 2771 542 
Q 3009 866 3009 1472 
Q 3009 2078 2771 2401 
Q 2534 2725 2094 2725 
Q 1647 2725 1412 2412 
Q 1178 2100 1178 1509 
Q 1178 888 1415 553 
Q 1653 219 2094 219 
z
M 1075 2569 
Q 1288 2803 1556 2918 
Q 1825 3034 2163 3034 
Q 2859 3034 3264 2615 
Q 3669 2197 3669 1472 
Q 3669 763 3233 336 
Q 2797 -91 2069 -91 
Q 1278 -91 853 498 
Q 428 1088 428 2181 
Q 428 3406 931 4078 
Q 1434 4750 2350 4750 
Q 2597 4750 2869 4703 
Q 3141 4656 3425 4563 
L 3425 3794 
L 3072 3794 
Q 3034 4109 2831 4275 
Q 2628 4441 2284 4441 
Q 1678 4441 1381 3981 
Q 1084 3522 1075 2569 
z
" transform="scale(0.015625)"/>
       </defs>
       <use xlink:href="#DejaVuSerif-30"/>
       <use xlink:href="#DejaVuSerif-2e" x="63.623047"/>
       <use xlink:href="#DejaVuSerif-36" x="95.410156"/>
      </g>
     </g>
    </g>
    <g id="xtick_4">
     <g id="line2d_4">
      <g>
       <use xlink:href="#md23c337ed1" x="275.191051" y="254.02" style="stroke: #000000; stroke-width: 0.5"/>
      </g>
     </g>
     <g id="text_4">
      <!-- 0.8 -->
      <g transform="translate(267.239488 271.118437) scale(0.1 -0.1)">
       <defs>
        <path id="DejaVuSerif-38" d="M 2981 1275 
Q 2981 1775 2732 2051 
Q 2484 2328 2034 2328 
Q 1584 2328 1336 2051 
Q 1088 1775 1088 1275 
Q 1088 772 1336 495 
Q 1584 219 2034 219 
Q 2484 219 2732 495 
Q 2981 772 2981 1275 
z
M 2853 3541 
Q 2853 3966 2637 4203 
Q 2422 4441 2034 4441 
Q 1650 4441 1433 4203 
Q 1216 3966 1216 3541 
Q 1216 3113 1433 2875 
Q 1650 2638 2034 2638 
Q 2422 2638 2637 2875 
Q 2853 3113 2853 3541 
z
M 2516 2484 
Q 3047 2413 3344 2092 
Q 3641 1772 3641 1275 
Q 3641 619 3225 264 
Q 2809 -91 2034 -91 
Q 1263 -91 845 264 
Q 428 619 428 1275 
Q 428 1772 725 2092 
Q 1022 2413 1556 2484 
Q 1084 2569 832 2842 
Q 581 3116 581 3541 
Q 581 4103 968 4426 
Q 1356 4750 2034 4750 
Q 2713 4750 3100 4426 
Q 3488 4103 3488 3541 
Q 3488 3116 3236 2842 
Q 2984 2569 2516 2484 
z
" transform="scale(0.015625)"/>
       </defs>
       <use xlink:href="#DejaVuSerif-30"/>
       <use xlink:href="#DejaVuSerif-2e" x="63.623047"/>
       <use xlink:href="#DejaVuSerif-38" x="95.410156"/>
      </g>
     </g>
    </g>
    <g id="xtick_5">
     <g id="line2d_5">
      <g>
       <use xlink:href="#md23c337ed1" x="336.93043" y="254.02" style="stroke: #000000; stroke-width: 0.5"/>
      </g>
     </g>
     <g id="text_5">
      <!-- 1.0 -->
      <g transform="translate(328.978868 271.118437) scale(0.1 -0.1)">
       <defs>
        <path id="DejaVuSerif-31" d="M 909 0 
L 909 331 
L 1722 331 
L 1722 4213 
L 781 3603 
L 781 4013 
L 1919 4750 
L 2350 4750 
L 2350 331 
L 3163 331 
L 3163 0 
L 909 0 
z
" transform="scale(0.015625)"/>
       </defs>
       <use xlink:href="#DejaVuSerif-31"/>
       <use xlink:href="#DejaVuSerif-2e" x="63.623047"/>
       <use xlink:href="#DejaVuSerif-30" x="95.410156"/>
      </g>
     </g>
    </g>
   </g>
   <g id="matplotlib.axis_2">
    <g id="ytick_1">
     <g id="line2d_6">
      <defs>
       <path id="m00c5477aba" d="M 0 0 
L -6 0 
" style="stroke: #000000; stroke-width: 0.5"/>
      </defs>
      <g>
       <use xlink:href="#m00c5477aba" x="29.425" y="236.777695" style="stroke: #000000; stroke-width: 0.5"/>
      </g>
     </g>
     <g id="text_6">
      <!-- 4 -->
      <g transform="translate(13.5625 240.576914) scale(0.1 -0.1)">
       <use xlink:href="#DejaVuSerif-34"/>
      </g>
     </g>
    </g>
    <g id="ytick_2">
     <g id="line2d_7">
      <g>
       <use xlink:href="#m00c5477aba" x="29.425" y="206.884382" style="stroke: #000000; stroke-width: 0.5"/>
      </g>
     </g>
     <g id="text_7">
      <!-- 5 -->
      <g transform="translate(13.5625 210.683601) scale(0.1 -0.1)">
       <defs>
        <path id="DejaVuSerif-35" d="M 3219 4666 
L 3219 4153 
L 1081 4153 
L 1081 2816 
Q 1244 2928 1461 2984 
Q 1678 3041 1947 3041 
Q 2703 3041 3140 2622 
Q 3578 2203 3578 1478 
Q 3578 738 3136 323 
Q 2694 -91 1894 -91 
Q 1572 -91 1234 -12 
Q 897 66 544 225 
L 544 1131 
L 897 1131 
Q 925 688 1179 453 
Q 1434 219 1894 219 
Q 2388 219 2653 544 
Q 2919 869 2919 1478 
Q 2919 2084 2655 2407 
Q 2391 2731 1894 2731 
Q 1613 2731 1398 2631 
Q 1184 2531 1019 2322 
L 750 2322 
L 750 4666 
L 3219 4666 
z
" transform="scale(0.015625)"/>
       </defs>
       <use xlink:href="#DejaVuSerif-35"/>
      </g>
     </g>
    </g>
    <g id="ytick_3">
     <g id="line2d_8">
      <g>
       <use xlink:href="#m00c5477aba" x="29.425" y="176.991069" style="stroke: #000000; stroke-width: 0.5"/>
      </g>
     </g>
     <g id="text_8">
      <!-- 6 -->
      <g transform="translate(13.5625 180.790288) scale(0.1 -0.1)">
       <use xlink:href="#DejaVuSerif-36"/>
      </g>
     </g>
    </g>
    <g id="ytick_4">
     <g id="line2d_9">
      <g>
       <use xlink:href="#m00c5477aba" x="29.425" y="147.097756" style="stroke: #000000; stroke-width: 0.5"/>
      </g>
     </g>
     <g id="text_9">
      <!-- 7 -->
      <g transform="translate(13.5625 150.896975) scale(0.1 -0.1)">
       <defs>
        <path id="DejaVuSerif-37" d="M 3609 4347 
L 1784 0 
L 1319 0 
L 3059 4153 
L 903 4153 
L 903 3578 
L 538 3578 
L 538 4666 
L 3609 4666 
L 3609 4347 
z
" transform="scale(0.015625)"/>
       </defs>
       <use xlink:href="#DejaVuSerif-37"/>
      </g>
     </g>
    </g>
    <g id="ytick_5">
     <g id="line2d_10">
      <g>
       <use xlink:href="#m00c5477aba" x="29.425" y="117.204443" style="stroke: #000000; stroke-width: 0.5"/>
      </g>
     </g>
     <g id="text_10">
      <!-- 8 -->
      <g transform="translate(13.5625 121.003662) scale(0.1 -0.1)">
       <use xlink:href="#DejaVuSerif-38"/>
      </g>
     </g>
    </g>
    <g id="ytick_6">
     <g id="line2d_11">
      <g>
       <use xlink:href="#m00c5477aba" x="29.425" y="87.31113" style="stroke: #000000; stroke-width: 0.5"/>
      </g>
     </g>
     <g id="text_11">
      <!-- 9 -->
      <g transform="translate(13.5625 91.110349) scale(0.1 -0.1)">
       <defs>
        <path id="DejaVuSerif-39" d="M 2994 2091 
Q 2784 1856 2512 1740 
Q 2241 1625 1900 1625 
Q 1206 1625 804 2044 
Q 403 2463 403 3188 
Q 403 3897 839 4323 
Q 1275 4750 2003 4750 
Q 2794 4750 3217 4161 
Q 3641 3572 3641 2478 
Q 3641 1253 3137 581 
Q 2634 -91 1722 -91 
Q 1475 -91 1203 -44 
Q 931 3 647 97 
L 647 872 
L 997 872 
Q 1038 556 1241 387 
Q 1444 219 1784 219 
Q 2391 219 2687 676 
Q 2984 1134 2994 2091 
z
M 1978 4441 
Q 1534 4441 1298 4117 
Q 1063 3794 1063 3188 
Q 1063 2581 1298 2256 
Q 1534 1931 1978 1931 
Q 2422 1931 2658 2245 
Q 2894 2559 2894 3150 
Q 2894 3772 2656 4106 
Q 2419 4441 1978 4441 
z
" transform="scale(0.015625)"/>
       </defs>
       <use xlink:href="#DejaVuSerif-39"/>
      </g>
     </g>
    </g>
    <g id="ytick_7">
     <g id="line2d_12">
      <g>
       <use xlink:href="#m00c5477aba" x="29.425" y="57.417817" style="stroke: #000000; stroke-width: 0.5"/>
      </g>
     </g>
     <g id="text_12">
      <!-- 10 -->
      <g transform="translate(7.2 61.217036) scale(0.1 -0.1)">
       <use xlink:href="#DejaVuSerif-31"/>
       <use xlink:href="#DejaVuSerif-30" x="63.623047"/>
      </g>
     </g>
    </g>
    <g id="ytick_8">
     <g id="line2d_13">
      <g>
       <use xlink:href="#m00c5477aba" x="29.425" y="27.524504" style="stroke: #000000; stroke-width: 0.5"/>
      </g>
     </g>
     <g id="text_13">
      <!-- 11 -->
      <g transform="translate(7.2 31.323723) scale(0.1 -0.1)">
       <use xlink:href="#DejaVuSerif-31"/>
       <use xlink:href="#DejaVuSerif-31" x="63.623047"/>
      </g>
     </g>
    </g>
   </g>
   <g id="patch_3">
    <path d="M 29.425 254.02 
L 29.425 7.2 
" style="fill: none; stroke: #000000; stroke-width: 0.5; stroke-linejoin: miter; stroke-linecap: square"/>
   </g>
   <g id="patch_4">
    <path d="M 29.425 254.02 
L 343.545243 254.02 
" style="fill: none; stroke: #000000; stroke-width: 0.5; stroke-linejoin: miter; stroke-linecap: square"/>
   </g>
  </g>
 </g>
 <defs>
  <clipPath id="p7b4095bceb">
   <rect x="29.425" y="7.2" width="314.120243" height="246.82"/>
  </clipPath>
 </defs>
</svg>
