<?xml version="1.0" encoding="utf-8" standalone="no"?>
<!DOCTYPE svg PUBLIC "-//W3C//DTD SVG 1.1//EN"
  "http://www.w3.org/Graphics/SVG/1.1/DTD/svg11.dtd">
<svg xmlns:xlink="http://www.w3.org/1999/xlink" width="352.782187pt" height="280.398125pt" viewBox="0 0 352.782187 280.398125" xmlns="http://www.w3.org/2000/svg" version="1.1">
 <metadata>
  <rdf:RDF xmlns:dc="http://purl.org/dc/elements/1.1/" xmlns:cc="http://creativecommons.org/ns#" xmlns:rdf="http://www.w3.org/1999/02/22-rdf-syntax-ns#">
   <cc:Work>
    <dc:type rdf:resource="http://purl.org/dc/dcmitype/StillImage"/>
    <dc:date>2025-08-23T10:15:47.709319</dc:date>
    <dc:format>image/svg+xml</dc:format>
    <dc:creator>
     <cc:Agent>
      <dc:title>Matplotlib v3.8.0, https://matplotlib.org/</dc:title>
     </cc:Agent>
    </dc:creator>
   </cc:Work>
  </rdf:RDF>
 </metadata>
 <defs>
  <style type="text/css">*{stroke-linejoin: round; stroke-linecap: butt}</style>
 </defs>
 <g id="figure_1">
  <g id="patch_1">
   <path d="M 0 280.398125 
L 352.782187 280.398125 
L 352.782187 0 
L 0 0 
z
" style="fill: #ffffff"/>
  </g>
  <g id="axes_1">
   <g id="patch_2">
    <path d="M 31.442188 254.02 
L 345.582187 254.02 
L 345.582187 7.2 
L 31.442188 7.2 
z
" style="fill: #ffffff"/>
   </g>
   <g id="PathCollection_1">
    <defs>
     <path id="C0_0_a43908cfaf" d="M 0 3.162278 
C 0.838646 3.162278 1.643056 2.82908 2.236068 2.236068 
C 2.82908 1.643056 3.162278 0.838646 3.162278 -0 
C 3.162278 -0.838646 2.82908 -1.643056 2.236068 -2.236068 
C 1.643056 -2.82908 0.838646 -3.162278 0 -3.162278 
C -0.838646 -3.162278 -1.643056 -2.82908 -2.236068 -2.236068 
C -2.82908 -1.643056 -3.162278 -0.838646 -3.162278 0 
C -3.162278 0.838646 -2.82908 1.643056 -2.236068 2.236068 
C -1.643056 2.82908 -0.838646 3.162278 0 3.162278 
z
"/>
    </defs>
    <g clip-path="url(#p29cde07834)">
     <use xlink:href="#C0_0_a43908cfaf" x="330.919729" y="91.046476" style="fill: #f3f8fe; fill-opacity: 0.4; stroke: #000000; stroke-opacity: 0.4"/>
    </g>
    <g clip-path="url(#p29cde07834)">
     <use xlink:href="#C0_0_a43908cfaf" x="292.98483" y="93.956869" style="fill: #f6faff; fill-opacity: 0.4; stroke: #000000; stroke-opacity: 0.4"/>
    </g>
    <g clip-path="url(#p29cde07834)">
     <use xlink:href="#C0_0_a43908cfaf" x="145.411241" y="235.089039" style="fill: #084184; fill-opacity: 0.4; stroke: #000000; stroke-opacity: 0.4"/>
    </g>
    <g clip-path="url(#p29cde07834)">
     <use xlink:href="#C0_0_a43908cfaf" x="176.865163" y="144.711954" style="fill: #c8dcf0; fill-opacity: 0.4; stroke: #000000; stroke-opacity: 0.4"/>
    </g>
    <g clip-path="url(#p29cde07834)">
     <use xlink:href="#C0_0_a43908cfaf" x="69.163804" y="160.510947" style="fill: #3c8cc3; fill-opacity: 0.4; stroke: #000000; stroke-opacity: 0.4"/>
    </g>
    <g clip-path="url(#p29cde07834)">
     <use xlink:href="#C0_0_a43908cfaf" x="310.806242" y="33.746071" style="fill: #e7f1fa; fill-opacity: 0.4; stroke: #000000; stroke-opacity: 0.4"/>
    </g>
    <g clip-path="url(#p29cde07834)">
     <use xlink:href="#C0_0_a43908cfaf" x="319.170419" y="37.174489" style="fill: #e8f1fa; fill-opacity: 0.4; stroke: #000000; stroke-opacity: 0.4"/>
    </g>
    <g clip-path="url(#p29cde07834)">
     <use xlink:href="#C0_0_a43908cfaf" x="181.134403" y="149.0125" style="fill: #c7dbef; fill-opacity: 0.4; stroke: #000000; stroke-opacity: 0.4"/>
    </g>
    <g clip-path="url(#p29cde07834)">
     <use xlink:href="#C0_0_a43908cfaf" x="71.019361" y="179.708914" style="fill: #2272b6; fill-opacity: 0.4; stroke: #000000; stroke-opacity: 0.4"/>
    </g>
    <g clip-path="url(#p29cde07834)">
     <use xlink:href="#C0_0_a43908cfaf" x="166.927783" y="226.820004" style="fill: #1663aa; fill-opacity: 0.4; stroke: #000000; stroke-opacity: 0.4"/>
    </g>
    <g clip-path="url(#p29cde07834)">
     <use xlink:href="#C0_0_a43908cfaf" x="170.840709" y="150.902475" style="fill: #bdd7ec; fill-opacity: 0.4; stroke: #000000; stroke-opacity: 0.4"/>
    </g>
    <g clip-path="url(#p29cde07834)">
     <use xlink:href="#C0_0_a43908cfaf" x="313.71359" y="91.351725" style="fill: #f5fafe; fill-opacity: 0.4; stroke: #000000; stroke-opacity: 0.4"/>
    </g>
    <g clip-path="url(#p29cde07834)">
     <use xlink:href="#C0_0_a43908cfaf" x="285.272562" y="81.968473" style="fill: #f7fbff; fill-opacity: 0.4; stroke: #000000; stroke-opacity: 0.4"/>
    </g>
    <g clip-path="url(#p29cde07834)">
     <use xlink:href="#C0_0_a43908cfaf" x="188.456933" y="132.837381" style="fill: #d5e5f4; fill-opacity: 0.4; stroke: #000000; stroke-opacity: 0.4"/>
    </g>
    <g clip-path="url(#p29cde07834)">
     <use xlink:href="#C0_0_a43908cfaf" x="69.226399" y="147.170036" style="fill: #4f9bcb; fill-opacity: 0.4; stroke: #000000; stroke-opacity: 0.4"/>
    </g>
    <g clip-path="url(#p29cde07834)">
     <use xlink:href="#C0_0_a43908cfaf" x="306.230824" y="80.840116" style="fill: #f6faff; fill-opacity: 0.4; stroke: #000000; stroke-opacity: 0.4"/>
    </g>
    <g clip-path="url(#p29cde07834)">
     <use xlink:href="#C0_0_a43908cfaf" x="169.064602" y="169.317756" style="fill: #9fcae1; fill-opacity: 0.4; stroke: #000000; stroke-opacity: 0.4"/>
    </g>
    <g clip-path="url(#p29cde07834)">
     <use xlink:href="#C0_0_a43908cfaf" x="145.863096" y="229.703375" style="fill: #084f99; fill-opacity: 0.4; stroke: #000000; stroke-opacity: 0.4"/>
    </g>
    <g clip-path="url(#p29cde07834)">
     <use xlink:href="#C0_0_a43908cfaf" x="295.200396" y="90.870298" style="fill: #f7fbff; fill-opacity: 0.4; stroke: #000000; stroke-opacity: 0.4"/>
    </g>
    <g clip-path="url(#p29cde07834)">
     <use xlink:href="#C0_0_a43908cfaf" x="146.979176" y="229.790059" style="fill: #084f99; fill-opacity: 0.4; stroke: #000000; stroke-opacity: 0.4"/>
    </g>
    <g clip-path="url(#p29cde07834)">
     <use xlink:href="#C0_0_a43908cfaf" x="290.157336" y="29.927509" style="fill: #e6f0f9; fill-opacity: 0.4; stroke: #000000; stroke-opacity: 0.4"/>
    </g>
    <g clip-path="url(#p29cde07834)">
     <use xlink:href="#C0_0_a43908cfaf" x="97.901555" y="174.770175" style="fill: #4695c8; fill-opacity: 0.4; stroke: #000000; stroke-opacity: 0.4"/>
    </g>
    <g clip-path="url(#p29cde07834)">
     <use xlink:href="#C0_0_a43908cfaf" x="150.452431" y="236.165901" style="fill: #084285; fill-opacity: 0.4; stroke: #000000; stroke-opacity: 0.4"/>
    </g>
    <g clip-path="url(#p29cde07834)">
     <use xlink:href="#C0_0_a43908cfaf" x="177.099557" y="152.440799" style="fill: #bfd8ed; fill-opacity: 0.4; stroke: #000000; stroke-opacity: 0.4"/>
    </g>
    <g clip-path="url(#p29cde07834)">
     <use xlink:href="#C0_0_a43908cfaf" x="124.096046" y="220.290347" style="fill: #0a549e; fill-opacity: 0.4; stroke: #000000; stroke-opacity: 0.4"/>
    </g>
    <g clip-path="url(#p29cde07834)">
     <use xlink:href="#C0_0_a43908cfaf" x="321.953915" y="80.314322" style="fill: #f5f9fe; fill-opacity: 0.4; stroke: #000000; stroke-opacity: 0.4"/>
    </g>
    <g clip-path="url(#p29cde07834)">
     <use xlink:href="#C0_0_a43908cfaf" x="288.809603" y="82.580039" style="fill: #f7fbff; fill-opacity: 0.4; stroke: #000000; stroke-opacity: 0.4"/>
    </g>
    <g clip-path="url(#p29cde07834)">
     <use xlink:href="#C0_0_a43908cfaf" x="301.58469" y="34.809142" style="fill: #e9f2fa; fill-opacity: 0.4; stroke: #000000; stroke-opacity: 0.4"/>
    </g>
    <g clip-path="url(#p29cde07834)">
     <use xlink:href="#C0_0_a43908cfaf" x="162.970698" y="236.831717" style="fill: #08488e; fill-opacity: 0.4; stroke: #000000; stroke-opacity: 0.4"/>
    </g>
    <g clip-path="url(#p29cde07834)">
     <use xlink:href="#C0_0_a43908cfaf" x="166.089099" y="157.968999" style="fill: #afd1e7; fill-opacity: 0.4; stroke: #000000; stroke-opacity: 0.4"/>
    </g>
    <g clip-path="url(#p29cde07834)">
     <use xlink:href="#C0_0_a43908cfaf" x="173.773106" y="158.95557" style="fill: #b4d3e9; fill-opacity: 0.4; stroke: #000000; stroke-opacity: 0.4"/>
    </g>
    <g clip-path="url(#p29cde07834)">
     <use xlink:href="#C0_0_a43908cfaf" x="156.894463" y="229.437037" style="fill: #0c56a0; fill-opacity: 0.4; stroke: #000000; stroke-opacity: 0.4"/>
    </g>
    <g clip-path="url(#p29cde07834)">
     <use xlink:href="#C0_0_a43908cfaf" x="63.478749" y="159.117254" style="fill: #3888c1; fill-opacity: 0.4; stroke: #000000; stroke-opacity: 0.4"/>
    </g>
    <g clip-path="url(#p29cde07834)">
     <use xlink:href="#C0_0_a43908cfaf" x="322.518775" y="40.4593" style="fill: #eaf2fb; fill-opacity: 0.4; stroke: #000000; stroke-opacity: 0.4"/>
    </g>
    <g clip-path="url(#p29cde07834)">
     <use xlink:href="#C0_0_a43908cfaf" x="180.641969" y="151.478332" style="fill: #c3daee; fill-opacity: 0.4; stroke: #000000; stroke-opacity: 0.4"/>
    </g>
    <g clip-path="url(#p29cde07834)">
     <use xlink:href="#C0_0_a43908cfaf" x="296.340978" y="38.449046" style="fill: #ebf3fb; fill-opacity: 0.4; stroke: #000000; stroke-opacity: 0.4"/>
    </g>
    <g clip-path="url(#p29cde07834)">
     <use xlink:href="#C0_0_a43908cfaf" x="78.542999" y="156.398254" style="fill: #4e9acb; fill-opacity: 0.4; stroke: #000000; stroke-opacity: 0.4"/>
    </g>
    <g clip-path="url(#p29cde07834)">
     <use xlink:href="#C0_0_a43908cfaf" x="150.250039" y="242.800909" style="fill: #08306b; fill-opacity: 0.4; stroke: #000000; stroke-opacity: 0.4"/>
    </g>
    <g clip-path="url(#p29cde07834)">
     <use xlink:href="#C0_0_a43908cfaf" x="306.950158" y="36.805628" style="fill: #eaf2fb; fill-opacity: 0.4; stroke: #000000; stroke-opacity: 0.4"/>
    </g>
    <g clip-path="url(#p29cde07834)">
     <use xlink:href="#C0_0_a43908cfaf" x="184.920191" y="155.020964" style="fill: #c1d9ed; fill-opacity: 0.4; stroke: #000000; stroke-opacity: 0.4"/>
    </g>
    <g clip-path="url(#p29cde07834)">
     <use xlink:href="#C0_0_a43908cfaf" x="179.867868" y="150.88992" style="fill: #c3daee; fill-opacity: 0.4; stroke: #000000; stroke-opacity: 0.4"/>
    </g>
    <g clip-path="url(#p29cde07834)">
     <use xlink:href="#C0_0_a43908cfaf" x="144.37842" y="220.382351" style="fill: #1663aa; fill-opacity: 0.4; stroke: #000000; stroke-opacity: 0.4"/>
    </g>
    <g clip-path="url(#p29cde07834)">
     <use xlink:href="#C0_0_a43908cfaf" x="196.921876" y="147.431433" style="fill: #cde0f1; fill-opacity: 0.4; stroke: #000000; stroke-opacity: 0.4"/>
    </g>
    <g clip-path="url(#p29cde07834)">
     <use xlink:href="#C0_0_a43908cfaf" x="185.050354" y="149.731827" style="fill: #c7dcef; fill-opacity: 0.4; stroke: #000000; stroke-opacity: 0.4"/>
    </g>
    <g clip-path="url(#p29cde07834)">
     <use xlink:href="#C0_0_a43908cfaf" x="308.752131" y="87.398541" style="fill: #f6faff; fill-opacity: 0.4; stroke: #000000; stroke-opacity: 0.4"/>
    </g>
    <g clip-path="url(#p29cde07834)">
     <use xlink:href="#C0_0_a43908cfaf" x="286.488931" y="73.653972" style="fill: #f7fbff; fill-opacity: 0.4; stroke: #000000; stroke-opacity: 0.4"/>
    </g>
    <g clip-path="url(#p29cde07834)">
     <use xlink:href="#C0_0_a43908cfaf" x="170.921926" y="154.86618" style="fill: #b8d5ea; fill-opacity: 0.4; stroke: #000000; stroke-opacity: 0.4"/>
    </g>
    <g clip-path="url(#p29cde07834)">
     <use xlink:href="#C0_0_a43908cfaf" x="155.84576" y="240.405447" style="fill: #083979; fill-opacity: 0.4; stroke: #000000; stroke-opacity: 0.4"/>
    </g>
    <g clip-path="url(#p29cde07834)">
     <use xlink:href="#C0_0_a43908cfaf" x="303.740926" y="38.706777" style="fill: #eaf3fb; fill-opacity: 0.4; stroke: #000000; stroke-opacity: 0.4"/>
    </g>
    <g clip-path="url(#p29cde07834)">
     <use xlink:href="#C0_0_a43908cfaf" x="186.013905" y="144.176327" style="fill: #cddff1; fill-opacity: 0.4; stroke: #000000; stroke-opacity: 0.4"/>
    </g>
    <g clip-path="url(#p29cde07834)">
     <use xlink:href="#C0_0_a43908cfaf" x="152.557622" y="221.132382" style="fill: #1967ad; fill-opacity: 0.4; stroke: #000000; stroke-opacity: 0.4"/>
    </g>
    <g clip-path="url(#p29cde07834)">
     <use xlink:href="#C0_0_a43908cfaf" x="303.231532" y="85.76666" style="fill: #f7fbff; fill-opacity: 0.4; stroke: #000000; stroke-opacity: 0.4"/>
    </g>
    <g clip-path="url(#p29cde07834)">
     <use xlink:href="#C0_0_a43908cfaf" x="304.453082" y="39.163874" style="fill: #ebf3fb; fill-opacity: 0.4; stroke: #000000; stroke-opacity: 0.4"/>
    </g>
    <g clip-path="url(#p29cde07834)">
     <use xlink:href="#C0_0_a43908cfaf" x="68.782492" y="156.831846" style="fill: #4090c5; fill-opacity: 0.4; stroke: #000000; stroke-opacity: 0.4"/>
    </g>
    <g clip-path="url(#p29cde07834)">
     <use xlink:href="#C0_0_a43908cfaf" x="303.461927" y="38.783897" style="fill: #eaf3fb; fill-opacity: 0.4; stroke: #000000; stroke-opacity: 0.4"/>
    </g>
    <g clip-path="url(#p29cde07834)">
     <use xlink:href="#C0_0_a43908cfaf" x="296.276458" y="34.909378" style="fill: #e9f2fa; fill-opacity: 0.4; stroke: #000000; stroke-opacity: 0.4"/>
    </g>
    <g clip-path="url(#p29cde07834)">
     <use xlink:href="#C0_0_a43908cfaf" x="69.332554" y="162.808173" style="fill: #3989c1; fill-opacity: 0.4; stroke: #000000; stroke-opacity: 0.4"/>
    </g>
    <g clip-path="url(#p29cde07834)">
     <use xlink:href="#C0_0_a43908cfaf" x="326.06603" y="104.05211" style="fill: #f1f7fd; fill-opacity: 0.4; stroke: #000000; stroke-opacity: 0.4"/>
    </g>
    <g clip-path="url(#p29cde07834)">
     <use xlink:href="#C0_0_a43908cfaf" x="304.349271" y="91.608201" style="fill: #f6faff; fill-opacity: 0.4; stroke: #000000; stroke-opacity: 0.4"/>
    </g>
    <g clip-path="url(#p29cde07834)">
     <use xlink:href="#C0_0_a43908cfaf" x="327.238957" y="48.038626" style="fill: #edf4fc; fill-opacity: 0.4; stroke: #000000; stroke-opacity: 0.4"/>
    </g>
    <g clip-path="url(#p29cde07834)">
     <use xlink:href="#C0_0_a43908cfaf" x="50.057006" y="166.504908" style="fill: #1f6eb3; fill-opacity: 0.4; stroke: #000000; stroke-opacity: 0.4"/>
    </g>
    <g clip-path="url(#p29cde07834)">
     <use xlink:href="#C0_0_a43908cfaf" x="181.006616" y="159.131765" style="fill: #b8d5ea; fill-opacity: 0.4; stroke: #000000; stroke-opacity: 0.4"/>
    </g>
    <g clip-path="url(#p29cde07834)">
     <use xlink:href="#C0_0_a43908cfaf" x="156.606905" y="225.362326" style="fill: #1460a8; fill-opacity: 0.4; stroke: #000000; stroke-opacity: 0.4"/>
    </g>
    <g clip-path="url(#p29cde07834)">
     <use xlink:href="#C0_0_a43908cfaf" x="141.164908" y="227.067347" style="fill: #09529d; fill-opacity: 0.4; stroke: #000000; stroke-opacity: 0.4"/>
    </g>
    <g clip-path="url(#p29cde07834)">
     <use xlink:href="#C0_0_a43908cfaf" x="319.180982" y="27.811542" style="fill: #e3eef8; fill-opacity: 0.4; stroke: #000000; stroke-opacity: 0.4"/>
    </g>
    <g clip-path="url(#p29cde07834)">
     <use xlink:href="#C0_0_a43908cfaf" x="82.750067" y="151.751482" style="fill: #5ba3d0; fill-opacity: 0.4; stroke: #000000; stroke-opacity: 0.4"/>
    </g>
    <g clip-path="url(#p29cde07834)">
     <use xlink:href="#C0_0_a43908cfaf" x="301.806379" y="78.876446" style="fill: #f7fbff; fill-opacity: 0.4; stroke: #000000; stroke-opacity: 0.4"/>
    </g>
    <g clip-path="url(#p29cde07834)">
     <use xlink:href="#C0_0_a43908cfaf" x="156.282197" y="143.284933" style="fill: #bdd7ec; fill-opacity: 0.4; stroke: #000000; stroke-opacity: 0.4"/>
    </g>
    <g clip-path="url(#p29cde07834)">
     <use xlink:href="#C0_0_a43908cfaf" x="298.607443" y="89.661066" style="fill: #f7fbff; fill-opacity: 0.4; stroke: #000000; stroke-opacity: 0.4"/>
    </g>
    <g clip-path="url(#p29cde07834)">
     <use xlink:href="#C0_0_a43908cfaf" x="73.504723" y="164.344011" style="fill: #3c8cc3; fill-opacity: 0.4; stroke: #000000; stroke-opacity: 0.4"/>
    </g>
    <g clip-path="url(#p29cde07834)">
     <use xlink:href="#C0_0_a43908cfaf" x="304.047088" y="101.929482" style="fill: #f4f9fe; fill-opacity: 0.4; stroke: #000000; stroke-opacity: 0.4"/>
    </g>
    <g clip-path="url(#p29cde07834)">
     <use xlink:href="#C0_0_a43908cfaf" x="290.397287" y="22.742375" style="fill: #e1edf8; fill-opacity: 0.4; stroke: #000000; stroke-opacity: 0.4"/>
    </g>
    <g clip-path="url(#p29cde07834)">
     <use xlink:href="#C0_0_a43908cfaf" x="141.893215" y="224.537866" style="fill: #0e58a2; fill-opacity: 0.4; stroke: #000000; stroke-opacity: 0.4"/>
    </g>
    <g clip-path="url(#p29cde07834)">
     <use xlink:href="#C0_0_a43908cfaf" x="161.452536" y="237.575124" style="fill: #08458a; fill-opacity: 0.4; stroke: #000000; stroke-opacity: 0.4"/>
    </g>
    <g clip-path="url(#p29cde07834)">
     <use xlink:href="#C0_0_a43908cfaf" x="131.06644" y="227.55991" style="fill: #084990; fill-opacity: 0.4; stroke: #000000; stroke-opacity: 0.4"/>
    </g>
    <g clip-path="url(#p29cde07834)">
     <use xlink:href="#C0_0_a43908cfaf" x="73.855665" y="166.100388" style="fill: #3a8ac2; fill-opacity: 0.4; stroke: #000000; stroke-opacity: 0.4"/>
    </g>
    <g clip-path="url(#p29cde07834)">
     <use xlink:href="#C0_0_a43908cfaf" x="55.636608" y="153.858529" style="fill: #3686c0; fill-opacity: 0.4; stroke: #000000; stroke-opacity: 0.4"/>
    </g>
    <g clip-path="url(#p29cde07834)">
     <use xlink:href="#C0_0_a43908cfaf" x="295.478628" y="18.419091" style="fill: #ddeaf7; fill-opacity: 0.4; stroke: #000000; stroke-opacity: 0.4"/>
    </g>
    <g clip-path="url(#p29cde07834)">
     <use xlink:href="#C0_0_a43908cfaf" x="69.789638" y="157.732902" style="fill: #4090c5; fill-opacity: 0.4; stroke: #000000; stroke-opacity: 0.4"/>
    </g>
    <g clip-path="url(#p29cde07834)">
     <use xlink:href="#C0_0_a43908cfaf" x="174.641583" y="145.218462" style="fill: #c7dcef; fill-opacity: 0.4; stroke: #000000; stroke-opacity: 0.4"/>
    </g>
    <g clip-path="url(#p29cde07834)">
     <use xlink:href="#C0_0_a43908cfaf" x="302.662845" y="87.183824" style="fill: #f7fbff; fill-opacity: 0.4; stroke: #000000; stroke-opacity: 0.4"/>
    </g>
    <g clip-path="url(#p29cde07834)">
     <use xlink:href="#C0_0_a43908cfaf" x="331.303097" y="37.786037" style="fill: #e7f0fa; fill-opacity: 0.4; stroke: #000000; stroke-opacity: 0.4"/>
    </g>
    <g clip-path="url(#p29cde07834)">
     <use xlink:href="#C0_0_a43908cfaf" x="135.065912" y="228.710539" style="fill: #084990; fill-opacity: 0.4; stroke: #000000; stroke-opacity: 0.4"/>
    </g>
    <g clip-path="url(#p29cde07834)">
     <use xlink:href="#C0_0_a43908cfaf" x="45.721278" y="167.729307" style="fill: #1967ad; fill-opacity: 0.4; stroke: #000000; stroke-opacity: 0.4"/>
    </g>
    <g clip-path="url(#p29cde07834)">
     <use xlink:href="#C0_0_a43908cfaf" x="155.83956" y="145.75395" style="fill: #b9d6ea; fill-opacity: 0.4; stroke: #000000; stroke-opacity: 0.4"/>
    </g>
    <g clip-path="url(#p29cde07834)">
     <use xlink:href="#C0_0_a43908cfaf" x="62.079827" y="157.212248" style="fill: #3989c1; fill-opacity: 0.4; stroke: #000000; stroke-opacity: 0.4"/>
    </g>
    <g clip-path="url(#p29cde07834)">
     <use xlink:href="#C0_0_a43908cfaf" x="171.561305" y="151.039091" style="fill: #bed8ec; fill-opacity: 0.4; stroke: #000000; stroke-opacity: 0.4"/>
    </g>
    <g clip-path="url(#p29cde07834)">
     <use xlink:href="#C0_0_a43908cfaf" x="276.278355" y="86.609124" style="fill: #f7fbff; fill-opacity: 0.4; stroke: #000000; stroke-opacity: 0.4"/>
    </g>
    <g clip-path="url(#p29cde07834)">
     <use xlink:href="#C0_0_a43908cfaf" x="296.569938" y="31.877733" style="fill: #e7f1fa; fill-opacity: 0.4; stroke: #000000; stroke-opacity: 0.4"/>
    </g>
    <g clip-path="url(#p29cde07834)">
     <use xlink:href="#C0_0_a43908cfaf" x="306.826611" y="27.177563" style="fill: #e3eef9; fill-opacity: 0.4; stroke: #000000; stroke-opacity: 0.4"/>
    </g>
    <g clip-path="url(#p29cde07834)">
     <use xlink:href="#C0_0_a43908cfaf" x="70.797042" y="166.527854" style="fill: #3686c0; fill-opacity: 0.4; stroke: #000000; stroke-opacity: 0.4"/>
    </g>
    <g clip-path="url(#p29cde07834)">
     <use xlink:href="#C0_0_a43908cfaf" x="302.368599" y="27.591632" style="fill: #e4eff9; fill-opacity: 0.4; stroke: #000000; stroke-opacity: 0.4"/>
    </g>
    <g clip-path="url(#p29cde07834)">
     <use xlink:href="#C0_0_a43908cfaf" x="63.285624" y="165.332117" style="fill: #3080bd; fill-opacity: 0.4; stroke: #000000; stroke-opacity: 0.4"/>
    </g>
    <g clip-path="url(#p29cde07834)">
     <use xlink:href="#C0_0_a43908cfaf" x="311.253597" y="86.167546" style="fill: #f6faff; fill-opacity: 0.4; stroke: #000000; stroke-opacity: 0.4"/>
    </g>
    <g clip-path="url(#p29cde07834)">
     <use xlink:href="#C0_0_a43908cfaf" x="330.081002" y="25.920757" style="fill: #dfecf7; fill-opacity: 0.4; stroke: #000000; stroke-opacity: 0.4"/>
    </g>
    <g clip-path="url(#p29cde07834)">
     <use xlink:href="#C0_0_a43908cfaf" x="275.424525" y="102.981237" style="fill: #f5f9fe; fill-opacity: 0.4; stroke: #000000; stroke-opacity: 0.4"/>
    </g>
    <g clip-path="url(#p29cde07834)">
     <use xlink:href="#C0_0_a43908cfaf" x="68.209205" y="158.875884" style="fill: #3d8dc4; fill-opacity: 0.4; stroke: #000000; stroke-opacity: 0.4"/>
    </g>
    <g clip-path="url(#p29cde07834)">
     <use xlink:href="#C0_0_a43908cfaf" x="70.587397" y="156.761028" style="fill: #4292c6; fill-opacity: 0.4; stroke: #000000; stroke-opacity: 0.4"/>
    </g>
    <g clip-path="url(#p29cde07834)">
     <use xlink:href="#C0_0_a43908cfaf" x="168.041923" y="228.586034" style="fill: #135fa7; fill-opacity: 0.4; stroke: #000000; stroke-opacity: 0.4"/>
    </g>
    <g clip-path="url(#p29cde07834)">
     <use xlink:href="#C0_0_a43908cfaf" x="169.117792" y="214.520997" style="fill: #3181bd; fill-opacity: 0.4; stroke: #000000; stroke-opacity: 0.4"/>
    </g>
   </g>
   <g id="PathCollection_2">
    <defs>
     <path id="me024b0486d" d="M 0 3.162278 
C 0.838646 3.162278 1.643056 2.82908 2.236068 2.236068 
C 2.82908 1.643056 3.162278 0.838646 3.162278 0 
C 3.162278 -0.838646 2.82908 -1.643056 2.236068 -2.236068 
C 1.643056 -2.82908 0.838646 -3.162278 0 -3.162278 
C -0.838646 -3.162278 -1.643056 -2.82908 -2.236068 -2.236068 
C -2.82908 -1.643056 -3.162278 -0.838646 -3.162278 0 
C -3.162278 0.838646 -2.82908 1.643056 -2.236068 2.236068 
C -1.643056 2.82908 -0.838646 3.162278 0 3.162278 
z
" style="stroke: #000000; stroke-opacity: 0.6"/>
    </defs>
    <g clip-path="url(#p29cde07834)">
     <use xlink:href="#me024b0486d" x="285.272562" y="81.968473" style="fill: #c96868; fill-opacity: 0.6; stroke: #000000; stroke-opacity: 0.6"/>
    </g>
   </g>
   <g id="matplotlib.axis_1">
    <g id="xtick_1">
     <g id="line2d_1">
      <defs>
       <path id="m98e4b06151" d="M 0 0 
L 0 6 
" style="stroke: #000000; stroke-width: 0.5"/>
      </defs>
      <g>
       <use xlink:href="#m98e4b06151" x="66.416035" y="254.02" style="stroke: #000000; stroke-width: 0.5"/>
      </g>
     </g>
     <g id="text_1">
      <!-- −10 -->
      <g transform="translate(55.863691 271.118438) scale(0.1 -0.1)">
       <defs>
        <path id="DejaVuSerif-2212" d="M 678 2259 
L 4684 2259 
L 4684 1753 
L 678 1753 
L 678 2259 
z
" transform="scale(0.015625)"/>
        <path id="DejaVuSerif-31" d="M 909 0 
L 909 331 
L 1722 331 
L 1722 4213 
L 781 3603 
L 781 4013 
L 1919 4750 
L 2350 4750 
L 2350 331 
L 3163 331 
L 3163 0 
L 909 0 
z
" transform="scale(0.015625)"/>
        <path id="DejaVuSerif-30" d="M 2034 219 
Q 2513 219 2750 744 
Q 2988 1269 2988 2328 
Q 2988 3391 2750 3916 
Q 2513 4441 2034 4441 
Q 1556 4441 1318 3916 
Q 1081 3391 1081 2328 
Q 1081 1269 1318 744 
Q 1556 219 2034 219 
z
M 2034 -91 
Q 1275 -91 848 546 
Q 422 1184 422 2328 
Q 422 3475 848 4112 
Q 1275 4750 2034 4750 
Q 2797 4750 3222 4112 
Q 3647 3475 3647 2328 
Q 3647 1184 3222 546 
Q 2797 -91 2034 -91 
z
" transform="scale(0.015625)"/>
       </defs>
       <use xlink:href="#DejaVuSerif-2212"/>
       <use xlink:href="#DejaVuSerif-31" x="83.789062"/>
       <use xlink:href="#DejaVuSerif-30" x="147.412109"/>
      </g>
     </g>
    </g>
    <g id="xtick_2">
     <g id="line2d_2">
      <g>
       <use xlink:href="#m98e4b06151" x="123.919886" y="254.02" style="stroke: #000000; stroke-width: 0.5"/>
      </g>
     </g>
     <g id="text_2">
      <!-- −8 -->
      <g transform="translate(116.548792 271.118438) scale(0.1 -0.1)">
       <defs>
        <path id="DejaVuSerif-38" d="M 2981 1275 
Q 2981 1775 2732 2051 
Q 2484 2328 2034 2328 
Q 1584 2328 1336 2051 
Q 1088 1775 1088 1275 
Q 1088 772 1336 495 
Q 1584 219 2034 219 
Q 2484 219 2732 495 
Q 2981 772 2981 1275 
z
M 2853 3541 
Q 2853 3966 2637 4203 
Q 2422 4441 2034 4441 
Q 1650 4441 1433 4203 
Q 1216 3966 1216 3541 
Q 1216 3113 1433 2875 
Q 1650 2638 2034 2638 
Q 2422 2638 2637 2875 
Q 2853 3113 2853 3541 
z
M 2516 2484 
Q 3047 2413 3344 2092 
Q 3641 1772 3641 1275 
Q 3641 619 3225 264 
Q 2809 -91 2034 -91 
Q 1263 -91 845 264 
Q 428 619 428 1275 
Q 428 1772 725 2092 
Q 1022 2413 1556 2484 
Q 1084 2569 832 2842 
Q 581 3116 581 3541 
Q 581 4103 968 4426 
Q 1356 4750 2034 4750 
Q 2713 4750 3100 4426 
Q 3488 4103 3488 3541 
Q 3488 3116 3236 2842 
Q 2984 2569 2516 2484 
z
" transform="scale(0.015625)"/>
       </defs>
       <use xlink:href="#DejaVuSerif-2212"/>
       <use xlink:href="#DejaVuSerif-38" x="83.789062"/>
      </g>
     </g>
    </g>
    <g id="xtick_3">
     <g id="line2d_3">
      <g>
       <use xlink:href="#m98e4b06151" x="181.423737" y="254.02" style="stroke: #000000; stroke-width: 0.5"/>
      </g>
     </g>
     <g id="text_3">
      <!-- −6 -->
      <g transform="translate(174.052643 271.118438) scale(0.1 -0.1)">
       <defs>
        <path id="DejaVuSerif-36" d="M 2094 219 
Q 2534 219 2771 542 
Q 3009 866 3009 1472 
Q 3009 2078 2771 2401 
Q 2534 2725 2094 2725 
Q 1647 2725 1412 2412 
Q 1178 2100 1178 1509 
Q 1178 888 1415 553 
Q 1653 219 2094 219 
z
M 1075 2569 
Q 1288 2803 1556 2918 
Q 1825 3034 2163 3034 
Q 2859 3034 3264 2615 
Q 3669 2197 3669 1472 
Q 3669 763 3233 336 
Q 2797 -91 2069 -91 
Q 1278 -91 853 498 
Q 428 1088 428 2181 
Q 428 3406 931 4078 
Q 1434 4750 2350 4750 
Q 2597 4750 2869 4703 
Q 3141 4656 3425 4563 
L 3425 3794 
L 3072 3794 
Q 3034 4109 2831 4275 
Q 2628 4441 2284 4441 
Q 1678 4441 1381 3981 
Q 1084 3522 1075 2569 
z
" transform="scale(0.015625)"/>
       </defs>
       <use xlink:href="#DejaVuSerif-2212"/>
       <use xlink:href="#DejaVuSerif-36" x="83.789062"/>
      </g>
     </g>
    </g>
    <g id="xtick_4">
     <g id="line2d_4">
      <g>
       <use xlink:href="#m98e4b06151" x="238.927588" y="254.02" style="stroke: #000000; stroke-width: 0.5"/>
      </g>
     </g>
     <g id="text_4">
      <!-- −4 -->
      <g transform="translate(231.556494 271.118438) scale(0.1 -0.1)">
       <defs>
        <path id="DejaVuSerif-34" d="M 2234 1581 
L 2234 4063 
L 641 1581 
L 2234 1581 
z
M 3609 0 
L 1484 0 
L 1484 331 
L 2234 331 
L 2234 1247 
L 197 1247 
L 197 1588 
L 2241 4750 
L 2859 4750 
L 2859 1581 
L 3750 1581 
L 3750 1247 
L 2859 1247 
L 2859 331 
L 3609 331 
L 3609 0 
z
" transform="scale(0.015625)"/>
       </defs>
       <use xlink:href="#DejaVuSerif-2212"/>
       <use xlink:href="#DejaVuSerif-34" x="83.789062"/>
      </g>
     </g>
    </g>
    <g id="xtick_5">
     <g id="line2d_5">
      <g>
       <use xlink:href="#m98e4b06151" x="296.431439" y="254.02" style="stroke: #000000; stroke-width: 0.5"/>
      </g>
     </g>
     <g id="text_5">
      <!-- −2 -->
      <g transform="translate(289.060346 271.118438) scale(0.1 -0.1)">
       <defs>
        <path id="DejaVuSerif-32" d="M 819 3553 
L 469 3553 
L 469 4384 
Q 803 4563 1142 4656 
Q 1481 4750 1806 4750 
Q 2534 4750 2956 4397 
Q 3378 4044 3378 3438 
Q 3378 2753 2422 1800 
Q 2347 1728 2309 1691 
L 1131 513 
L 3078 513 
L 3078 1088 
L 3444 1088 
L 3444 0 
L 434 0 
L 434 341 
L 1850 1753 
Q 2319 2222 2519 2614 
Q 2719 3006 2719 3438 
Q 2719 3909 2473 4175 
Q 2228 4441 1797 4441 
Q 1350 4441 1106 4219 
Q 863 3997 819 3553 
z
" transform="scale(0.015625)"/>
       </defs>
       <use xlink:href="#DejaVuSerif-2212"/>
       <use xlink:href="#DejaVuSerif-32" x="83.789062"/>
      </g>
     </g>
    </g>
   </g>
   <g id="matplotlib.axis_2">
    <g id="ytick_1">
     <g id="line2d_6">
      <defs>
       <path id="m421e6d4fe3" d="M 0 0 
L -6 0 
" style="stroke: #000000; stroke-width: 0.5"/>
      </defs>
      <g>
       <use xlink:href="#m421e6d4fe3" x="31.442188" y="227.628605" style="stroke: #000000; stroke-width: 0.5"/>
      </g>
     </g>
     <g id="text_6">
      <!-- −8 -->
      <g transform="translate(7.2 231.427824) scale(0.1 -0.1)">
       <use xlink:href="#DejaVuSerif-2212"/>
       <use xlink:href="#DejaVuSerif-38" x="83.789062"/>
      </g>
     </g>
    </g>
    <g id="ytick_2">
     <g id="line2d_7">
      <g>
       <use xlink:href="#m421e6d4fe3" x="31.442188" y="196.056285" style="stroke: #000000; stroke-width: 0.5"/>
      </g>
     </g>
     <g id="text_7">
      <!-- −6 -->
      <g transform="translate(7.2 199.855504) scale(0.1 -0.1)">
       <use xlink:href="#DejaVuSerif-2212"/>
       <use xlink:href="#DejaVuSerif-36" x="83.789062"/>
      </g>
     </g>
    </g>
    <g id="ytick_3">
     <g id="line2d_8">
      <g>
       <use xlink:href="#m421e6d4fe3" x="31.442188" y="164.483965" style="stroke: #000000; stroke-width: 0.5"/>
      </g>
     </g>
     <g id="text_8">
      <!-- −4 -->
      <g transform="translate(7.2 168.283184) scale(0.1 -0.1)">
       <use xlink:href="#DejaVuSerif-2212"/>
       <use xlink:href="#DejaVuSerif-34" x="83.789062"/>
      </g>
     </g>
    </g>
    <g id="ytick_4">
     <g id="line2d_9">
      <g>
       <use xlink:href="#m421e6d4fe3" x="31.442188" y="132.911645" style="stroke: #000000; stroke-width: 0.5"/>
      </g>
     </g>
     <g id="text_9">
      <!-- −2 -->
      <g transform="translate(7.2 136.710864) scale(0.1 -0.1)">
       <use xlink:href="#DejaVuSerif-2212"/>
       <use xlink:href="#DejaVuSerif-32" x="83.789062"/>
      </g>
     </g>
    </g>
    <g id="ytick_5">
     <g id="line2d_10">
      <g>
       <use xlink:href="#m421e6d4fe3" x="31.442188" y="101.339325" style="stroke: #000000; stroke-width: 0.5"/>
      </g>
     </g>
     <g id="text_10">
      <!-- 0 -->
      <g transform="translate(15.579688 105.138544) scale(0.1 -0.1)">
       <use xlink:href="#DejaVuSerif-30"/>
      </g>
     </g>
    </g>
    <g id="ytick_6">
     <g id="line2d_11">
      <g>
       <use xlink:href="#m421e6d4fe3" x="31.442188" y="69.767005" style="stroke: #000000; stroke-width: 0.5"/>
      </g>
     </g>
     <g id="text_11">
      <!-- 2 -->
      <g transform="translate(15.579688 73.566223) scale(0.1 -0.1)">
       <use xlink:href="#DejaVuSerif-32"/>
      </g>
     </g>
    </g>
    <g id="ytick_7">
     <g id="line2d_12">
      <g>
       <use xlink:href="#m421e6d4fe3" x="31.442188" y="38.194685" style="stroke: #000000; stroke-width: 0.5"/>
      </g>
     </g>
     <g id="text_12">
      <!-- 4 -->
      <g transform="translate(15.579688 41.993903) scale(0.1 -0.1)">
       <use xlink:href="#DejaVuSerif-34"/>
      </g>
     </g>
    </g>
   </g>
   <g id="patch_3">
    <path d="M 31.442188 254.02 
L 31.442188 7.2 
" style="fill: none; stroke: #000000; stroke-width: 0.5; stroke-linejoin: miter; stroke-linecap: square"/>
   </g>
   <g id="patch_4">
    <path d="M 345.582187 254.02 
L 345.582187 7.2 
" style="fill: none; stroke: #000000; stroke-width: 0.5; stroke-linejoin: miter; stroke-linecap: square"/>
   </g>
   <g id="patch_5">
    <path d="M 31.442187 254.02 
L 345.582187 254.02 
" style="fill: none; stroke: #000000; stroke-width: 0.5; stroke-linejoin: miter; stroke-linecap: square"/>
   </g>
   <g id="patch_6">
    <path d="M 31.442187 7.2 
L 345.582187 7.2 
" style="fill: none; stroke: #000000; stroke-width: 0.5; stroke-linejoin: miter; stroke-linecap: square"/>
   </g>
   <g id="legend_1">
    <g id="patch_7">
     <path d="M 38.442188 29.878125 
L 80.742188 29.878125 
Q 82.742188 29.878125 82.742188 27.878125 
L 82.742188 14.2 
Q 82.742188 12.2 80.742188 12.2 
L 38.442188 12.2 
Q 36.442188 12.2 36.442188 14.2 
L 36.442188 27.878125 
Q 36.442188 29.878125 38.442188 29.878125 
z
" style="fill: #ffffff; opacity: 0.8; stroke: #cccccc; stroke-linejoin: miter"/>
    </g>
    <g id="PathCollection_3">
     <g>
      <use xlink:href="#me024b0486d" x="50.442188" y="21.173438" style="fill: #c96868; fill-opacity: 0.6; stroke: #000000; stroke-opacity: 0.6"/>
     </g>
    </g>
    <g id="text_13">
     <!-- $c_1$ -->
     <g transform="translate(68.442188 23.798438) scale(0.1 -0.1)">
      <defs>
       <path id="DejaVuSans-Oblique-63" d="M 3431 3366 
L 3316 2797 
Q 3109 2947 2876 3022 
Q 2644 3097 2394 3097 
Q 2119 3097 1870 3000 
Q 1622 2903 1453 2725 
Q 1184 2453 1037 2087 
Q 891 1722 891 1331 
Q 891 859 1127 628 
Q 1363 397 1844 397 
Q 2081 397 2348 469 
Q 2616 541 2906 684 
L 2797 116 
Q 2547 13 2283 -39 
Q 2019 -91 1741 -91 
Q 1044 -91 669 257 
Q 294 606 294 1253 
Q 294 1797 489 2255 
Q 684 2713 1069 3078 
Q 1331 3328 1684 3456 
Q 2038 3584 2456 3584 
Q 2700 3584 2940 3529 
Q 3181 3475 3431 3366 
z
" transform="scale(0.015625)"/>
       <path id="DejaVuSans-31" d="M 794 531 
L 1825 531 
L 1825 4091 
L 703 3866 
L 703 4441 
L 1819 4666 
L 2450 4666 
L 2450 531 
L 3481 531 
L 3481 0 
L 794 0 
L 794 531 
z
" transform="scale(0.015625)"/>
      </defs>
      <use xlink:href="#DejaVuSans-Oblique-63"/>
      <use xlink:href="#DejaVuSans-31" transform="translate(54.980469 -16.40625) scale(0.7)"/>
     </g>
    </g>
   </g>
  </g>
 </g>
 <defs>
  <clipPath id="p29cde07834">
   <rect x="31.442188" y="7.2" width="314.14" height="246.82"/>
  </clipPath>
 </defs>
</svg>
