<?xml version="1.0" encoding="utf-8" standalone="no"?>
<!DOCTYPE svg PUBLIC "-//W3C//DTD SVG 1.1//EN"
  "http://www.w3.org/Graphics/SVG/1.1/DTD/svg11.dtd">
<svg xmlns:xlink="http://www.w3.org/1999/xlink" width="352.745pt" height="280.398125pt" viewBox="0 0 352.745 280.398125" xmlns="http://www.w3.org/2000/svg" version="1.1">
 <metadata>
  <rdf:RDF xmlns:dc="http://purl.org/dc/elements/1.1/" xmlns:cc="http://creativecommons.org/ns#" xmlns:rdf="http://www.w3.org/1999/02/22-rdf-syntax-ns#">
   <cc:Work>
    <dc:type rdf:resource="http://purl.org/dc/dcmitype/StillImage"/>
    <dc:date>2025-08-02T19:57:34.089682</dc:date>
    <dc:format>image/svg+xml</dc:format>
    <dc:creator>
     <cc:Agent>
      <dc:title>Matplotlib v3.8.0, https://matplotlib.org/</dc:title>
     </cc:Agent>
    </dc:creator>
   </cc:Work>
  </rdf:RDF>
 </metadata>
 <defs>
  <style type="text/css">*{stroke-linejoin: round; stroke-linecap: butt}</style>
 </defs>
 <g id="figure_1">
  <g id="patch_1">
   <path d="M 0 280.398125 
L 352.745 280.398125 
L 352.745 0 
L 0 0 
z
" style="fill: #ffffff"/>
  </g>
  <g id="axes_1">
   <g id="patch_2">
    <path d="M 29.425 254.02 
L 345.545 254.02 
L 345.545 7.2 
L 29.425 7.2 
z
" style="fill: #ffffff"/>
   </g>
   <g id="PathCollection_1">
    <defs>
     <path id="m89837ac02f" d="M 0 3.162278 
C 0.838646 3.162278 1.643056 2.82908 2.236068 2.236068 
C 2.82908 1.643056 3.162278 0.838646 3.162278 0 
C 3.162278 -0.838646 2.82908 -1.643056 2.236068 -2.236068 
C 1.643056 -2.82908 0.838646 -3.162278 0 -3.162278 
C -0.838646 -3.162278 -1.643056 -2.82908 -2.236068 -2.236068 
C -2.82908 -1.643056 -3.162278 -0.838646 -3.162278 0 
C -3.162278 0.838646 -2.82908 1.643056 -2.236068 2.236068 
C -1.643056 2.82908 -0.838646 3.162278 0 3.162278 
z
" style="stroke: #333446; stroke-opacity: 0.7"/>
    </defs>
    <g clip-path="url(#p6bce9f47f6)">
     <use xlink:href="#m89837ac02f" x="259.220872" y="227.154291" style="fill: #eaefef; fill-opacity: 0.7; stroke: #333446; stroke-opacity: 0.7"/>
     <use xlink:href="#m89837ac02f" x="303.198261" y="211.131147" style="fill: #eaefef; fill-opacity: 0.7; stroke: #333446; stroke-opacity: 0.7"/>
     <use xlink:href="#m89837ac02f" x="324.041674" y="206.045762" style="fill: #eaefef; fill-opacity: 0.7; stroke: #333446; stroke-opacity: 0.7"/>
     <use xlink:href="#m89837ac02f" x="315.301627" y="208.85702" style="fill: #eaefef; fill-opacity: 0.7; stroke: #333446; stroke-opacity: 0.7"/>
     <use xlink:href="#m89837ac02f" x="246.296056" y="232.744615" style="fill: #eaefef; fill-opacity: 0.7; stroke: #333446; stroke-opacity: 0.7"/>
     <use xlink:href="#m89837ac02f" x="263.615769" y="229.512653" style="fill: #eaefef; fill-opacity: 0.7; stroke: #333446; stroke-opacity: 0.7"/>
     <use xlink:href="#m89837ac02f" x="286.521844" y="218.491363" style="fill: #eaefef; fill-opacity: 0.7; stroke: #333446; stroke-opacity: 0.7"/>
     <use xlink:href="#m89837ac02f" x="279.083294" y="222.239554" style="fill: #eaefef; fill-opacity: 0.7; stroke: #333446; stroke-opacity: 0.7"/>
     <use xlink:href="#m89837ac02f" x="260.971398" y="225.607577" style="fill: #eaefef; fill-opacity: 0.7; stroke: #333446; stroke-opacity: 0.7"/>
     <use xlink:href="#m89837ac02f" x="227.881777" y="234.213482" style="fill: #eaefef; fill-opacity: 0.7; stroke: #333446; stroke-opacity: 0.7"/>
     <use xlink:href="#m89837ac02f" x="298.097665" y="215.191695" style="fill: #eaefef; fill-opacity: 0.7; stroke: #333446; stroke-opacity: 0.7"/>
     <use xlink:href="#m89837ac02f" x="226.354559" y="238.076281" style="fill: #eaefef; fill-opacity: 0.7; stroke: #333446; stroke-opacity: 0.7"/>
     <use xlink:href="#m89837ac02f" x="315.781144" y="206.770158" style="fill: #eaefef; fill-opacity: 0.7; stroke: #333446; stroke-opacity: 0.7"/>
     <use xlink:href="#m89837ac02f" x="315.478935" y="209.940676" style="fill: #eaefef; fill-opacity: 0.7; stroke: #333446; stroke-opacity: 0.7"/>
     <use xlink:href="#m89837ac02f" x="297.661532" y="215.962212" style="fill: #eaefef; fill-opacity: 0.7; stroke: #333446; stroke-opacity: 0.7"/>
     <use xlink:href="#m89837ac02f" x="272.139013" y="221.826506" style="fill: #eaefef; fill-opacity: 0.7; stroke: #333446; stroke-opacity: 0.7"/>
     <use xlink:href="#m89837ac02f" x="296.591986" y="212.645525" style="fill: #eaefef; fill-opacity: 0.7; stroke: #333446; stroke-opacity: 0.7"/>
     <use xlink:href="#m89837ac02f" x="261.628022" y="217.991031" style="fill: #eaefef; fill-opacity: 0.7; stroke: #333446; stroke-opacity: 0.7"/>
     <use xlink:href="#m89837ac02f" x="307.89752" y="205.305376" style="fill: #eaefef; fill-opacity: 0.7; stroke: #333446; stroke-opacity: 0.7"/>
     <use xlink:href="#m89837ac02f" x="306.62397" y="214.113478" style="fill: #eaefef; fill-opacity: 0.7; stroke: #333446; stroke-opacity: 0.7"/>
     <use xlink:href="#m89837ac02f" x="234.101617" y="236.446291" style="fill: #eaefef; fill-opacity: 0.7; stroke: #333446; stroke-opacity: 0.7"/>
     <use xlink:href="#m89837ac02f" x="252.757176" y="226.682593" style="fill: #eaefef; fill-opacity: 0.7; stroke: #333446; stroke-opacity: 0.7"/>
     <use xlink:href="#m89837ac02f" x="255.764986" y="224.323137" style="fill: #eaefef; fill-opacity: 0.7; stroke: #333446; stroke-opacity: 0.7"/>
     <use xlink:href="#m89837ac02f" x="258.085551" y="225.629649" style="fill: #eaefef; fill-opacity: 0.7; stroke: #333446; stroke-opacity: 0.7"/>
     <use xlink:href="#m89837ac02f" x="281.360634" y="211.776888" style="fill: #eaefef; fill-opacity: 0.7; stroke: #333446; stroke-opacity: 0.7"/>
     <use xlink:href="#m89837ac02f" x="233.080997" y="141.278111" style="fill: #eaefef; fill-opacity: 0.7; stroke: #333446; stroke-opacity: 0.7"/>
     <use xlink:href="#m89837ac02f" x="228.322047" y="149.66285" style="fill: #eaefef; fill-opacity: 0.7; stroke: #333446; stroke-opacity: 0.7"/>
     <use xlink:href="#m89837ac02f" x="175.434884" y="162.476156" style="fill: #eaefef; fill-opacity: 0.7; stroke: #333446; stroke-opacity: 0.7"/>
     <use xlink:href="#m89837ac02f" x="197.219258" y="158.311027" style="fill: #eaefef; fill-opacity: 0.7; stroke: #333446; stroke-opacity: 0.7"/>
     <use xlink:href="#m89837ac02f" x="211.674961" y="151.381152" style="fill: #eaefef; fill-opacity: 0.7; stroke: #333446; stroke-opacity: 0.7"/>
     <use xlink:href="#m89837ac02f" x="173.440267" y="160.311144" style="fill: #eaefef; fill-opacity: 0.7; stroke: #333446; stroke-opacity: 0.7"/>
     <use xlink:href="#m89837ac02f" x="200.483087" y="156.861767" style="fill: #eaefef; fill-opacity: 0.7; stroke: #333446; stroke-opacity: 0.7"/>
     <use xlink:href="#m89837ac02f" x="184.972321" y="158.14902" style="fill: #eaefef; fill-opacity: 0.7; stroke: #333446; stroke-opacity: 0.7"/>
     <use xlink:href="#m89837ac02f" x="256.169554" y="138.826603" style="fill: #eaefef; fill-opacity: 0.7; stroke: #333446; stroke-opacity: 0.7"/>
     <use xlink:href="#m89837ac02f" x="198.000195" y="154.891752" style="fill: #eaefef; fill-opacity: 0.7; stroke: #333446; stroke-opacity: 0.7"/>
     <use xlink:href="#m89837ac02f" x="184.816869" y="160.157802" style="fill: #eaefef; fill-opacity: 0.7; stroke: #333446; stroke-opacity: 0.7"/>
     <use xlink:href="#m89837ac02f" x="205.668384" y="155.294416" style="fill: #eaefef; fill-opacity: 0.7; stroke: #333446; stroke-opacity: 0.7"/>
     <use xlink:href="#m89837ac02f" x="237.266893" y="142.467969" style="fill: #eaefef; fill-opacity: 0.7; stroke: #333446; stroke-opacity: 0.7"/>
     <use xlink:href="#m89837ac02f" x="166.290246" y="165.337563" style="fill: #eaefef; fill-opacity: 0.7; stroke: #333446; stroke-opacity: 0.7"/>
     <use xlink:href="#m89837ac02f" x="179.522134" y="162.197536" style="fill: #eaefef; fill-opacity: 0.7; stroke: #333446; stroke-opacity: 0.7"/>
     <use xlink:href="#m89837ac02f" x="238.559294" y="144.762501" style="fill: #eaefef; fill-opacity: 0.7; stroke: #333446; stroke-opacity: 0.7"/>
     <use xlink:href="#m89837ac02f" x="245.220767" y="142.080499" style="fill: #eaefef; fill-opacity: 0.7; stroke: #333446; stroke-opacity: 0.7"/>
     <use xlink:href="#m89837ac02f" x="229.759357" y="148.621232" style="fill: #eaefef; fill-opacity: 0.7; stroke: #333446; stroke-opacity: 0.7"/>
     <use xlink:href="#m89837ac02f" x="259.813091" y="136.583232" style="fill: #eaefef; fill-opacity: 0.7; stroke: #333446; stroke-opacity: 0.7"/>
     <use xlink:href="#m89837ac02f" x="178.15086" y="167.291143" style="fill: #eaefef; fill-opacity: 0.7; stroke: #333446; stroke-opacity: 0.7"/>
     <use xlink:href="#m89837ac02f" x="239.621549" y="141.385553" style="fill: #eaefef; fill-opacity: 0.7; stroke: #333446; stroke-opacity: 0.7"/>
     <use xlink:href="#m89837ac02f" x="264.188375" y="136.193353" style="fill: #eaefef; fill-opacity: 0.7; stroke: #333446; stroke-opacity: 0.7"/>
     <use xlink:href="#m89837ac02f" x="176.074753" y="161.241211" style="fill: #eaefef; fill-opacity: 0.7; stroke: #333446; stroke-opacity: 0.7"/>
     <use xlink:href="#m89837ac02f" x="186.768152" y="158.223457" style="fill: #eaefef; fill-opacity: 0.7; stroke: #333446; stroke-opacity: 0.7"/>
     <use xlink:href="#m89837ac02f" x="221.589701" y="147.987024" style="fill: #eaefef; fill-opacity: 0.7; stroke: #333446; stroke-opacity: 0.7"/>
     <use xlink:href="#m89837ac02f" x="125.960293" y="122.320872" style="fill: #eaefef; fill-opacity: 0.7; stroke: #333446; stroke-opacity: 0.7"/>
     <use xlink:href="#m89837ac02f" x="201.076846" y="98.956911" style="fill: #eaefef; fill-opacity: 0.7; stroke: #333446; stroke-opacity: 0.7"/>
     <use xlink:href="#m89837ac02f" x="102.996978" y="123.565784" style="fill: #eaefef; fill-opacity: 0.7; stroke: #333446; stroke-opacity: 0.7"/>
     <use xlink:href="#m89837ac02f" x="113.42604" y="127.175994" style="fill: #eaefef; fill-opacity: 0.7; stroke: #333446; stroke-opacity: 0.7"/>
     <use xlink:href="#m89837ac02f" x="144.499241" y="113.868125" style="fill: #eaefef; fill-opacity: 0.7; stroke: #333446; stroke-opacity: 0.7"/>
     <use xlink:href="#m89837ac02f" x="147.492246" y="112.675357" style="fill: #eaefef; fill-opacity: 0.7; stroke: #333446; stroke-opacity: 0.7"/>
     <use xlink:href="#m89837ac02f" x="133.137659" y="113.559541" style="fill: #eaefef; fill-opacity: 0.7; stroke: #333446; stroke-opacity: 0.7"/>
     <use xlink:href="#m89837ac02f" x="112.313158" y="128.809543" style="fill: #eaefef; fill-opacity: 0.7; stroke: #333446; stroke-opacity: 0.7"/>
     <use xlink:href="#m89837ac02f" x="114.918838" y="121.974482" style="fill: #eaefef; fill-opacity: 0.7; stroke: #333446; stroke-opacity: 0.7"/>
     <use xlink:href="#m89837ac02f" x="137.819071" y="116.01804" style="fill: #eaefef; fill-opacity: 0.7; stroke: #333446; stroke-opacity: 0.7"/>
     <use xlink:href="#m89837ac02f" x="210.566684" y="93.43278" style="fill: #eaefef; fill-opacity: 0.7; stroke: #333446; stroke-opacity: 0.7"/>
     <use xlink:href="#m89837ac02f" x="125.112405" y="122.13376" style="fill: #eaefef; fill-opacity: 0.7; stroke: #333446; stroke-opacity: 0.7"/>
     <use xlink:href="#m89837ac02f" x="187.172365" y="104.397817" style="fill: #eaefef; fill-opacity: 0.7; stroke: #333446; stroke-opacity: 0.7"/>
     <use xlink:href="#m89837ac02f" x="130.949946" y="119.118546" style="fill: #eaefef; fill-opacity: 0.7; stroke: #333446; stroke-opacity: 0.7"/>
     <use xlink:href="#m89837ac02f" x="105.551323" y="126.229397" style="fill: #eaefef; fill-opacity: 0.7; stroke: #333446; stroke-opacity: 0.7"/>
     <use xlink:href="#m89837ac02f" x="103.1157" y="121.94929" style="fill: #eaefef; fill-opacity: 0.7; stroke: #333446; stroke-opacity: 0.7"/>
     <use xlink:href="#m89837ac02f" x="118.824418" y="121.141482" style="fill: #eaefef; fill-opacity: 0.7; stroke: #333446; stroke-opacity: 0.7"/>
     <use xlink:href="#m89837ac02f" x="154.388293" y="110.615614" style="fill: #eaefef; fill-opacity: 0.7; stroke: #333446; stroke-opacity: 0.7"/>
     <use xlink:href="#m89837ac02f" x="188.163347" y="98.241604" style="fill: #eaefef; fill-opacity: 0.7; stroke: #333446; stroke-opacity: 0.7"/>
     <use xlink:href="#m89837ac02f" x="185.049719" y="105.953322" style="fill: #eaefef; fill-opacity: 0.7; stroke: #333446; stroke-opacity: 0.7"/>
     <use xlink:href="#m89837ac02f" x="141.778582" y="112.340703" style="fill: #eaefef; fill-opacity: 0.7; stroke: #333446; stroke-opacity: 0.7"/>
     <use xlink:href="#m89837ac02f" x="156.348821" y="107.325438" style="fill: #eaefef; fill-opacity: 0.7; stroke: #333446; stroke-opacity: 0.7"/>
     <use xlink:href="#m89837ac02f" x="194.850453" y="95.587752" style="fill: #eaefef; fill-opacity: 0.7; stroke: #333446; stroke-opacity: 0.7"/>
     <use xlink:href="#m89837ac02f" x="197.647155" y="98.362518" style="fill: #eaefef; fill-opacity: 0.7; stroke: #333446; stroke-opacity: 0.7"/>
     <use xlink:href="#m89837ac02f" x="138.045752" y="119.210366" style="fill: #eaefef; fill-opacity: 0.7; stroke: #333446; stroke-opacity: 0.7"/>
     <use xlink:href="#m89837ac02f" x="112.092602" y="34.801274" style="fill: #eaefef; fill-opacity: 0.7; stroke: #333446; stroke-opacity: 0.7"/>
     <use xlink:href="#m89837ac02f" x="58.195592" y="51.223931" style="fill: #eaefef; fill-opacity: 0.7; stroke: #333446; stroke-opacity: 0.7"/>
     <use xlink:href="#m89837ac02f" x="134.074394" y="24.702639" style="fill: #eaefef; fill-opacity: 0.7; stroke: #333446; stroke-opacity: 0.7"/>
     <use xlink:href="#m89837ac02f" x="115.063886" y="34.972034" style="fill: #eaefef; fill-opacity: 0.7; stroke: #333446; stroke-opacity: 0.7"/>
     <use xlink:href="#m89837ac02f" x="114.515502" y="33.970102" style="fill: #eaefef; fill-opacity: 0.7; stroke: #333446; stroke-opacity: 0.7"/>
     <use xlink:href="#m89837ac02f" x="124.399873" y="34.349947" style="fill: #eaefef; fill-opacity: 0.7; stroke: #333446; stroke-opacity: 0.7"/>
     <use xlink:href="#m89837ac02f" x="157.273479" y="26.028981" style="fill: #eaefef; fill-opacity: 0.7; stroke: #333446; stroke-opacity: 0.7"/>
     <use xlink:href="#m89837ac02f" x="108.442867" y="37.007058" style="fill: #eaefef; fill-opacity: 0.7; stroke: #333446; stroke-opacity: 0.7"/>
     <use xlink:href="#m89837ac02f" x="143.161098" y="26.627087" style="fill: #eaefef; fill-opacity: 0.7; stroke: #333446; stroke-opacity: 0.7"/>
     <use xlink:href="#m89837ac02f" x="91.925795" y="41.434345" style="fill: #eaefef; fill-opacity: 0.7; stroke: #333446; stroke-opacity: 0.7"/>
     <use xlink:href="#m89837ac02f" x="119.027128" y="29.731665" style="fill: #eaefef; fill-opacity: 0.7; stroke: #333446; stroke-opacity: 0.7"/>
     <use xlink:href="#m89837ac02f" x="150.155388" y="21.862997" style="fill: #eaefef; fill-opacity: 0.7; stroke: #333446; stroke-opacity: 0.7"/>
     <use xlink:href="#m89837ac02f" x="120.140038" y="27.389933" style="fill: #eaefef; fill-opacity: 0.7; stroke: #333446; stroke-opacity: 0.7"/>
     <use xlink:href="#m89837ac02f" x="78.634041" y="43.091314" style="fill: #eaefef; fill-opacity: 0.7; stroke: #333446; stroke-opacity: 0.7"/>
     <use xlink:href="#m89837ac02f" x="115.058539" y="35.875019" style="fill: #eaefef; fill-opacity: 0.7; stroke: #333446; stroke-opacity: 0.7"/>
     <use xlink:href="#m89837ac02f" x="84.17909" y="46.341297" style="fill: #eaefef; fill-opacity: 0.7; stroke: #333446; stroke-opacity: 0.7"/>
     <use xlink:href="#m89837ac02f" x="80.851019" y="50.410511" style="fill: #eaefef; fill-opacity: 0.7; stroke: #333446; stroke-opacity: 0.7"/>
     <use xlink:href="#m89837ac02f" x="113.938827" y="30.897149" style="fill: #eaefef; fill-opacity: 0.7; stroke: #333446; stroke-opacity: 0.7"/>
     <use xlink:href="#m89837ac02f" x="62.223684" y="48.298495" style="fill: #eaefef; fill-opacity: 0.7; stroke: #333446; stroke-opacity: 0.7"/>
     <use xlink:href="#m89837ac02f" x="99.746059" y="38.261149" style="fill: #eaefef; fill-opacity: 0.7; stroke: #333446; stroke-opacity: 0.7"/>
     <use xlink:href="#m89837ac02f" x="152.497331" y="21.718329" style="fill: #eaefef; fill-opacity: 0.7; stroke: #333446; stroke-opacity: 0.7"/>
     <use xlink:href="#m89837ac02f" x="87.92608" y="43.55536" style="fill: #eaefef; fill-opacity: 0.7; stroke: #333446; stroke-opacity: 0.7"/>
     <use xlink:href="#m89837ac02f" x="65.515856" y="46.247025" style="fill: #eaefef; fill-opacity: 0.7; stroke: #333446; stroke-opacity: 0.7"/>
     <use xlink:href="#m89837ac02f" x="97.688407" y="38.629834" style="fill: #eaefef; fill-opacity: 0.7; stroke: #333446; stroke-opacity: 0.7"/>
     <use xlink:href="#m89837ac02f" x="140.45874" y="18.419091" style="fill: #eaefef; fill-opacity: 0.7; stroke: #333446; stroke-opacity: 0.7"/>
    </g>
   </g>
   <g id="matplotlib.axis_1">
    <g id="xtick_1">
     <g id="line2d_1">
      <defs>
       <path id="ma6ca6ec1b5" d="M 0 0 
L 0 6 
" style="stroke: #000000; stroke-width: 0.5"/>
      </defs>
      <g>
       <use xlink:href="#ma6ca6ec1b5" x="43.794091" y="254.02" style="stroke: #000000; stroke-width: 0.5"/>
      </g>
     </g>
     <g id="text_1">
      <!-- 0.0 -->
      <g transform="translate(35.842528 271.118437) scale(0.1 -0.1)">
       <defs>
        <path id="DejaVuSerif-30" d="M 2034 219 
Q 2513 219 2750 744 
Q 2988 1269 2988 2328 
Q 2988 3391 2750 3916 
Q 2513 4441 2034 4441 
Q 1556 4441 1318 3916 
Q 1081 3391 1081 2328 
Q 1081 1269 1318 744 
Q 1556 219 2034 219 
z
M 2034 -91 
Q 1275 -91 848 546 
Q 422 1184 422 2328 
Q 422 3475 848 4112 
Q 1275 4750 2034 4750 
Q 2797 4750 3222 4112 
Q 3647 3475 3647 2328 
Q 3647 1184 3222 546 
Q 2797 -91 2034 -91 
z
" transform="scale(0.015625)"/>
        <path id="DejaVuSerif-2e" d="M 603 325 
Q 603 500 722 622 
Q 841 744 1019 744 
Q 1191 744 1312 622 
Q 1434 500 1434 325 
Q 1434 153 1312 31 
Q 1191 -91 1019 -91 
Q 841 -91 722 29 
Q 603 150 603 325 
z
" transform="scale(0.015625)"/>
       </defs>
       <use xlink:href="#DejaVuSerif-30"/>
       <use xlink:href="#DejaVuSerif-2e" x="63.623047"/>
       <use xlink:href="#DejaVuSerif-30" x="95.410156"/>
      </g>
     </g>
    </g>
    <g id="xtick_2">
     <g id="line2d_2">
      <g>
       <use xlink:href="#ma6ca6ec1b5" x="101.270455" y="254.02" style="stroke: #000000; stroke-width: 0.5"/>
      </g>
     </g>
     <g id="text_2">
      <!-- 0.2 -->
      <g transform="translate(93.318892 271.118437) scale(0.1 -0.1)">
       <defs>
        <path id="DejaVuSerif-32" d="M 819 3553 
L 469 3553 
L 469 4384 
Q 803 4563 1142 4656 
Q 1481 4750 1806 4750 
Q 2534 4750 2956 4397 
Q 3378 4044 3378 3438 
Q 3378 2753 2422 1800 
Q 2347 1728 2309 1691 
L 1131 513 
L 3078 513 
L 3078 1088 
L 3444 1088 
L 3444 0 
L 434 0 
L 434 341 
L 1850 1753 
Q 2319 2222 2519 2614 
Q 2719 3006 2719 3438 
Q 2719 3909 2473 4175 
Q 2228 4441 1797 4441 
Q 1350 4441 1106 4219 
Q 863 3997 819 3553 
z
" transform="scale(0.015625)"/>
       </defs>
       <use xlink:href="#DejaVuSerif-30"/>
       <use xlink:href="#DejaVuSerif-2e" x="63.623047"/>
       <use xlink:href="#DejaVuSerif-32" x="95.410156"/>
      </g>
     </g>
    </g>
    <g id="xtick_3">
     <g id="line2d_3">
      <g>
       <use xlink:href="#ma6ca6ec1b5" x="158.746818" y="254.02" style="stroke: #000000; stroke-width: 0.5"/>
      </g>
     </g>
     <g id="text_3">
      <!-- 0.4 -->
      <g transform="translate(150.795256 271.118437) scale(0.1 -0.1)">
       <defs>
        <path id="DejaVuSerif-34" d="M 2234 1581 
L 2234 4063 
L 641 1581 
L 2234 1581 
z
M 3609 0 
L 1484 0 
L 1484 331 
L 2234 331 
L 2234 1247 
L 197 1247 
L 197 1588 
L 2241 4750 
L 2859 4750 
L 2859 1581 
L 3750 1581 
L 3750 1247 
L 2859 1247 
L 2859 331 
L 3609 331 
L 3609 0 
z
" transform="scale(0.015625)"/>
       </defs>
       <use xlink:href="#DejaVuSerif-30"/>
       <use xlink:href="#DejaVuSerif-2e" x="63.623047"/>
       <use xlink:href="#DejaVuSerif-34" x="95.410156"/>
      </g>
     </g>
    </g>
    <g id="xtick_4">
     <g id="line2d_4">
      <g>
       <use xlink:href="#ma6ca6ec1b5" x="216.223182" y="254.02" style="stroke: #000000; stroke-width: 0.5"/>
      </g>
     </g>
     <g id="text_4">
      <!-- 0.6 -->
      <g transform="translate(208.271619 271.118437) scale(0.1 -0.1)">
       <defs>
        <path id="DejaVuSerif-36" d="M 2094 219 
Q 2534 219 2771 542 
Q 3009 866 3009 1472 
Q 3009 2078 2771 2401 
Q 2534 2725 2094 2725 
Q 1647 2725 1412 2412 
Q 1178 2100 1178 1509 
Q 1178 888 1415 553 
Q 1653 219 2094 219 
z
M 1075 2569 
Q 1288 2803 1556 2918 
Q 1825 3034 2163 3034 
Q 2859 3034 3264 2615 
Q 3669 2197 3669 1472 
Q 3669 763 3233 336 
Q 2797 -91 2069 -91 
Q 1278 -91 853 498 
Q 428 1088 428 2181 
Q 428 3406 931 4078 
Q 1434 4750 2350 4750 
Q 2597 4750 2869 4703 
Q 3141 4656 3425 4563 
L 3425 3794 
L 3072 3794 
Q 3034 4109 2831 4275 
Q 2628 4441 2284 4441 
Q 1678 4441 1381 3981 
Q 1084 3522 1075 2569 
z
" transform="scale(0.015625)"/>
       </defs>
       <use xlink:href="#DejaVuSerif-30"/>
       <use xlink:href="#DejaVuSerif-2e" x="63.623047"/>
       <use xlink:href="#DejaVuSerif-36" x="95.410156"/>
      </g>
     </g>
    </g>
    <g id="xtick_5">
     <g id="line2d_5">
      <g>
       <use xlink:href="#ma6ca6ec1b5" x="273.699545" y="254.02" style="stroke: #000000; stroke-width: 0.5"/>
      </g>
     </g>
     <g id="text_5">
      <!-- 0.8 -->
      <g transform="translate(265.747983 271.118437) scale(0.1 -0.1)">
       <defs>
        <path id="DejaVuSerif-38" d="M 2981 1275 
Q 2981 1775 2732 2051 
Q 2484 2328 2034 2328 
Q 1584 2328 1336 2051 
Q 1088 1775 1088 1275 
Q 1088 772 1336 495 
Q 1584 219 2034 219 
Q 2484 219 2732 495 
Q 2981 772 2981 1275 
z
M 2853 3541 
Q 2853 3966 2637 4203 
Q 2422 4441 2034 4441 
Q 1650 4441 1433 4203 
Q 1216 3966 1216 3541 
Q 1216 3113 1433 2875 
Q 1650 2638 2034 2638 
Q 2422 2638 2637 2875 
Q 2853 3113 2853 3541 
z
M 2516 2484 
Q 3047 2413 3344 2092 
Q 3641 1772 3641 1275 
Q 3641 619 3225 264 
Q 2809 -91 2034 -91 
Q 1263 -91 845 264 
Q 428 619 428 1275 
Q 428 1772 725 2092 
Q 1022 2413 1556 2484 
Q 1084 2569 832 2842 
Q 581 3116 581 3541 
Q 581 4103 968 4426 
Q 1356 4750 2034 4750 
Q 2713 4750 3100 4426 
Q 3488 4103 3488 3541 
Q 3488 3116 3236 2842 
Q 2984 2569 2516 2484 
z
" transform="scale(0.015625)"/>
       </defs>
       <use xlink:href="#DejaVuSerif-30"/>
       <use xlink:href="#DejaVuSerif-2e" x="63.623047"/>
       <use xlink:href="#DejaVuSerif-38" x="95.410156"/>
      </g>
     </g>
    </g>
    <g id="xtick_6">
     <g id="line2d_6">
      <g>
       <use xlink:href="#ma6ca6ec1b5" x="331.175909" y="254.02" style="stroke: #000000; stroke-width: 0.5"/>
      </g>
     </g>
     <g id="text_6">
      <!-- 1.0 -->
      <g transform="translate(323.224347 271.118437) scale(0.1 -0.1)">
       <defs>
        <path id="DejaVuSerif-31" d="M 909 0 
L 909 331 
L 1722 331 
L 1722 4213 
L 781 3603 
L 781 4013 
L 1919 4750 
L 2350 4750 
L 2350 331 
L 3163 331 
L 3163 0 
L 909 0 
z
" transform="scale(0.015625)"/>
       </defs>
       <use xlink:href="#DejaVuSerif-31"/>
       <use xlink:href="#DejaVuSerif-2e" x="63.623047"/>
       <use xlink:href="#DejaVuSerif-30" x="95.410156"/>
      </g>
     </g>
    </g>
   </g>
   <g id="matplotlib.axis_2">
    <g id="ytick_1">
     <g id="line2d_7">
      <defs>
       <path id="m74fdd04784" d="M 0 0 
L -6 0 
" style="stroke: #000000; stroke-width: 0.5"/>
      </defs>
      <g>
       <use xlink:href="#m74fdd04784" x="29.425" y="232.179893" style="stroke: #000000; stroke-width: 0.5"/>
      </g>
     </g>
     <g id="text_7">
      <!-- 4 -->
      <g transform="translate(13.5625 235.979112) scale(0.1 -0.1)">
       <use xlink:href="#DejaVuSerif-34"/>
      </g>
     </g>
    </g>
    <g id="ytick_2">
     <g id="line2d_8">
      <g>
       <use xlink:href="#m74fdd04784" x="29.425" y="202.91602" style="stroke: #000000; stroke-width: 0.5"/>
      </g>
     </g>
     <g id="text_8">
      <!-- 5 -->
      <g transform="translate(13.5625 206.715238) scale(0.1 -0.1)">
       <defs>
        <path id="DejaVuSerif-35" d="M 3219 4666 
L 3219 4153 
L 1081 4153 
L 1081 2816 
Q 1244 2928 1461 2984 
Q 1678 3041 1947 3041 
Q 2703 3041 3140 2622 
Q 3578 2203 3578 1478 
Q 3578 738 3136 323 
Q 2694 -91 1894 -91 
Q 1572 -91 1234 -12 
Q 897 66 544 225 
L 544 1131 
L 897 1131 
Q 925 688 1179 453 
Q 1434 219 1894 219 
Q 2388 219 2653 544 
Q 2919 869 2919 1478 
Q 2919 2084 2655 2407 
Q 2391 2731 1894 2731 
Q 1613 2731 1398 2631 
Q 1184 2531 1019 2322 
L 750 2322 
L 750 4666 
L 3219 4666 
z
" transform="scale(0.015625)"/>
       </defs>
       <use xlink:href="#DejaVuSerif-35"/>
      </g>
     </g>
    </g>
    <g id="ytick_3">
     <g id="line2d_9">
      <g>
       <use xlink:href="#m74fdd04784" x="29.425" y="173.652146" style="stroke: #000000; stroke-width: 0.5"/>
      </g>
     </g>
     <g id="text_9">
      <!-- 6 -->
      <g transform="translate(13.5625 177.451365) scale(0.1 -0.1)">
       <use xlink:href="#DejaVuSerif-36"/>
      </g>
     </g>
    </g>
    <g id="ytick_4">
     <g id="line2d_10">
      <g>
       <use xlink:href="#m74fdd04784" x="29.425" y="144.388273" style="stroke: #000000; stroke-width: 0.5"/>
      </g>
     </g>
     <g id="text_10">
      <!-- 7 -->
      <g transform="translate(13.5625 148.187491) scale(0.1 -0.1)">
       <defs>
        <path id="DejaVuSerif-37" d="M 3609 4347 
L 1784 0 
L 1319 0 
L 3059 4153 
L 903 4153 
L 903 3578 
L 538 3578 
L 538 4666 
L 3609 4666 
L 3609 4347 
z
" transform="scale(0.015625)"/>
       </defs>
       <use xlink:href="#DejaVuSerif-37"/>
      </g>
     </g>
    </g>
    <g id="ytick_5">
     <g id="line2d_11">
      <g>
       <use xlink:href="#m74fdd04784" x="29.425" y="115.124399" style="stroke: #000000; stroke-width: 0.5"/>
      </g>
     </g>
     <g id="text_11">
      <!-- 8 -->
      <g transform="translate(13.5625 118.923618) scale(0.1 -0.1)">
       <use xlink:href="#DejaVuSerif-38"/>
      </g>
     </g>
    </g>
    <g id="ytick_6">
     <g id="line2d_12">
      <g>
       <use xlink:href="#m74fdd04784" x="29.425" y="85.860525" style="stroke: #000000; stroke-width: 0.5"/>
      </g>
     </g>
     <g id="text_12">
      <!-- 9 -->
      <g transform="translate(13.5625 89.659744) scale(0.1 -0.1)">
       <defs>
        <path id="DejaVuSerif-39" d="M 2994 2091 
Q 2784 1856 2512 1740 
Q 2241 1625 1900 1625 
Q 1206 1625 804 2044 
Q 403 2463 403 3188 
Q 403 3897 839 4323 
Q 1275 4750 2003 4750 
Q 2794 4750 3217 4161 
Q 3641 3572 3641 2478 
Q 3641 1253 3137 581 
Q 2634 -91 1722 -91 
Q 1475 -91 1203 -44 
Q 931 3 647 97 
L 647 872 
L 997 872 
Q 1038 556 1241 387 
Q 1444 219 1784 219 
Q 2391 219 2687 676 
Q 2984 1134 2994 2091 
z
M 1978 4441 
Q 1534 4441 1298 4117 
Q 1063 3794 1063 3188 
Q 1063 2581 1298 2256 
Q 1534 1931 1978 1931 
Q 2422 1931 2658 2245 
Q 2894 2559 2894 3150 
Q 2894 3772 2656 4106 
Q 2419 4441 1978 4441 
z
" transform="scale(0.015625)"/>
       </defs>
       <use xlink:href="#DejaVuSerif-39"/>
      </g>
     </g>
    </g>
    <g id="ytick_7">
     <g id="line2d_13">
      <g>
       <use xlink:href="#m74fdd04784" x="29.425" y="56.596652" style="stroke: #000000; stroke-width: 0.5"/>
      </g>
     </g>
     <g id="text_13">
      <!-- 10 -->
      <g transform="translate(7.2 60.395871) scale(0.1 -0.1)">
       <use xlink:href="#DejaVuSerif-31"/>
       <use xlink:href="#DejaVuSerif-30" x="63.623047"/>
      </g>
     </g>
    </g>
    <g id="ytick_8">
     <g id="line2d_14">
      <g>
       <use xlink:href="#m74fdd04784" x="29.425" y="27.332778" style="stroke: #000000; stroke-width: 0.5"/>
      </g>
     </g>
     <g id="text_14">
      <!-- 11 -->
      <g transform="translate(7.2 31.131997) scale(0.1 -0.1)">
       <use xlink:href="#DejaVuSerif-31"/>
       <use xlink:href="#DejaVuSerif-31" x="63.623047"/>
      </g>
     </g>
    </g>
   </g>
   <g id="line2d_15">
    <path d="M 43.794091 19.671067 
L 46.696938 21.924903 
L 49.599784 24.17874 
L 52.502631 26.432577 
L 55.405478 28.686414 
L 58.308324 30.940251 
L 61.211171 33.194087 
L 64.114017 35.447924 
L 67.016864 37.701761 
L 69.919711 39.955598 
L 72.822557 42.209435 
L 75.725404 44.463271 
L 78.628251 46.717108 
L 81.531097 48.970945 
L 84.433944 51.224782 
L 87.336791 53.478619 
L 90.239637 55.732455 
L 93.142484 57.986292 
L 96.045331 60.240129 
L 98.948177 62.493966 
L 101.851024 64.747802 
L 104.753871 67.001639 
L 107.656717 69.255476 
L 110.559564 71.509313 
L 113.46241 73.76315 
L 116.365257 76.016986 
L 119.268104 78.270823 
L 122.17095 80.52466 
L 125.073797 82.778497 
L 127.976644 85.032334 
L 130.87949 87.28617 
L 133.782337 89.540007 
L 136.685184 91.793844 
L 139.58803 94.047681 
L 142.490877 96.301518 
L 145.393724 98.555354 
L 148.29657 100.809191 
L 151.199417 103.063028 
L 154.102264 105.316865 
L 157.00511 107.570702 
L 159.907957 109.824538 
L 162.810803 112.078375 
L 165.71365 114.332212 
L 168.616497 116.586049 
L 171.519343 118.839886 
L 174.42219 121.093722 
L 177.325037 123.347559 
L 180.227883 125.601396 
L 183.13073 127.855233 
L 186.033577 130.109069 
L 188.936423 132.362906 
L 191.83927 134.616743 
L 194.742117 136.87058 
L 197.644963 139.124417 
L 200.54781 141.378253 
L 203.450657 143.63209 
L 206.353503 145.885927 
L 209.25635 148.139764 
L 212.159197 150.393601 
L 215.062043 152.647437 
L 217.96489 154.901274 
L 220.867736 157.155111 
L 223.770583 159.408948 
L 226.67343 161.662785 
L 229.576276 163.916621 
L 232.479123 166.170458 
L 235.38197 168.424295 
L 238.284816 170.678132 
L 241.187663 172.931969 
L 244.09051 175.185805 
L 246.993356 177.439642 
L 249.896203 179.693479 
L 252.79905 181.947316 
L 255.701896 184.201152 
L 258.604743 186.454989 
L 261.50759 188.708826 
L 264.410436 190.962663 
L 267.313283 193.2165 
L 270.216129 195.470336 
L 273.118976 197.724173 
L 276.021823 199.97801 
L 278.924669 202.231847 
L 281.827516 204.485684 
L 284.730363 206.73952 
L 287.633209 208.993357 
L 290.536056 211.247194 
L 293.438903 213.501031 
L 296.341749 215.754868 
L 299.244596 218.008704 
L 302.147443 220.262541 
L 305.050289 222.516378 
L 307.953136 224.770215 
L 310.855983 227.024052 
L 313.758829 229.277888 
L 316.661676 231.531725 
L 319.564522 233.785562 
L 322.467369 236.039399 
L 325.370216 238.293236 
L 328.273062 240.547072 
L 331.175909 242.800909 
" clip-path="url(#p6bce9f47f6)" style="fill: none; stroke-dasharray: 5.55,2.4; stroke-dashoffset: 0; stroke: #af3e3e; stroke-opacity: 0.7; stroke-width: 1.5"/>
   </g>
   <g id="patch_3">
    <path d="M 29.425 254.02 
L 29.425 7.2 
" style="fill: none; stroke: #000000; stroke-width: 0.5; stroke-linejoin: miter; stroke-linecap: square"/>
   </g>
   <g id="patch_4">
    <path d="M 29.425 254.02 
L 345.545 254.02 
" style="fill: none; stroke: #000000; stroke-width: 0.5; stroke-linejoin: miter; stroke-linecap: square"/>
   </g>
  </g>
 </g>
 <defs>
  <clipPath id="p6bce9f47f6">
   <rect x="29.425" y="7.2" width="316.12" height="246.82"/>
  </clipPath>
 </defs>
</svg>
